<svg width="55" height="55" viewBox="0 0 55 55" fill="none" xmlns="http://www.w3.org/2000/svg">
<mask id="mask0_656_2236" style="mask-type:alpha" maskUnits="userSpaceOnUse" x="0" y="0" width="55" height="55">
<rect width="55" height="55" fill="#D9D9D9"/>
</mask>
<g mask="url(#mask0_656_2236)">
<path d="M26.4029 41.2318L36.4457 39.456L36.5387 39.435L31.3733 33.2887C29.641 31.2388 27.9182 29.181 26.2049 27.1154C26.2049 27.0854 31.5413 12.39 31.5713 12.339C34.5237 17.3935 37.4574 22.459 40.3723 27.5353L49.2213 42.8786L49.2903 42.9956L16.45 42.9926L26.4029 41.2318ZM6.69507 39.36C6.69507 39.351 9.1278 35.1245 12.1035 29.968L17.5149 20.5881L23.8202 15.2967C27.2878 12.39 30.1344 9.99927 30.1434 9.99927C30.1211 10.088 30.0878 10.1737 30.0445 10.2542L23.1932 24.9406L16.474 39.363L11.5845 39.369C8.89382 39.372 6.69507 39.369 6.69507 39.36Z" fill="#0089D6"/>
</g>
</svg>
