<svg width="55" height="55" viewBox="0 0 55 55" fill="none" xmlns="http://www.w3.org/2000/svg">
<mask id="mask0_658_3370" style="mask-type:alpha" maskUnits="userSpaceOnUse" x="0" y="0" width="55" height="55">
<rect width="55" height="55" fill="#D9D9D9"/>
</mask>
<g mask="url(#mask0_658_3370)">
<path d="M32.0628 16.673C28.0225 16.673 24.0403 18.4076 21.0001 21.8178V5.00073H14.9839V33.3133C14.9839 33.3139 14.9839 33.3146 14.9839 33.3154C14.9839 42.5066 22.4348 49.9576 31.6262 49.9576C40.8174 49.9576 48.2684 42.5066 48.2684 33.3154C48.2684 24.1242 41.254 16.673 32.0628 16.673ZM31.6262 43.5476C25.975 43.5476 21.3937 38.9664 21.3937 33.3153C21.3937 27.6641 25.975 23.0829 31.6262 23.0829C37.2772 23.0829 41.8585 27.6641 41.8585 33.3153C41.8585 38.9665 37.2772 43.5476 31.6262 43.5476Z" fill="#262626"/>
<path d="M10.6107 41.7266C8.33781 41.7266 6.49536 43.5691 6.49536 45.8419C6.49536 48.1147 8.33781 49.9573 10.6107 49.9573C12.8836 49.9573 14.7261 48.1147 14.7261 45.8419C14.7261 43.5691 12.8836 41.7266 10.6107 41.7266Z" fill="#0000FF"/>
</g>
</svg>
