<svg width="55" height="55" viewBox="0 0 55 55" fill="none" xmlns="http://www.w3.org/2000/svg">
<mask id="mask0_658_3383" style="mask-type:alpha" maskUnits="userSpaceOnUse" x="0" y="0" width="55" height="55">
<rect width="55" height="55" fill="#D9D9D9"/>
</mask>
<g mask="url(#mask0_658_3383)">
<path d="M45.2204 18.5636C45.2222 20.2768 44.8407 21.9681 44.1032 23.5137C43.3657 25.0593 42.2912 26.4203 40.9589 27.496L10.3176 10.0961C10.2005 10.0291 10.0921 9.94863 9.99393 9.85538C9.84034 9.70484 9.71845 9.52505 9.63495 9.32697C9.55145 9.12828 9.50818 8.91496 9.50818 8.69982C9.50818 8.27014 9.67883 7.85813 9.98235 7.55461C10.2859 7.25049 10.6979 7.07983 11.1276 7.07983H33.7421C36.7864 7.07983 39.7058 8.28964 41.8585 10.4435C44.0112 12.5968 45.2204 15.518 45.2204 18.5636Z" fill="#18B4F4"/>
<path d="M45.2249 36.4277C45.2255 37.9362 44.9287 39.43 44.3521 40.8232C43.7756 42.2171 42.9302 43.4836 41.8643 44.5502C40.7983 45.6168 39.5324 46.4627 38.1398 47.0399C36.7471 47.6177 35.2539 47.9145 33.7467 47.9145H11.1321C10.8115 47.9108 10.4995 47.8127 10.235 47.6317C9.97106 47.4507 9.76567 47.1953 9.64682 46.8979C9.52736 46.6004 9.49872 46.2744 9.56515 45.9605C9.63097 45.6472 9.78822 45.3602 10.0174 45.1359C10.1088 45.0445 10.2112 44.9646 10.3221 44.8982L22.3812 38.0507L40.961 27.4983C42.2927 28.574 43.3672 29.9344 44.1053 31.4794C44.8434 33.0244 45.2255 34.7157 45.2249 36.4277Z" fill="#FD6B3C"/>
<path d="M40.9624 27.4961L22.3801 38.051L10.3217 44.8984C10.2059 44.963 10.0986 45.0417 10.0029 45.1337C14.6008 40.4158 17.1716 34.0851 17.1661 27.4961C17.1746 20.9059 14.6045 14.574 10.0054 9.85547C10.1035 9.94872 10.212 10.0292 10.3296 10.0962L40.9624 27.4961Z" fill="#A97FF2"/>
</g>
</svg>
