<svg width="55" height="55" viewBox="0 0 55 55" fill="none" xmlns="http://www.w3.org/2000/svg">
<mask id="mask0_656_2308" style="mask-type:alpha" maskUnits="userSpaceOnUse" x="0" y="0" width="55" height="55">
<rect width="55" height="55" fill="#D9D9D9"/>
</mask>
<g mask="url(#mask0_656_2308)">
<path d="M21.6816 34.3677C23.3829 36.0583 25.68 37.0133 28.0784 37.0269V33.2474C27.3861 33.2538 26.6995 33.1207 26.0597 32.8561C25.4198 32.5914 24.8399 32.2007 24.3543 31.707L21.6816 34.3677Z" fill="#3F5364"/>
<path d="M31.3652 19.5989L29.9658 23.098C31.0716 23.5442 32.0081 24.3284 32.6415 25.3387H36.7151C36.3074 24.0438 35.6155 22.8563 34.6899 21.8632C33.7642 20.8701 32.6283 20.0964 31.3652 19.5989Z" fill="#3F5364"/>
<path d="M19.0105 27.9977C19.0155 29.2509 19.2774 30.4898 19.7799 31.6378L23.2295 30.0975C22.9429 29.4351 22.7998 28.7195 22.8096 27.9977C22.8229 26.6073 23.3821 25.2778 24.3666 24.2958C25.3511 23.3139 26.682 22.7581 28.0725 22.7483V18.9688C25.6752 18.9699 23.3759 19.9205 21.6776 21.6126C19.9794 23.3046 19.0204 25.6004 19.0105 27.9977Z" fill="#F18B21"/>
<path d="M29.9541 32.8974L31.3534 36.3965C32.6346 35.9004 33.7863 35.1197 34.7216 34.1134C35.6569 33.1071 36.3515 31.9016 36.7528 30.5876H32.6838C32.0639 31.6463 31.1007 32.4612 29.9541 32.8974Z" fill="#F18B21"/>
<path d="M28.0633 37.4466C26.3077 37.4393 24.589 36.943 23.0997 36.0135C21.6104 35.0839 20.4096 33.7579 19.6318 32.184C18.854 30.6102 18.5301 28.8507 18.6963 27.1031C18.8625 25.3554 19.5124 23.6886 20.5729 22.2896C21.6334 20.8906 23.0628 19.8147 24.7006 19.1826C26.3384 18.5505 28.1199 18.3871 29.8453 18.7109C31.5708 19.0346 33.1719 19.8327 34.4692 21.0155C35.7664 22.1983 36.7085 23.7192 37.1898 25.4075H40.8434C40.1934 22.2587 38.3983 19.463 35.8055 17.5617C33.2127 15.6604 30.0067 14.7886 26.8082 15.1153C23.6096 15.442 20.646 16.9438 18.4911 19.33C16.3362 21.7161 15.1433 24.817 15.1433 28.0322C15.1433 31.2474 16.3362 34.3482 18.4911 36.7344C20.646 39.1206 23.6096 40.6224 26.8082 40.949C30.0067 41.2757 33.2127 40.404 35.8055 38.5027C38.3983 36.6014 40.1934 33.8057 40.8434 30.6569H37.1898C36.6122 32.6262 35.4093 34.354 33.7627 35.5789C32.1161 36.8039 30.1155 37.4595 28.0633 37.4466Z" fill="#3F5364"/>
<path d="M28.0647 14.5591V10.9895C24.6325 10.9822 21.2786 12.0149 18.4448 13.9514C15.6111 15.8879 13.4306 18.6375 12.1904 21.8378L15.4901 23.0977C16.4945 20.582 18.2288 18.4244 20.4698 16.9027C22.7108 15.381 25.3559 14.5648 28.0647 14.5591Z" fill="#3F5364"/>
<path d="M28.0676 41.4358V45.0054C32.1242 45.0084 36.0491 43.5655 39.1378 40.9358C42.2266 38.3061 44.2771 34.6616 44.9212 30.6565H41.2676C40.6592 33.7054 39.0096 36.4479 36.6015 38.4144C34.1935 40.3808 31.1766 41.4489 28.0676 41.4358Z" fill="#3F5364"/>
<path d="M41.3344 25.4072H44.9175C44.4456 22.4623 43.2117 19.692 41.3381 17.3714C39.4645 15.0508 37.0165 13.2606 34.2372 12.1787L32.9773 15.4678C35.0853 16.3015 36.9529 17.6464 38.4118 19.3815C39.8706 21.1166 40.875 23.1874 41.3344 25.4072Z" fill="#F18B21"/>
<path d="M14.5917 27.9973H11.0071C11.0107 31.407 12.0371 34.7373 13.9537 37.5573C15.8703 40.3774 18.5889 42.5576 21.7579 43.816L23.0882 40.5269C20.5852 39.522 18.4394 37.7926 16.9256 35.5603C15.4118 33.328 14.5991 30.6945 14.5917 27.9973Z" fill="#F18B21"/>
<path d="M45.3426 25.4071H48.9257C48.5206 22.4036 47.4905 19.5185 45.9021 16.9375L42.8784 18.8273C44.1867 20.8061 45.0292 23.0557 45.3426 25.4071Z" fill="#3F5364"/>
<path d="M7.00058 28.0114C6.9737 31.1325 7.60805 34.224 8.86187 37.0824L12.334 35.6545C11.2251 33.2554 10.6382 30.6482 10.6122 28.0054" fill="#3F5364"/>
<path d="M28.0681 45.425C25.7731 45.4281 23.4999 44.9784 21.379 44.1015C19.258 43.2247 17.3309 41.9379 15.708 40.3151L13.1748 42.8348C15.1215 44.8022 17.4419 46.3606 19.9995 47.4184C22.5572 48.4763 25.3004 49.0121 28.0681 48.9946C33.1966 48.9901 38.1482 47.1198 41.9989 43.7327C45.8497 40.3456 48.3365 35.6731 48.9953 30.5872H45.4122C44.7603 34.7199 42.6555 38.4846 39.4763 41.2044C36.2971 43.9242 32.252 45.4208 28.0681 45.425Z" fill="#F18B21"/>
<path d="M28.0746 10.5694C31.8513 10.5468 35.5289 11.7774 38.5314 14.0686L40.7151 11.1994C37.0711 8.46086 32.6329 6.98637 28.0746 6.99985C23.8337 6.99902 19.6905 8.27327 16.183 10.6571C12.6756 13.041 9.96587 16.4244 8.40576 20.3679L11.7789 21.6982C13.0637 18.4215 15.3053 15.6075 18.2118 13.6226C21.1182 11.6377 24.555 10.5738 28.0746 10.5694Z" fill="#F18B21"/>
</g>
</svg>
