<svg width="55" height="55" viewBox="0 0 55 55" fill="none" xmlns="http://www.w3.org/2000/svg">
<mask id="mask0_656_2538" style="mask-type:alpha" maskUnits="userSpaceOnUse" x="0" y="0" width="55" height="55">
<rect width="55" height="55" fill="#D9D9D9"/>
</mask>
<g mask="url(#mask0_656_2538)">
<g clip-path="url(#clip0_656_2538)">
<path d="M39.5582 24.1742C38.1595 21.5531 35.9465 19.4578 33.253 18.2043C30.5594 16.9508 27.5314 16.6069 24.6253 17.2247C21.7193 17.8424 19.0929 19.3881 17.1421 21.6288C15.1913 23.8696 14.0219 26.6838 13.8102 29.6472C11.3936 29.9071 9.16846 31.0834 7.59273 32.934C6.017 34.7846 5.21053 37.1688 5.33927 39.596C5.46801 42.0232 6.52217 44.3087 8.28482 45.9822C10.0475 47.6558 12.3845 48.5901 14.8151 48.5929H37.3338C40.4066 48.5947 43.369 47.4473 45.6388 45.3762C47.9086 43.305 49.3218 40.4598 49.6006 37.3996C49.8793 34.3395 49.0035 31.2858 47.1453 28.8386C45.2871 26.3913 42.5808 24.7275 39.5582 24.1742ZM37.3338 46.4817H14.8151C12.9426 46.486 11.1387 45.7776 9.76959 44.5001C8.40049 43.2227 7.56888 41.4721 7.4436 39.6038C7.31833 37.7355 7.9088 35.8896 9.0951 34.4408C10.2814 32.992 11.9746 32.0491 13.8309 31.8034C13.9798 33.6659 14.5084 35.4782 15.3841 37.1287C15.4475 37.2546 15.5355 37.3664 15.6428 37.4577C15.7502 37.549 15.8747 37.6179 16.009 37.6603C16.1434 37.7027 16.2849 37.7178 16.4252 37.7047C16.5655 37.6915 16.7017 37.6504 16.8259 37.5838C16.95 37.5172 17.0596 37.4264 17.1481 37.3168C17.2366 37.2071 17.3023 37.0809 17.3412 36.9455C17.3802 36.8101 17.3916 36.6682 17.3749 36.5283C17.3581 36.3884 17.3135 36.2533 17.2438 36.1309C15.8486 33.5226 15.5014 30.4802 16.2732 27.6248C17.0449 24.7693 18.8774 22.3159 21.3965 20.7656C23.9156 19.2153 26.9315 18.6848 29.8284 19.2825C32.7253 19.8802 35.2849 21.561 36.9847 23.9818C35.2979 24.0283 33.6387 24.4208 32.1098 25.135C30.5809 25.8492 29.2151 26.8698 28.0969 28.1337C28.0017 28.237 27.9281 28.3583 27.8804 28.4905C27.8326 28.6227 27.8118 28.7631 27.8191 28.9034C27.8263 29.0437 27.8615 29.1812 27.9226 29.3078C27.9837 29.4343 28.0695 29.5474 28.1748 29.6404C28.2802 29.7334 28.4031 29.8044 28.5363 29.8492C28.6694 29.8941 28.8102 29.9119 28.9504 29.9016C29.0905 29.8914 29.2272 29.8532 29.3524 29.7894C29.4777 29.7256 29.5889 29.6374 29.6796 29.5301C30.8072 28.2511 32.2374 27.275 33.8394 26.6911C35.4414 26.1072 37.1643 25.9341 38.8505 26.1876C40.5367 26.4411 42.1324 27.1131 43.492 28.1422C44.8515 29.1713 45.9315 30.5248 46.6332 32.0788C47.3349 33.6329 47.636 35.338 47.5089 37.0384C47.3818 38.7388 46.8307 40.3802 45.9058 41.8127C44.9808 43.2452 43.7117 44.4231 42.2143 45.2387C40.7169 46.0543 39.0389 46.4817 37.3338 46.4817Z" fill="black"/>
<path d="M49.854 19.3956C49.784 19.2741 49.6906 19.1676 49.5794 19.0822C49.4681 18.9968 49.3411 18.9342 49.2057 18.8979C49.0702 18.8616 48.9289 18.8524 48.7899 18.8708C48.6508 18.8891 48.5168 18.9347 48.3954 19.0049L44.145 21.4592C44.0201 21.5275 43.9102 21.62 43.8217 21.7313C43.7331 21.8427 43.6677 21.9706 43.6293 22.1076C43.5909 22.2446 43.5802 22.3879 43.5979 22.529C43.6156 22.6702 43.6614 22.8064 43.7325 22.9296C43.8036 23.0528 43.8986 23.1606 44.0119 23.2466C44.1253 23.3326 44.2546 23.3951 44.3925 23.4304C44.5303 23.4657 44.6738 23.4731 44.8145 23.4522C44.9552 23.4312 45.0903 23.3824 45.2119 23.3085L49.4623 20.8543C49.7077 20.7128 49.8868 20.4796 49.9602 20.2061C50.0337 19.9325 49.9955 19.641 49.854 19.3956Z" fill="black"/>
<path d="M36.8777 16.0389C36.9991 16.1091 37.1332 16.1547 37.2722 16.1731C37.4113 16.1914 37.5526 16.1822 37.688 16.1459C37.8235 16.1096 37.9505 16.047 38.0617 15.9616C38.173 15.8762 38.2663 15.7697 38.3364 15.6482L40.7906 11.3978C40.9297 11.1527 40.9663 10.8626 40.8924 10.5907C40.8184 10.3187 40.64 10.087 40.3959 9.94609C40.1519 9.80516 39.862 9.76642 39.5896 9.83831C39.3171 9.91021 39.084 10.0869 38.9413 10.3299L36.487 14.5803C36.3455 14.8255 36.3071 15.117 36.3804 15.3905C36.4536 15.664 36.6325 15.8973 36.8777 16.0389Z" fill="black"/>
<path d="M27.4827 13.5215C27.7659 13.5214 28.0375 13.4089 28.2377 13.2086C28.438 13.0084 28.5505 12.7368 28.5506 12.4536V7.54505C28.5522 7.40378 28.5258 7.2636 28.4729 7.13262C28.4199 7.00163 28.3415 6.88245 28.2422 6.78199C28.1429 6.68152 28.0246 6.60175 27.8943 6.54731C27.7639 6.49287 27.624 6.46484 27.4827 6.46484C27.3415 6.46484 27.2016 6.49287 27.0712 6.54731C26.9409 6.60175 26.8226 6.68152 26.7233 6.78199C26.6239 6.88245 26.5455 7.00163 26.4926 7.13262C26.4397 7.2636 26.4132 7.40378 26.4149 7.54505V12.4536C26.4149 12.7368 26.5274 13.0084 26.7277 13.2086C26.9279 13.4089 27.1995 13.5214 27.4827 13.5215Z" fill="black"/>
<path d="M16.6243 15.6484C16.7671 15.8914 17.0001 16.0681 17.2726 16.14C17.5451 16.2119 17.835 16.1731 18.079 16.0322C18.323 15.8913 18.5015 15.6596 18.5754 15.3876C18.6493 15.1157 18.6128 14.8256 18.4737 14.5805L16.0194 10.3301C15.9499 10.2075 15.8568 10.1 15.7455 10.0136C15.6342 9.92718 15.5069 9.86367 15.3709 9.82671C15.2349 9.78974 15.093 9.78005 14.9533 9.7982C14.8135 9.81634 14.6788 9.86195 14.5568 9.93242C14.4348 10.0029 14.3279 10.0968 14.2423 10.2087C14.1568 10.3207 14.0942 10.4485 14.0583 10.5847C14.0223 10.7209 14.0137 10.8629 14.0329 11.0025C14.0521 11.1421 14.0987 11.2765 14.1701 11.398L16.6243 15.6484Z" fill="black"/>
<path d="M10.8218 21.4588L6.57136 19.0046C6.44987 18.9332 6.31546 18.8866 6.17588 18.8674C6.03629 18.8482 5.89428 18.8568 5.75805 18.8928C5.62181 18.9287 5.49403 18.9913 5.38208 19.0768C5.27013 19.1624 5.17622 19.2692 5.10575 19.3912C5.03529 19.5133 4.98968 19.648 4.97154 19.7877C4.95339 19.9275 4.96308 20.0694 5.00005 20.2054C5.03701 20.3413 5.10052 20.4686 5.18691 20.5799C5.2733 20.6912 5.38087 20.7844 5.50341 20.8539L9.75423 23.3082C9.87572 23.3795 10.0101 23.4262 10.1497 23.4453C10.2893 23.4645 10.4313 23.4559 10.5675 23.42C10.7038 23.384 10.8316 23.3215 10.9435 23.2359C11.0555 23.1504 11.1494 23.0435 11.2198 22.9215C11.2903 22.7995 11.3359 22.6647 11.3541 22.525C11.3722 22.3852 11.3625 22.2433 11.3255 22.1073C11.2886 21.9714 11.2251 21.8441 11.1387 21.7328C11.0523 21.6215 10.9443 21.5284 10.8218 21.4588Z" fill="black"/>
</g>
</g>
<defs>
<clipPath id="clip0_656_2538">
<rect width="45.0373" height="45.0373" fill="white" transform="translate(4.96265 4.96265)"/>
</clipPath>
</defs>
</svg>
