<svg width="55" height="55" viewBox="0 0 55 55" fill="none" xmlns="http://www.w3.org/2000/svg">
<mask id="mask0_658_2617" style="mask-type:alpha" maskUnits="userSpaceOnUse" x="0" y="0" width="55" height="55">
<rect width="55" height="55" fill="#D9D9D9"/>
</mask>
<g mask="url(#mask0_658_2617)">
<path d="M15.4304 24.9678C15.5006 24.9053 15.5781 24.8514 15.6612 24.8074C15.5756 24.8471 15.4975 24.9014 15.4304 24.9678Z" fill="#F0D6B7"/>
<path d="M19.6133 30.6524C19.6978 31.245 19.9511 36.5129 23.5062 39.4488C24.2286 39.5614 24.9563 39.6375 25.6863 39.6768C26.0804 38.8323 27.5328 38.8971 28.48 39.1138C27.2926 38.5074 26.2484 37.6542 25.4175 36.6114C24.3115 35.6456 23.5785 34.3231 23.3458 32.8733C25.243 35.5052 26.8108 37.7993 30.2604 38.9618C32.8712 39.8372 35.9196 38.5607 37.9252 37.1519C38.6981 36.4813 39.3482 35.6812 39.8463 34.7874C42.1206 31.1683 43.1784 26.917 42.8652 22.6541C42.9293 21.008 42.6908 19.3641 42.1615 17.8041C41.524 16.5262 39.3692 15.3834 38.1082 16.5375C38.0874 16.4233 38.0798 16.3071 38.0857 16.1912C37.8844 16.3798 37.762 16.5177 37.762 16.5177C37.6574 16.3038 37.5989 16.0703 37.5902 15.8323C37.6082 15.2781 37.8364 14.7515 38.2285 14.3594C38.6206 13.9673 39.1472 13.7392 39.7014 13.7212C39.1015 12.9044 38.4023 12.1654 37.6198 11.5214C34.8752 10.5836 31.9151 10.4749 29.1092 11.209C27.1641 11.6271 25.3632 12.5494 23.8872 13.8834C22.4112 15.2174 21.312 16.9161 20.6998 18.809C20.4314 19.8541 20.2488 20.9193 20.1538 21.994C20.1101 23.2382 20.7392 24.3233 20.7871 25.6772C20.4507 26.2317 19.4233 26.3007 18.7126 26.2627C18.6605 25.9995 18.5972 25.7293 18.5212 25.4661C17.9614 25.154 17.3627 24.9173 16.7408 24.7624C17.2862 24.9855 17.7314 25.4001 17.9929 25.9282C18.2544 26.4563 18.3141 27.0617 18.1609 27.6307C17.6359 27.3309 17.5106 26.0122 16.8942 25.9742C16.0131 25.9207 16.1736 27.6856 16.1778 28.7186C15.8728 28.2648 15.6882 27.7408 15.6414 27.1959C15.5946 26.6511 15.6872 26.1033 15.9104 25.604C15.5107 25.4084 15.2855 25.6899 15.066 25.9094C14.7535 27.3675 14.2961 28.5455 15.1532 30.0191C15.3978 30.3033 15.7045 30.5273 16.0496 30.6737C16.3948 30.8201 16.769 30.8851 17.1433 30.8635C17.9413 30.7847 18.1369 29.9853 19.0067 29.9938C19.1672 30.0193 19.3144 30.0982 19.4245 30.2177C19.5345 30.3372 19.6011 30.4904 19.6133 30.6524ZM28.6897 33.3927L28.2675 33.3068C28.2675 33.3068 27.8256 31.7587 28.0381 31.4687C28.1507 31.3181 28.77 31.0915 29.6369 31.5081C29.6313 31.5096 28.6039 31.6813 28.6897 33.3927ZM36.7205 35.28C35.1559 35.8107 33.4589 35.8037 31.8987 35.2603C31.1647 34.7226 30.5499 34.0388 30.0929 33.2519C29.8748 32.9704 28.7883 32.2555 30.076 32.2541C31.0852 34.7874 34.5516 34.4947 37.4748 34.4257C37.3401 34.7958 37.0707 35.1 36.7205 35.28ZM37.1427 33.0282C37.0764 32.5317 37.0764 32.0286 37.1427 31.5321C38.6237 31.2427 40.037 30.6769 41.3086 29.8643C40.9919 30.7364 40.4302 31.4985 39.691 32.0592C38.9518 32.6199 38.0665 32.9554 37.1413 33.0253L37.1427 33.0282ZM41.0215 21.6661C40.764 21.7519 39.0934 22.7385 39.2228 21.4944C39.2883 21.1279 39.4601 20.7888 39.7169 20.5193C39.9736 20.2497 40.304 20.0617 40.6669 19.9786C40.6545 19.7911 40.6545 19.6031 40.6669 19.4156H40.778C41.2464 20.5297 41.7978 21.6071 42.4275 22.6386C41.9814 23.6773 39.0497 24.5949 39.0976 22.7315C39.7309 22.45 40.8245 22.6752 41.386 22.3219C41.2538 21.9602 41.1046 21.6182 40.9638 21.2579L41.0215 21.6661ZM33.7213 28.3513C33.7464 28.3965 33.768 28.4436 33.786 28.492C33.9141 27.7785 34.1505 26.9439 34.5573 27.0663C34.755 27.1214 34.9299 27.2383 35.0565 27.3998C35.183 27.5614 35.2547 27.7591 35.261 27.9643C34.7869 28.2711 34.3405 28.6186 33.9267 29.0029C34.0182 29.4252 34.1294 29.8474 34.6628 29.9431C36.2194 30.2091 38.0308 28.9903 39.1511 28.5652C39.8449 27.3943 39.0906 26.9636 38.4657 26.2106C37.1849 24.6625 35.4679 22.754 35.5298 20.4402C36.0477 20.0644 36.0928 21.013 36.1659 21.1862C37.1164 22.9855 38.3219 24.6379 39.745 26.0924C40.0462 26.4217 40.543 26.7384 40.5979 26.9566C40.7569 27.5913 40.1841 28.3513 40.2503 28.7721C38.4669 30.1762 36.2305 30.8773 33.9647 30.7425C33.6464 30.4372 33.4469 30.0288 33.4018 29.59C33.3567 29.1513 33.4689 28.7108 33.7184 28.3471L33.7213 28.3513ZM36.477 31.6179C36.5664 32.1104 36.6022 32.611 36.5839 33.1112C34.0351 33.2379 31.0218 32.6073 30.3533 30.8185C32.3131 31.5207 34.4014 31.792 36.4756 31.6137L36.477 31.6179ZM30.487 19.4466C30.8141 20.3685 31.2776 21.2362 31.8621 22.0207C32.183 22.3332 32.805 22.7132 32.4968 23.5816C32.2787 23.9178 31.9636 24.1799 31.5932 24.3331C30.4814 24.6611 27.8903 24.4007 28.7672 23.0144C29.6862 23.0566 30.9233 23.6111 31.6101 22.944C31.4764 22.7301 31.316 22.4641 31.1569 22.1685C30.4532 22.6133 28.5194 22.633 28.5194 21.4944C28.5194 20.2953 30.404 20.0391 30.404 20.0391L30.4181 20.0729C30.3972 19.8603 30.4202 19.6457 30.4856 19.4424L30.487 19.4466ZM25.9495 15.3257C27.6314 14.1786 28.4829 14.8331 28.9051 15.5903C29.014 15.6332 29.1121 15.6996 29.1926 15.7847C29.273 15.8698 29.3338 15.9715 29.3705 16.0827C29.4073 16.1939 29.4192 16.3118 29.4054 16.428C29.3917 16.5443 29.3525 16.6561 29.2907 16.7556C26.9572 16.2123 25.7975 17.7323 25.0896 19.3087C24.908 19.638 24.8982 19.4044 24.794 19.1172C24.7534 19.0595 24.7243 18.9945 24.7082 18.9258C24.6731 18.8634 24.6295 18.8061 24.5787 18.7555C24.2409 18.4079 24.065 16.6106 25.9495 15.3257Z" fill="#F0D6B7"/>
<path d="M13.8091 46.1722H26.1282C26.0719 45.9822 26.017 45.795 25.9621 45.6177C25.6637 44.7238 25.4396 43.8068 25.2922 42.876C23.7818 42.2215 22.3286 41.4424 20.9475 40.5468C20.826 40.4348 20.7131 40.3139 20.6097 40.1851L13.1982 43.4967C13.1982 43.4967 13.4642 44.5579 13.8091 46.1722Z" fill="#335061"/>
<path d="M18.2451 14.8147C18.4589 14.7489 18.6794 14.7074 18.9024 14.6908C19.2506 14.7388 19.6028 14.7525 19.9537 14.7316C20.649 14.5585 21.2373 12.9991 21.7623 12.4178C22.1838 12.0303 22.6259 11.6657 23.0866 11.3257C21.1649 11.9875 19.4809 13.2011 18.2451 14.8147Z" fill="#6D6B6D"/>
<path d="M15.0575 22.6766C15.5021 22.4416 15.9982 22.3212 16.501 22.3265C17.0039 22.3317 17.4974 22.4623 17.937 22.7065C18.3765 22.9507 18.7482 23.3007 19.0183 23.7248C19.2885 24.1489 19.4485 24.6337 19.4839 25.1353C20.4606 25.11 19.8484 23.9165 19.6725 23.1466C19.1531 20.8835 20.3579 18.4459 19.9427 16.3052C14.5016 17.1187 14.8084 21.2973 15.0575 22.6766Z" fill="#6D6B6D"/>
<path d="M23.6131 10.3828C21.0516 11.109 17.7695 12.9696 16.7168 15.2707C17.2363 15.1579 17.7463 15.0055 18.2424 14.8147C19.4783 13.2011 21.1623 11.9876 23.0839 11.3257C23.1639 11.2532 23.2387 11.1751 23.3077 11.0921C23.578 10.9612 23.9777 10.9711 23.9931 10.5643C23.8763 10.4391 23.7525 10.3434 23.6131 10.3828Z" fill="#DCD9D8"/>
<path d="M15.5138 17.6085C14.3879 18.854 14.6187 21.1861 14.7566 22.8455C14.8558 22.7837 14.9582 22.7273 15.0634 22.6766C14.8101 21.2987 14.5089 17.1187 19.9486 16.3052C19.9032 16.0683 19.8363 15.836 19.7487 15.6113C18.1304 15.6985 16.6105 16.4153 15.5138 17.6085Z" fill="#DCD9D8"/>
<path d="M19.6148 30.6523C19.6033 30.4925 19.539 30.341 19.432 30.2218C19.3249 30.1026 19.1813 30.0223 19.0236 29.9937C19.4951 30.9338 18.2974 31.2294 18.1792 31.9007C18.1947 32.2963 18.2537 32.689 18.3551 33.0717C18.7722 34.75 19.4591 36.3495 20.3888 37.8076C20.7713 38.2786 21.2454 38.6669 21.7826 38.949C22.3197 39.2311 22.9085 39.4011 23.5133 39.4487C19.9525 36.5142 19.6992 31.2448 19.6148 30.6523Z" fill="#F7E4CD"/>
<path d="M35.2567 27.9571C35.2504 27.752 35.1788 27.5542 35.0522 27.3927C34.9256 27.2312 34.7507 27.1143 34.553 27.0592C34.1463 26.9438 33.9098 27.7713 33.7817 28.4849C33.8421 28.6512 33.8892 28.822 33.9225 28.9958C34.3362 28.6115 34.7826 28.2639 35.2567 27.9571Z" fill="#F7E4CD"/>
<path d="M39.2205 21.4921C39.091 22.7363 40.7687 21.7497 41.0192 21.6638L40.9587 21.2613C40.7988 20.8495 40.6997 20.4166 40.6645 19.9763C40.3016 20.0594 39.9713 20.2475 39.7145 20.517C39.4577 20.7865 39.2859 21.1256 39.2205 21.4921Z" fill="#F7E4CD"/>
<path d="M28.5149 21.4919C28.5149 22.6305 30.4445 22.6108 31.1524 22.166C30.7711 21.5227 30.52 20.8106 30.4135 20.0704L30.3994 20.0366C30.3994 20.0366 28.5149 20.2928 28.5149 21.4919Z" fill="#F7E4CD"/>
<path d="M15.0783 25.9122C15.0252 25.9693 14.9662 26.0207 14.9024 26.0656C14.9362 25.648 15.1214 25.2571 15.4231 24.9664C15.4899 24.9006 15.5675 24.8468 15.6526 24.8074C15.823 24.7246 16.0088 24.6778 16.1982 24.6701C16.3875 24.6623 16.5765 24.6937 16.7532 24.7623C17.3751 24.9173 17.9737 25.1539 18.5335 25.466C18.2619 24.5315 17.7961 23.6885 16.8334 23.5829C16.4465 23.551 16.0573 23.5982 15.6892 23.7214C15.3212 23.8447 14.982 24.0415 14.6924 24.2999C14.4028 24.5583 14.1688 24.8729 14.0045 25.2246C13.8403 25.5763 13.7493 25.9577 13.7371 26.3457C13.7374 27.7044 14.2471 29.0136 15.1656 30.0148C14.3071 28.5483 14.7659 27.3703 15.0783 25.9122Z" fill="#F7E4CD"/>
<path d="M29.1217 11.2158C31.9277 10.4817 34.8877 10.5904 37.6323 11.5283C37.4138 11.3577 37.1833 11.2029 36.9427 11.0652C34.2841 9.56493 29.7846 8.43759 26.95 9.84641C24.6686 10.9836 21.5836 12.8667 20.5322 15.2523C20.9641 16.3922 21.0247 17.6395 20.7053 18.8159C21.3181 16.922 22.4184 15.2227 23.8957 13.8887C25.373 12.5547 27.1754 11.6329 29.1217 11.2158Z" fill="#F7E4CD"/>
<path d="M37.5972 15.8392C37.6058 16.0771 37.6643 16.3106 37.7689 16.5246C37.7689 16.5246 37.8913 16.3838 38.0926 16.198C38.1362 15.165 39.31 14.5767 40.671 14.9792C40.3585 14.5767 40.0419 14.1503 39.7125 13.728C39.1576 13.7449 38.6299 13.9726 38.2369 14.3648C37.8439 14.757 37.6152 15.2842 37.5972 15.8392Z" fill="#F7E4CD"/>
<path d="M24.7983 19.1187C24.9025 19.4001 24.9137 19.6394 25.0939 19.3101C24.9751 19.2851 24.8697 19.2169 24.7983 19.1187Z" fill="#F7E4CD"/>
<path d="M24.7115 18.9271C24.6708 18.5636 24.7261 18.1958 24.872 17.8603C25.1557 17.1601 25.6337 16.5555 26.2496 16.1179C26.8655 15.6803 27.5937 15.4278 28.3483 15.3903C28.5468 15.4218 28.7378 15.4901 28.9113 15.5916C28.489 14.8344 27.6446 14.1841 25.9557 15.327C24.0726 16.6119 24.2429 18.4092 24.5863 18.7526C24.6359 18.8047 24.6781 18.8634 24.7115 18.9271Z" fill="#F7E4CD"/>
<path d="M13.1943 43.4966L20.6057 40.1849C20.0625 39.5544 19.0871 38.3553 18.9168 38.4158C16.0722 39.6803 13.4153 41.3308 11.0212 43.3206C11.4522 44.2499 11.8328 45.2018 12.1612 46.1721H13.8051C13.4603 44.5577 13.1943 43.4966 13.1943 43.4966Z" fill="#49728B"/>
<path d="M42.9662 46.2099C43.2725 45.2582 43.53 44.2914 43.7375 43.3134C43.7882 43.0587 43.8867 42.6449 43.9571 42.2494L39.8953 39.2319C40.678 40.9658 40.7437 42.9387 40.0782 44.7209C40.219 45.2444 40.7172 45.4457 40.9227 45.9172C40.8748 46.0016 40.827 46.0846 40.7819 46.1691H42.8593C42.898 46.1725 42.9351 46.1866 42.9662 46.2099Z" fill="#335061"/>
<path d="M38.2014 38.6647C38.4237 38.5478 38.6745 38.4961 38.9248 38.5155L38.5899 38.2664C38.4429 38.3809 38.3122 38.5149 38.2014 38.6647Z" fill="#335061"/>
<path d="M44.0249 41.3856C43.9208 40.6298 42.899 40.0696 42.3754 39.6038C41.4128 38.741 40.8104 37.981 39.8097 37.1746C39.4524 37.5913 39.0411 37.9586 38.5867 38.2667L38.9216 38.5158C39.1282 38.5498 39.3236 38.6326 39.4915 38.7575C39.6595 38.8824 39.7951 39.0456 39.8871 39.2336L43.9461 42.2497C44.0104 41.9664 44.0369 41.6758 44.0249 41.3856Z" fill="#49728B"/>
<path d="M33.9136 46.059C33.9147 46.0949 33.9189 46.1307 33.9262 46.1659H34.6004C34.6004 46.0416 34.6498 45.9224 34.7377 45.8345C34.8256 45.7466 34.9448 45.6973 35.0691 45.6973C35.1934 45.6973 35.3126 45.7466 35.4005 45.8345C35.4884 45.9224 35.5377 46.0416 35.5377 46.1659H36.6271V46.1237C36.2414 45.921 35.3984 45.4833 34.9382 45.2891C34.3414 45.0386 33.9136 46.059 33.9136 46.059Z" fill="white"/>
<path d="M33.9203 46.0592C33.9203 46.0592 34.3425 45.0318 34.9477 45.288C35.4009 45.4822 36.2439 45.9199 36.6366 46.1226C36.6507 45.8129 36.6648 45.5033 36.6845 45.1937C35.8147 45.2485 35.3319 44.4069 34.7225 44.3422C34.1905 44.2845 33.7373 44.9544 33.0477 44.6645C32.8887 44.839 32.7451 45.029 32.5833 45.2007C32.8339 45.5064 33.0638 45.8285 33.2715 46.1648H33.9414C33.9313 46.1303 33.9242 46.095 33.9203 46.0592Z" fill="#DCD9D8"/>
<path d="M25.3863 40.386C24.2974 40.383 23.2171 40.1926 22.1928 39.823C22.1525 39.8619 22.1209 39.9089 22.1001 39.9609C22.0792 40.0128 22.0696 40.0687 22.0719 40.1246C22.0741 40.1806 22.0882 40.2355 22.1132 40.2856C22.1381 40.3357 22.1735 40.38 22.2168 40.4155C23.176 40.8313 24.1905 41.1054 25.2286 41.229C25.3301 40.9594 25.3835 40.674 25.3863 40.386Z" fill="white"/>
<path d="M25.169 41.6525C25.1708 41.5099 25.1902 41.3681 25.2267 41.2302C24.1886 41.1066 23.174 40.8326 22.2148 40.4167C23.0685 41.0903 24.09 41.5176 25.169 41.6525Z" fill="#DCD9D8"/>
<path d="M39.5995 43.9385C39.694 43.5376 39.7287 43.125 39.7023 42.714C39.6726 42.0598 39.5783 41.4102 39.4208 40.7746C38.9469 40.7171 38.4667 40.7405 38.0007 40.8436C37.5785 40.9294 37.1436 41.0153 37.0591 41.529C36.9747 42.0427 37.2308 42.3002 36.9733 42.7281C36.7157 43.1559 36.2879 42.8998 35.86 43.1503C35.5687 43.3248 35.753 43.7766 35.9008 44.0482C37.037 44.3066 38.1967 44.4481 39.3617 44.4705C39.4745 44.3101 39.5552 44.1295 39.5995 43.9385Z" fill="#D33833"/>
<path d="M26.8655 46.0862C26.888 46.1467 26.9119 46.21 26.9316 46.2663C26.9513 46.3226 26.9724 46.3972 26.9907 46.462L26.9781 46.2973L26.8655 46.0862Z" fill="#D33833"/>
<path d="M32.4976 44.2651C32.507 44.0174 32.5168 43.7702 32.5271 43.5234C32.0799 43.6616 31.5968 43.6244 31.176 43.4192C29.8573 42.7001 31.1057 42.9126 30.6384 41.9583C30.104 41.6744 29.5184 41.4997 28.9157 41.4446C27.1874 41.4446 26.5231 41.097 26.7089 43.0899C26.806 44.1595 26.8933 45.2278 26.9777 46.2988C27.1184 46.5634 27.2451 46.8013 27.3464 47.0025C28.2503 46.9151 29.1274 46.6476 29.9262 46.2158C30.8182 45.6129 31.6766 44.9617 32.4976 44.2651Z" fill="#D33833"/>
<path d="M33.155 43.2446C33.1846 43.3698 33.2155 43.5106 33.2451 43.6809C33.372 43.749 33.5124 43.7885 33.6562 43.7965C33.8 43.8046 33.9439 43.7809 34.0776 43.7274C34.2113 43.6738 34.3317 43.5915 34.4301 43.4864C34.5286 43.3812 34.6029 43.2558 34.6476 43.1188C34.6923 42.9819 34.7065 42.8368 34.6891 42.6938C34.6717 42.5508 34.6231 42.4134 34.5468 42.2912C34.4705 42.1689 34.3684 42.065 34.2475 41.9865C34.1267 41.9081 33.9901 41.8571 33.8475 41.8372C33.8944 42.1147 33.8527 42.4 33.7284 42.6526C33.6042 42.9052 33.4035 43.1123 33.155 43.2446Z" fill="#D33833"/>
<path d="M35.8611 43.1556C36.2833 42.898 36.7182 43.1556 36.9743 42.7333C37.2305 42.3111 36.9743 42.0479 37.0602 41.5342C37.1461 41.0205 37.5739 40.9346 38.0018 40.8488C38.4678 40.7457 38.948 40.7224 39.4218 40.7798C39.3666 40.4275 39.194 40.1042 38.9321 39.8622C37.8807 39.2486 36.0384 41.0233 35.1813 41.4005L35.1011 41.4329C35.2281 41.6784 35.3114 41.9441 35.3474 42.2182C35.5369 42.1713 35.7321 42.1514 35.9272 42.1591C36.0577 42.1643 36.1876 42.1799 36.3157 42.2055C36.379 42.2182 36.4409 42.2337 36.5029 42.2506C36.6205 42.2835 36.7349 42.3268 36.8449 42.3801C36.4862 42.3946 36.1296 42.4417 35.7794 42.5208C35.6791 42.5502 35.5841 42.5953 35.498 42.6545C35.4595 43.0756 35.443 43.4984 35.4487 43.9212C35.597 43.9634 35.748 44.0028 35.9019 44.0394C35.7541 43.7819 35.5697 43.3301 35.8611 43.1556Z" fill="#EF3D3A"/>
<path d="M26.9883 46.4604C27.06 46.718 27.122 46.9502 27.3443 47.0023C27.243 46.7996 27.1149 46.5618 26.9756 46.2986L26.9883 46.4604Z" fill="#EF3D3A"/>
<path d="M26.7109 43.0884C26.5294 41.0955 27.1895 41.4432 28.9178 41.4432C29.5204 41.4982 30.1061 41.6729 30.6404 41.9569C31.1077 42.9111 29.8593 42.6986 31.1781 43.4178C31.5989 43.6229 32.0819 43.6601 32.5292 43.5219V43.4332C32.1238 43.2297 31.6887 43.0919 31.24 43.0251C31.067 42.9989 30.8927 42.982 30.7179 42.9744C30.8491 42.9112 30.9863 42.8612 31.1274 42.8252C31.5693 42.7558 31.9989 42.6226 32.4025 42.4298C32.4025 42.3186 32.411 42.2074 32.4152 42.0976C32.3208 42.09 32.2268 42.0773 32.1337 42.0596C32.0495 42.0438 31.9664 42.0231 31.8846 41.9977C31.741 41.9522 31.6024 41.8923 31.4708 41.8189C31.2203 41.6782 31.005 41.5149 30.7319 41.3657C29.6666 40.7942 28.5255 40.3767 27.3429 40.1258C26.0466 39.8781 26.0354 41.681 26.0903 43.0096C26.0903 43.1504 26.1015 43.2798 26.1086 43.4037C26.2278 44.3285 26.4859 45.23 26.8742 46.0778L26.9854 46.2889C26.8967 45.2277 26.808 44.1581 26.7109 43.0884Z" fill="#EF3D3A"/>
<path d="M33.8441 41.8372C33.5484 41.8434 33.2621 41.9418 33.025 42.1186C33.0048 42.3116 33.0081 42.5063 33.0349 42.6985C33.0503 42.8097 33.0743 42.9166 33.1024 43.0335L33.1461 43.2178V43.2418C33.3951 43.1105 33.5965 42.9042 33.7218 42.6521C33.8471 42.4 33.8899 42.1149 33.8441 41.8372Z" fill="#EF3D3A"/>
<path d="M24.8729 17.8604C24.7271 18.1959 24.6717 18.5637 24.7125 18.9272C24.7286 18.9959 24.7577 19.0609 24.7983 19.1186C24.8697 19.2169 24.975 19.2851 25.0939 19.31C25.7976 17.7337 26.9615 16.2137 29.295 16.757C29.3568 16.6575 29.396 16.5457 29.4098 16.4294C29.4236 16.3131 29.4116 16.1953 29.3748 16.0841C29.3381 15.9729 29.2773 15.8712 29.1969 15.7861C29.1164 15.701 29.0183 15.6346 28.9094 15.5916C28.7359 15.4901 28.545 15.4219 28.3464 15.3904C27.5923 15.4284 26.8647 15.6811 26.2494 16.1187C25.634 16.5563 25.1565 17.1606 24.8729 17.8604Z" fill="#231F20"/>
<path d="M39.093 22.7343C39.048 24.5978 41.9768 23.6801 42.423 22.6414C41.7932 21.6099 41.2418 20.5326 40.7735 19.4185H40.6623C40.6499 19.6059 40.6499 19.794 40.6623 19.9814C40.6975 20.4217 40.7966 20.8546 40.9565 21.2664C41.0902 21.6267 41.245 21.9701 41.3787 22.3304C40.8199 22.678 39.7236 22.4571 39.093 22.7343Z" fill="#231F20"/>
<path d="M31.6127 22.9398C30.9259 23.6069 29.6888 23.0524 28.7697 23.0102C27.8929 24.3965 30.484 24.6569 31.5958 24.3289C31.9662 24.1757 32.2813 23.9136 32.4994 23.5774C32.8076 22.709 32.1855 22.329 31.8646 22.0165C31.2802 21.232 30.8167 20.3643 30.4896 19.4424C30.4243 19.6443 30.4008 19.8574 30.4206 20.0687C30.5272 20.8089 30.7782 21.521 31.1595 22.1643C31.32 22.4599 31.479 22.7259 31.6127 22.9398Z" fill="#231F20"/>
<path d="M33.9662 30.7397C36.232 30.8745 38.4684 30.1734 40.2517 28.7693C40.1856 28.3471 40.7584 27.587 40.5994 26.9537C40.5445 26.7356 40.0477 26.4189 39.7465 26.0896C38.3233 24.6351 37.1178 22.9826 36.1674 21.1833C36.0928 21.0102 36.0478 20.0574 35.5313 20.4374C35.4693 22.7483 37.1864 24.6596 38.4671 26.2078C39.092 26.9607 39.8464 27.3914 39.1525 28.5624C38.0266 28.9846 36.2209 30.2077 34.6643 29.9402C34.1309 29.8488 34.0197 29.4265 33.9282 29.0001C33.8949 28.8263 33.8478 28.6555 33.7875 28.4892C33.7695 28.4407 33.7479 28.3936 33.7227 28.3485C33.474 28.7115 33.362 29.1509 33.4065 29.5886C33.4511 30.0264 33.6494 30.4342 33.9662 30.7397Z" fill="#231F20"/>
<path d="M15.6581 24.8075C15.5777 24.8507 15.5026 24.9031 15.4343 24.9638C15.1325 25.2544 14.9473 25.6453 14.9136 26.063C14.9774 26.0181 15.0363 25.9666 15.0895 25.9095C15.3048 25.69 15.53 25.4071 15.934 25.6041C15.7107 26.1034 15.6182 26.6512 15.665 27.196C15.7117 27.7409 15.8963 28.2649 16.2014 28.7188C16.2014 27.6871 16.0367 25.9222 16.9177 25.9743C17.5342 26.0123 17.6594 27.331 18.1844 27.6308C18.3362 27.0608 18.2744 26.455 18.0109 25.9273C17.7473 25.3996 17.3 24.9864 16.7531 24.7653C16.5774 24.6971 16.3895 24.6656 16.2012 24.6729C16.0129 24.6802 15.828 24.726 15.6581 24.8075Z" fill="#231F20"/>
<path d="M37.141 31.5276C37.0747 32.0241 37.0747 32.5272 37.141 33.0237C38.0669 32.9536 38.9529 32.6177 39.6925 32.0562C40.432 31.4946 40.9936 30.7315 41.3098 29.8584C40.0374 30.6718 38.6232 31.2381 37.141 31.5276Z" fill="#231F20"/>
<path d="M36.5927 33.1111C36.611 32.6085 36.5747 32.1055 36.4843 31.6108C34.4104 31.7904 32.3222 31.5206 30.3621 30.8198C31.0306 32.6101 34.0439 33.2406 36.5927 33.1111Z" fill="#231F20"/>
<path d="M30.0794 32.2522C28.7916 32.2522 29.8782 32.97 30.0963 33.2501C30.5535 34.0375 31.1688 34.7218 31.9034 35.2598C33.4636 35.8033 35.1606 35.8102 36.7252 35.2796C37.0758 35.0992 37.3452 34.793 37.4796 34.4224C34.555 34.4928 31.0885 34.7841 30.0794 32.2522Z" fill="#231F20"/>
<path d="M40.0917 46.1718C39.7594 45.6412 39.2333 45.261 38.6252 45.1121C38.1877 45.0238 37.7333 45.0832 37.3332 45.2809C37.3219 45.5624 37.3078 45.865 37.2896 46.1704L40.0917 46.1718Z" fill="#81B0C4"/>
<path d="M35.8814 39.7949C34.9159 39.8808 33.7801 40.3199 32.7119 40.3846C32.6148 40.3846 32.5176 40.3931 32.4219 40.3931C32.3262 40.3931 32.2305 40.3931 32.1405 40.379C31.9533 40.3625 31.7685 40.3267 31.5887 40.272C31.4986 40.2445 31.4103 40.2116 31.3241 40.1735C31.3241 40.2467 31.2242 40.22 31.2087 40.2805C31.3284 40.3734 31.4438 40.4578 31.5564 40.5324C31.669 40.607 31.7802 40.6731 31.8913 40.7337C32.1031 40.8483 32.3275 40.938 32.5599 41.0011C32.9352 41.0948 33.3215 41.1374 33.7083 41.1277C33.8491 41.1277 34.0067 41.1277 34.1685 41.1151C34.7526 40.6886 35.2705 40.1918 35.8814 39.7949Z" fill="#F0D6B7"/>
<path d="M31.8238 45.8457L31.3298 46.1736H32.0715C31.9908 46.062 31.9083 45.9527 31.8238 45.8457Z" fill="#81B0C4"/>
<path d="M11.5482 46.8602V46.3887C11.5482 46.3316 11.5709 46.2768 11.6113 46.2365C11.6517 46.1961 11.7065 46.1734 11.7636 46.1734H12.1619C11.8334 45.2031 11.4529 44.2512 11.0219 43.322C13.416 41.3321 16.0728 39.6817 18.9175 38.4171C19.0835 38.351 20.0589 39.5557 20.6064 40.1862C20.7098 40.3151 20.8227 40.436 20.9441 40.5479C22.3253 41.4436 23.7785 42.2227 25.2888 42.8772C25.4363 43.808 25.6604 44.725 25.9588 45.6189C26.0137 45.7962 26.0686 45.9848 26.1248 46.1734H26.3529C26.41 46.1734 26.4647 46.1961 26.5051 46.2365C26.5455 46.2768 26.5682 46.3316 26.5682 46.3887V46.6111H26.7638C26.8209 46.6111 26.8757 46.6338 26.9161 46.6742C26.9565 46.7145 26.9792 46.7693 26.9792 46.8264V47.1853H29.3591V46.8264C29.3591 46.7693 29.3818 46.7145 29.4222 46.6742C29.4625 46.6338 29.5173 46.6111 29.5744 46.6111H30.6722V46.3887C30.6722 46.3316 30.6949 46.2768 30.7353 46.2365C30.7757 46.1961 30.8304 46.1734 30.8875 46.1734H31.3337L31.8277 45.8455C31.9121 45.9524 31.9947 46.0617 32.0754 46.1734H33.2619C33.0542 45.8371 32.8242 45.515 32.5736 45.2093C32.7355 45.0376 32.879 44.849 33.0381 44.6731C33.7305 44.963 34.1809 44.2931 34.7129 44.3508C35.3223 44.4155 35.8051 45.2572 36.6748 45.2023C36.6551 45.5119 36.6411 45.8215 36.627 46.1312V46.1734H37.2941C37.311 45.868 37.3265 45.5696 37.3377 45.2839C37.7379 45.0862 38.1923 45.0268 38.6297 45.115C39.2379 45.2639 39.764 45.6441 40.0963 46.1748H40.7732C40.8211 46.0903 40.8704 46.0073 40.914 45.9229C40.7127 45.4514 40.2173 45.2515 40.0695 44.7266C40.735 42.9444 40.6693 40.9715 39.8866 39.2376C39.7946 39.0496 39.6589 38.8864 39.491 38.7615C39.323 38.6367 39.1276 38.5538 38.9211 38.5199C38.6707 38.5005 38.42 38.5522 38.1977 38.669C38.308 38.5193 38.4382 38.3853 38.5847 38.2707C39.0391 37.9626 39.4504 37.5953 39.8078 37.1786C40.8098 37.985 41.4136 38.7436 42.3749 39.6064C42.8956 40.0736 43.923 40.6338 44.0244 41.3882C44.0373 41.6783 44.0117 41.9689 43.9484 42.2523C43.8766 42.6478 43.7795 43.0616 43.7288 43.3163C43.5221 44.2933 43.2656 45.2591 42.9604 46.21C42.9911 46.2287 43.0165 46.2549 43.0342 46.2862C43.052 46.3175 43.0614 46.3528 43.0617 46.3887V47.1853H43.5796C43.9427 46.0481 44.2988 44.8842 44.6577 43.6823C45.0667 42.7055 45.2946 41.6625 45.3305 40.6042C45.2207 39.7359 43.8667 38.8239 43.1532 38.1356C42.7577 37.7542 40.9112 36.3524 40.8042 35.8275C40.6972 35.3025 41.5572 34.1695 41.833 33.5953C42.192 32.7815 42.4843 31.9399 42.707 31.0788C44.1595 25.9741 44.3073 18.9596 42.2299 14.7641C41.0871 12.8994 39.6076 11.2634 37.8669 9.93944C34.6299 7.48772 28.6301 7.21609 24.7231 8.65447C23.6538 9.00238 22.6177 9.44464 21.6267 9.97604C19.0681 11.4763 16.3517 12.4812 15.5932 15.5044C13.7241 16.3488 13.1597 18.7414 13.254 21.5112C13.3811 22.0785 13.4513 22.657 13.4637 23.2381C13.4117 23.4971 13.0612 23.8278 12.9908 23.9953C12.6351 25.0672 12.5275 26.2058 12.676 27.3253C12.8244 28.4449 13.2252 29.5161 13.848 30.4582C14.1932 30.9727 14.6402 31.4111 15.1613 31.7464C15.6825 32.0816 16.2667 32.3066 16.8781 32.4074C16.936 33.2248 17.1495 34.0235 17.5072 34.7606C17.7465 35.2856 18.6402 36.2286 18.3109 36.8985C17.6703 37.4395 16.9632 37.8964 16.2068 38.2581C14.577 39.2362 13.392 39.8344 11.8916 40.9181C10.9177 41.6218 9.39629 41.7091 9.63978 43.3248C9.93112 44.5301 10.3112 45.7123 10.777 46.8616C10.8122 46.9714 10.8516 47.0798 10.8896 47.1881H11.551L11.5482 46.8602ZM23.3016 11.0921C23.2325 11.1751 23.1577 11.2532 23.0778 11.3257C22.617 11.6658 22.1749 12.0303 21.7534 12.4179C21.2284 12.9992 20.6416 14.5586 19.9449 14.7317C19.5939 14.7525 19.2418 14.7389 18.8935 14.6909C18.6705 14.7075 18.45 14.749 18.2363 14.8147C17.7402 15.006 17.2301 15.1589 16.7106 15.2721C17.7634 12.971 21.0455 11.1104 23.607 10.3842C23.7477 10.3448 23.8716 10.4405 23.9884 10.5657C23.9729 10.9697 23.5718 10.9612 23.3016 11.0921ZM19.9449 16.2996C20.3671 18.4402 19.1553 20.8793 19.6747 23.141C19.8506 23.9095 20.4628 25.103 19.4861 25.1297C19.4507 24.6281 19.2907 24.1433 19.0205 23.7192C18.7504 23.295 18.3787 22.945 17.9392 22.7009C17.4996 22.4567 17.0061 22.3261 16.5033 22.3209C16.0004 22.3156 15.5043 22.436 15.0597 22.6709C14.9545 22.7217 14.8521 22.7781 14.7529 22.8398C14.6122 21.1805 14.3785 18.8484 15.5101 17.6028C16.6068 16.4097 18.1268 15.6929 19.745 15.6057C19.833 15.8322 19.8999 16.0664 19.9449 16.3052V16.2996ZM15.1695 30.0148C14.2498 29.0176 13.7366 27.7122 13.7311 26.3555C13.7434 25.9676 13.8344 25.5862 13.9986 25.2345C14.1629 24.8828 14.3969 24.5682 14.6865 24.3098C14.9761 24.0514 15.3153 23.8546 15.6833 23.7313C16.0514 23.608 16.4406 23.5609 16.8275 23.5928C17.7901 23.6983 18.2546 24.5414 18.5276 25.4759C18.6036 25.7391 18.6684 26.0093 18.719 26.2725C19.4298 26.3105 20.4572 26.2415 20.7936 25.687C20.7457 24.3331 20.1166 23.248 20.1602 22.0038C20.2553 20.9291 20.4379 19.8639 20.7063 18.8188C21.0256 17.6424 20.965 16.3952 20.5332 15.2553C21.5845 12.8697 24.6696 10.988 26.951 9.84937C29.7785 8.44195 34.2794 9.56788 36.9437 11.0682C37.1843 11.2059 37.4148 11.3606 37.6333 11.5312C38.4158 12.1753 39.115 12.9142 39.7149 13.731C40.0442 14.1532 40.3609 14.5755 40.6733 14.9822C39.3123 14.5783 38.14 15.168 38.0949 16.201C38.0891 16.3169 38.0966 16.4331 38.1174 16.5473C39.3841 15.3918 41.5332 16.5346 42.1708 17.8139C42.7001 19.3739 42.9386 21.0178 42.8745 22.6639C43.1876 26.9268 42.1299 31.1781 39.8556 34.7972C39.3574 35.691 38.7073 36.4911 37.9345 37.1617C35.9289 38.5691 32.8804 39.847 30.2697 38.9716C26.8201 37.8133 25.2523 35.515 23.3551 32.8831C23.5878 34.3329 24.3208 35.6554 25.4268 36.6212C26.2577 37.6641 27.3018 38.5172 28.4893 39.1236C27.5421 38.9013 26.0967 38.8309 25.6956 39.6866C24.9655 39.6473 24.2379 39.5712 23.5155 39.4586C22.9107 39.411 22.3218 39.241 21.7847 38.9589C21.2476 38.6768 20.7735 38.2885 20.391 37.8176C19.4613 36.3594 18.7744 34.7599 18.3573 33.0816C18.2559 32.6989 18.1969 32.3062 18.1814 31.9106C18.3052 31.2379 19.503 30.9437 19.0258 30.0036C18.1561 29.9951 17.9604 30.7945 17.1624 30.8734C16.7865 30.8937 16.411 30.8267 16.0653 30.6778C15.7196 30.5288 15.413 30.3019 15.1695 30.0148ZM33.1422 43.2164L33.0986 43.032C33.0705 42.9152 33.0479 42.8083 33.031 42.6971C33.0043 42.5049 33.001 42.3102 33.0212 42.1172C33.2583 41.9404 33.5446 41.842 33.8403 41.8357C33.983 41.8557 34.1195 41.9067 34.2404 41.9851C34.3612 42.0635 34.4634 42.1675 34.5397 42.2897C34.6159 42.4119 34.6645 42.5494 34.6819 42.6924C34.6993 42.8354 34.6852 42.9805 34.6404 43.1174C34.5957 43.2543 34.5215 43.3798 34.423 43.4849C34.3245 43.5901 34.2041 43.6723 34.0704 43.7259C33.9367 43.7795 33.7929 43.8031 33.649 43.7951C33.5052 43.7871 33.3649 43.7476 33.2379 43.6794C33.2084 43.5091 33.1774 43.3684 33.1479 43.2431L33.1422 43.2164ZM22.1897 39.8119C23.214 40.1815 24.2942 40.3719 25.3831 40.3748C25.3805 40.6634 25.3272 40.9492 25.2255 41.2193C25.189 41.3571 25.1696 41.4989 25.1678 41.6415C24.0878 41.5052 23.0657 41.076 22.2122 40.4002C22.1708 40.3646 22.1372 40.3209 22.1134 40.2717C22.0897 40.2225 22.0763 40.169 22.0742 40.1144C22.0721 40.0599 22.0813 40.0055 22.1012 39.9546C22.121 39.9038 22.1512 39.8576 22.1897 39.8189V39.8119ZM32.5582 40.9927C32.3257 40.9296 32.1014 40.8399 31.8896 40.7253C31.7799 40.6662 31.6687 40.5986 31.5547 40.524C31.4407 40.4494 31.3267 40.365 31.207 40.2721C31.2225 40.2116 31.3182 40.2383 31.3224 40.1651C31.4086 40.2032 31.4969 40.2361 31.587 40.2636C31.7667 40.3183 31.9516 40.3541 32.1387 40.3706C32.233 40.3791 32.3273 40.3833 32.4202 40.3847C32.5131 40.3861 32.613 40.3847 32.7102 40.3762C33.7784 40.3115 34.9142 39.8724 35.8797 39.7865C35.2702 40.1848 34.7537 40.6816 34.1654 41.1067C34.0036 41.1151 33.8502 41.1194 33.7052 41.1194C33.3192 41.1312 32.9334 41.091 32.5582 40.9997V40.9927ZM29.9235 46.2086C29.1247 46.6403 28.2475 46.9079 27.3437 46.9953C27.1213 46.9432 27.0622 46.7138 26.9876 46.4535C26.9693 46.3887 26.951 46.324 26.9285 46.2578C26.906 46.1917 26.8863 46.1382 26.8623 46.0777C26.4741 45.2299 26.2159 44.3284 26.0967 43.4036C26.0967 43.2797 26.084 43.1474 26.0784 43.0095C26.0235 41.6809 26.0348 39.878 27.331 40.1257C28.5137 40.3766 29.6547 40.7941 30.7201 41.3656C30.9931 41.5148 31.2084 41.6823 31.459 41.8188C31.5905 41.8922 31.7291 41.9521 31.8727 41.9976C31.9545 42.023 32.0377 42.0437 32.1219 42.0595C32.2149 42.0772 32.3089 42.0899 32.4033 42.0975C32.4033 42.2073 32.3949 42.3185 32.3907 42.4297C31.987 42.6225 31.5575 42.7557 31.1155 42.8251C30.9744 42.8611 30.8372 42.9111 30.706 42.9743C30.8808 42.9819 31.0551 42.9988 31.2281 43.025C31.6768 43.0918 32.112 43.2296 32.5173 43.4331V43.5218C32.508 43.7695 32.4981 44.0168 32.4878 44.2635C31.6691 44.9604 30.8131 45.612 29.9235 46.2156V46.2086ZM35.898 44.0468C35.7441 44.0102 35.593 43.9708 35.4448 43.9286C35.4391 43.5058 35.4555 43.083 35.494 42.6619C35.5802 42.6027 35.6752 42.5575 35.7755 42.5282C36.1256 42.4491 36.4823 42.402 36.8409 42.3874C36.731 42.3342 36.6165 42.2909 36.4989 42.258C36.4384 42.2411 36.3751 42.2256 36.3117 42.2129C36.1839 42.1849 36.054 42.167 35.9233 42.1594C35.7308 42.1506 35.538 42.1686 35.3505 42.2129C35.3145 41.9388 35.2312 41.6731 35.1042 41.4276L35.1844 41.3952C36.0415 41.018 37.8838 39.2433 38.9352 39.8569C39.1971 40.0989 39.3697 40.4222 39.4249 40.7745C39.5825 41.4101 39.6768 42.0598 39.7064 42.714C39.7328 43.1249 39.6982 43.5376 39.6037 43.9384C39.5586 44.1312 39.4764 44.3133 39.3616 44.4746C38.1957 44.4525 37.0351 44.311 35.898 44.0524V44.0468Z" fill="#231F20"/>
<path d="M29.6332 31.5095C28.7663 31.0873 28.147 31.3195 28.0344 31.4701C27.8205 31.7516 28.2638 33.3082 28.2638 33.3082L28.686 33.394C28.6058 31.6812 29.6332 31.5095 29.6332 31.5095Z" fill="#F7E4CD"/>
<path d="M35.0751 45.7227C34.9543 45.7229 34.8381 45.7697 34.7509 45.8533C34.6636 45.9369 34.6119 46.0509 34.6064 46.1716H35.5438C35.5384 46.0509 35.4866 45.9369 35.3994 45.8533C35.3121 45.7697 35.196 45.7229 35.0751 45.7227Z" fill="#1D1919"/>
<path d="M26.9755 46.8267C26.9755 46.7696 26.9528 46.7148 26.9125 46.6744C26.8721 46.634 26.8173 46.6113 26.7602 46.6113H26.5646V46.8604C26.5646 46.9176 26.5419 46.9723 26.5015 47.0127C26.4611 47.0531 26.4063 47.0758 26.3492 47.0758H11.7642C11.7071 47.0758 11.6523 47.0531 11.6119 47.0127C11.5715 46.9723 11.5488 46.9176 11.5488 46.8604V47.1856H26.9755V46.8267Z" fill="#231F20"/>
<path d="M42.8421 47.0758H30.879C30.8219 47.0758 30.7672 47.0531 30.7268 47.0127C30.6864 46.9723 30.6637 46.9176 30.6637 46.8604V46.6113H29.5659C29.5088 46.6113 29.454 46.634 29.4137 46.6744C29.3733 46.7148 29.3506 46.7696 29.3506 46.8267V47.1856H43.0546V46.8604C43.0546 46.9171 43.0323 46.9714 42.9925 47.0117C42.9528 47.052 42.8987 47.075 42.8421 47.0758Z" fill="#231F20"/>
<path d="M11.7642 47.0757H26.3534C26.4106 47.0757 26.4653 47.0531 26.5057 47.0127C26.5461 46.9723 26.5688 46.9175 26.5688 46.8604V46.3889C26.5688 46.3318 26.5461 46.277 26.5057 46.2367C26.4653 46.1963 26.4106 46.1736 26.3534 46.1736H11.7642C11.7071 46.1736 11.6523 46.1963 11.6119 46.2367C11.5715 46.277 11.5488 46.3318 11.5488 46.3889V46.8604C11.5488 46.9175 11.5715 46.9723 11.6119 47.0127C11.6523 47.0531 11.7071 47.0757 11.7642 47.0757Z" fill="#231F20"/>
<path d="M30.6699 46.8604C30.6699 46.9175 30.6926 46.9723 30.733 47.0127C30.7734 47.0531 30.8281 47.0757 30.8853 47.0757H42.8483C42.9054 47.0757 42.9602 47.0531 43.0006 47.0127C43.0409 46.9723 43.0636 46.9175 43.0636 46.8604V46.3889C43.0634 46.353 43.0539 46.3177 43.0362 46.2864C43.0184 46.2551 42.993 46.2289 42.9623 46.2102C42.9287 46.1872 42.889 46.1744 42.8483 46.1736H30.8853C30.8281 46.1736 30.7734 46.1963 30.733 46.2367C30.6926 46.277 30.6699 46.3318 30.6699 46.3889V46.8604Z" fill="#231F20"/>
</g>
</svg>
