<svg width="55" height="55" viewBox="0 0 55 55" fill="none" xmlns="http://www.w3.org/2000/svg">
<mask id="mask0_658_2799" style="mask-type:alpha" maskUnits="userSpaceOnUse" x="0" y="0" width="55" height="55">
<rect width="55" height="55" fill="#D9D9D9"/>
</mask>
<g mask="url(#mask0_658_2799)">
</g>
<path d="M7.77759 8.16162L41.526 43.91C41.8263 44.1303 42.195 44.2371 42.5666 44.2113C42.9381 44.1855 43.2885 44.0289 43.5555 43.7693C43.8032 43.5263 43.9589 43.2048 43.9958 42.8598C44.0328 42.5148 43.9488 42.1676 43.7582 41.8777L7.77759 8.16162Z" fill="#DF4F4F"/>
<path d="M18.4651 11.5413L44.1645 39.2477C44.4648 39.468 44.8335 39.5747 45.205 39.5489C45.5766 39.5232 45.927 39.3666 46.194 39.1069C46.4417 38.8639 46.5973 38.5425 46.6343 38.1975C46.6713 37.8524 46.5873 37.5053 46.3967 37.2154L18.4651 11.5413Z" fill="#DF4F4F"/>
<path d="M10.9551 18.7708L36.6545 46.4814C36.9548 46.7017 37.3235 46.8084 37.695 46.7827C38.0666 46.7569 38.417 46.6003 38.684 46.3406C38.9317 46.0976 39.0873 45.7762 39.1243 45.4312C39.1613 45.0862 39.0773 44.739 38.8867 44.4491L10.9551 18.7708Z" fill="#DF4F4F"/>
<path d="M27.5034 14.4463L45.4592 33.8039C45.6686 33.9581 45.9257 34.0332 46.1851 34.016C46.4445 33.9987 46.6895 33.8902 46.8765 33.7096C47.0495 33.5398 47.1582 33.3151 47.1838 33.0741C47.2095 32.833 47.1506 32.5905 47.0172 32.388L27.5034 14.4463Z" fill="#DF4F4F"/>
<path d="M13.4292 27.1509L31.3836 46.5071C31.5929 46.6613 31.8501 46.7364 32.1095 46.7192C32.3689 46.7019 32.6138 46.5934 32.8009 46.4128C32.9739 46.243 33.0825 46.0183 33.1082 45.7772C33.1339 45.5362 33.075 45.2937 32.9416 45.0912L13.4292 27.1509Z" fill="#DF4F4F"/>
<path d="M36.7175 18.6362L44.8552 27.4354C44.9599 27.5093 45.0868 27.5453 45.2147 27.5374C45.3427 27.5295 45.4641 27.4781 45.5589 27.3918C45.644 27.3148 45.6981 27.2094 45.711 27.0954C45.724 26.9814 45.6949 26.8666 45.6293 26.7725L36.7203 18.6362H36.7175Z" fill="#DF4F4F"/>
<path d="M17.9263 36.0667L26.064 44.8658C26.1687 44.9398 26.2955 44.9757 26.4235 44.9678C26.5514 44.9599 26.6729 44.9085 26.7677 44.8222C26.8527 44.7452 26.9068 44.6398 26.9198 44.5258C26.9327 44.4118 26.9037 44.297 26.838 44.2029L17.9263 36.0667Z" fill="#DF4F4F"/>
</svg>
