<svg width="55" height="55" viewBox="0 0 55 55" fill="none" xmlns="http://www.w3.org/2000/svg">
<mask id="mask0_658_2917" style="mask-type:alpha" maskUnits="userSpaceOnUse" x="0" y="0" width="55" height="55">
<rect width="55" height="55" fill="#D9D9D9"/>
</mask>
<g mask="url(#mask0_658_2917)">
<path d="M46.4699 23.3924C46.9735 21.8759 47.1476 20.2695 46.9808 18.6803C46.8139 17.0911 46.3098 15.5558 45.5022 14.1771C44.3049 12.093 42.4767 10.443 40.2812 9.46494C38.0857 8.48688 35.6363 8.2313 33.2862 8.73504C31.951 7.24986 30.2486 6.14215 28.3498 5.52315C26.4511 4.90415 24.4229 4.79566 22.4689 5.20858C20.515 5.62149 18.7041 6.54127 17.2181 7.87555C15.7321 9.20982 14.6234 10.9116 14.0032 12.81C12.4376 13.131 10.9585 13.7826 9.66475 14.7211C8.37105 15.6595 7.29255 16.8633 6.50134 18.252C5.29103 20.3326 4.77375 22.7442 5.02429 25.1381C5.27483 27.532 6.2802 29.7842 7.89506 31.5692C7.38964 33.0849 7.21373 34.6911 7.3791 36.2803C7.54447 37.8696 8.04731 39.4051 8.85398 40.7844C10.0528 42.8692 11.8826 44.5195 14.0796 45.4976C16.2767 46.4757 18.7275 46.7309 21.079 46.2266C22.1397 47.4211 23.4431 48.3756 24.9021 49.0263C26.3611 49.677 27.9421 50.0089 29.5396 49.9999C31.9484 50.0021 34.2956 49.2389 36.2424 47.8203C38.1892 46.4017 39.6349 44.4012 40.3707 42.1075C41.9362 41.7859 43.4151 41.1341 44.7087 40.1957C46.0024 39.2572 47.081 38.0537 47.8726 36.6653C49.0686 34.5878 49.577 32.1853 49.3251 29.8013C49.0731 27.4174 48.0738 25.1741 46.4699 23.3924ZM29.5396 47.0522C27.5668 47.0554 25.6559 46.3639 24.1419 45.0991L24.4082 44.9482L33.3749 39.7723C33.5981 39.6414 33.7834 39.4548 33.9126 39.2306C34.0418 39.0065 34.1105 38.7525 34.1119 38.4938V25.8517L37.9025 28.0446C37.9212 28.0541 37.9375 28.0679 37.9499 28.0848C37.9622 28.1018 37.9705 28.1215 37.9738 28.1422V38.6182C37.969 40.8536 37.0789 42.9961 35.4982 44.5768C33.9175 46.1574 31.775 47.0475 29.5396 47.0522ZM11.4108 39.3107C10.4214 37.6023 10.0662 35.5998 10.4076 33.6553L10.6741 33.8152L19.6496 38.9911C19.8717 39.1214 20.1245 39.1901 20.382 39.1901C20.6395 39.1901 20.8924 39.1214 21.1145 38.9911L32.0788 32.6699V37.0468C32.0778 37.0695 32.0716 37.0917 32.0608 37.1116C32.0501 37.1316 32.0349 37.1489 32.0165 37.1622L22.9343 42.4003C20.9961 43.5168 18.694 43.8186 16.5334 43.2394C14.3729 42.6601 12.5305 41.2471 11.4108 39.3107ZM9.04933 19.7791C10.0456 18.0598 11.618 16.7484 13.4883 16.0771V26.7306C13.4849 26.988 13.5507 27.2416 13.6787 27.4649C13.8068 27.6882 13.9924 27.873 14.2162 28.0001L25.1273 34.2947L21.3365 36.4874C21.3159 36.4983 21.2931 36.504 21.2698 36.504C21.2466 36.504 21.2237 36.4983 21.2032 36.4874L12.1389 31.2584C10.2043 30.137 8.7929 28.2946 8.21382 26.1348C7.63475 23.9749 7.93518 21.6736 9.04933 19.7348V19.7791ZM40.1932 27.0148L29.2467 20.6581L33.0287 18.4738C33.0492 18.4629 33.0721 18.4572 33.0953 18.4572C33.1186 18.4572 33.1414 18.4629 33.1619 18.4738L42.2263 23.7118C43.6122 24.5115 44.742 25.689 45.4839 27.1067C46.2257 28.5245 46.549 30.124 46.4159 31.7185C46.2828 33.3131 45.6988 34.8369 44.7322 36.112C43.7655 37.3871 42.4561 38.361 40.9568 38.9198V28.2662C40.9489 28.0093 40.8744 27.7588 40.7405 27.5394C40.6066 27.3199 40.4181 27.1393 40.1932 27.0148ZM43.9664 21.3417L43.6999 21.1819L34.7422 15.9617C34.5187 15.8305 34.2643 15.7614 34.0053 15.7614C33.7462 15.7614 33.4918 15.8305 33.2683 15.9617L22.3132 22.2826V17.906C22.3109 17.8837 22.3146 17.8612 22.324 17.8409C22.3333 17.8206 22.348 17.8032 22.3665 17.7905L31.4308 12.5613C32.8201 11.761 34.4084 11.3728 36.0102 11.4421C37.612 11.5114 39.1609 12.0353 40.4759 12.9526C41.7908 13.8698 42.8174 15.1426 43.4356 16.6219C44.0537 18.1012 44.2379 19.7259 43.9666 21.3061L43.9664 21.3417ZM20.2443 29.1007L16.4537 26.9168C16.4347 26.9054 16.4185 26.8899 16.4061 26.8715C16.3938 26.8532 16.3857 26.8323 16.3823 26.8104V16.3612C16.3844 14.7582 16.8428 13.1889 17.7039 11.8368C18.565 10.4847 19.7932 9.4057 21.245 8.72592C22.6967 8.04614 24.3119 7.79369 25.9019 7.99808C27.4918 8.20247 28.9907 8.85525 30.2233 9.88011L29.9568 10.0312L20.9902 15.2067C20.7671 15.3376 20.5818 15.5243 20.4526 15.7484C20.3234 15.9726 20.2547 16.2265 20.2533 16.4852L20.2443 29.1007ZM22.304 24.6619L27.1868 21.8475L32.0788 24.6619V30.2905L27.2046 33.1047L22.313 30.2905L22.304 24.6619Z" fill="black"/>
</g>
</svg>
