<svg width="55" height="55" viewBox="0 0 55 55" fill="none" xmlns="http://www.w3.org/2000/svg">
<mask id="mask0_658_2947" style="mask-type:alpha" maskUnits="userSpaceOnUse" x="0" y="0" width="55" height="55">
<rect width="55" height="55" fill="#D9D9D9"/>
</mask>
<g mask="url(#mask0_658_2947)">
<path fill-rule="evenodd" clip-rule="evenodd" d="M19.936 40.4899C12.7288 40.4899 6.88013 34.6559 6.88013 27.4467C6.88013 20.2374 12.7288 14.3826 19.936 14.3826H35.1106C42.3198 14.3826 48.1643 20.2374 48.1643 27.4467C48.1643 34.6559 42.3198 40.4899 35.1106 40.4899H19.936ZM34.7731 35.8852C39.4425 35.8852 43.2242 32.1139 43.2242 27.4467C43.2242 22.7794 39.4425 18.9873 34.7731 18.9873H20.2714C15.6041 18.9873 11.8203 22.7794 11.8203 27.4467C11.8203 32.1139 15.6041 35.8852 20.2714 35.8852H34.7731Z" fill="#FF0000"/>
</g>
</svg>
