<svg width="31" height="31" viewBox="0 0 31 31" fill="none" xmlns="http://www.w3.org/2000/svg">
<path d="M7.57787 4.40479H23.4433C25.1885 4.40479 26.6164 5.83268 26.6164 7.57787V23.4433C26.6164 25.1885 25.1885 26.6164 23.4433 26.6164H7.57787C5.83268 26.6164 4.40479 25.1885 4.40479 23.4433V7.57787C4.40479 5.83268 5.83268 4.40479 7.57787 4.40479Z" fill="#212529"/>
<path d="M24.6332 15.5103C24.6332 14.2411 23.1259 13.2098 20.9048 12.4959C21.4601 10.1954 21.2221 8.3709 20.1909 7.8156C19.8735 7.65694 19.6356 7.57764 19.3182 7.57764C18.287 7.57764 17.0178 8.2916 15.7485 9.56079C14.4 8.2916 13.1307 7.57764 12.0995 7.57764C11.7821 7.57764 11.4649 7.65694 11.2268 7.8156C10.1956 8.3709 9.95765 10.1954 10.5129 12.4959C8.29177 13.2098 6.78455 14.2411 6.78455 15.5103C6.78455 16.7796 8.29177 17.8109 10.5129 18.5248C9.95765 20.8252 10.1163 22.6498 11.2268 23.2844C11.4649 23.443 11.7821 23.5224 12.0995 23.5224C13.1307 23.5224 14.3999 22.8084 15.6692 21.5392C16.9384 22.8084 18.287 23.5224 19.2389 23.5224C19.5562 23.5224 19.8735 23.443 20.1115 23.2844C21.1428 22.6498 21.3808 20.8252 20.8255 18.5248C23.1259 17.8109 24.6332 16.7003 24.6332 15.5103ZM19.3182 8.4502C19.4769 8.4502 19.6356 8.4502 19.7149 8.52956C20.1909 8.84683 20.4288 9.87812 20.2702 11.2267C20.1909 11.544 20.1909 11.9406 20.1115 12.2579C19.3975 12.0993 18.6043 11.9406 17.811 11.8613C17.3351 11.2267 16.8591 10.5921 16.3832 10.1161C17.4937 9.0055 18.6043 8.4502 19.3182 8.4502ZM18.1283 16.9382C17.8903 17.4142 17.5731 17.8108 17.3351 18.2868C16.7798 18.2868 16.3038 18.3661 15.7485 18.3661C15.1932 18.3661 14.6379 18.3661 14.162 18.2868C13.8447 17.8902 13.6067 17.4142 13.3687 16.9382C13.1307 16.4622 12.8927 15.9863 12.6548 15.5103C12.8927 15.0344 13.1307 14.5584 13.3687 14.0825C13.6067 13.6065 13.924 13.1305 14.2413 12.7339C14.7173 12.7339 15.2726 12.6545 15.8279 12.6545C16.3832 12.6545 16.8591 12.6545 17.4144 12.7339C17.7317 13.1305 17.9697 13.6065 18.287 14.0825C18.525 14.5584 18.7629 15.0344 19.0009 15.5103C18.6836 15.9863 18.3663 16.4622 18.1283 16.9382ZM19.3182 16.5416C19.4769 17.0175 19.6356 17.4142 19.7942 17.8902C19.3182 17.9695 18.8422 18.0488 18.3663 18.1281C18.525 17.8902 18.6836 17.6522 18.8422 17.3349C19.0009 17.0969 19.1596 16.7796 19.3182 16.5416ZM15.6692 20.2699C15.3519 19.9527 15.0345 19.556 14.7173 19.1594C15.0345 19.1594 15.3519 19.1594 15.6692 19.1594C15.9865 19.1594 16.3038 19.1594 16.6211 19.1594C16.3038 19.556 15.9865 19.9527 15.6692 20.2699ZM12.9721 18.1281C12.4961 18.0488 12.0202 17.9695 11.5442 17.8902C11.7028 17.4142 11.8615 17.0175 12.0202 16.5416C12.1788 16.7796 12.3374 17.0969 12.4961 17.3349C12.6548 17.6522 12.8134 17.8902 12.9721 18.1281ZM12.0995 14.4791C11.9408 14.0031 11.7821 13.5272 11.6235 13.1305C12.0995 13.0512 12.5755 12.9719 13.0514 12.8926C12.8927 13.1305 12.7341 13.4479 12.5755 13.6858C12.3374 13.9238 12.1788 14.2411 12.0995 14.4791ZM15.6692 10.7507C15.9865 11.068 16.3038 11.4646 16.6211 11.8613C16.3038 11.8613 15.9865 11.8613 15.6692 11.8613C15.3519 11.8613 15.0345 11.8613 14.7173 11.8613C15.0345 11.4646 15.3519 11.068 15.6692 10.7507ZM18.8422 13.6858C18.6836 13.3685 18.525 13.1305 18.3663 12.8926C18.8422 12.9719 19.3182 13.0512 19.7942 13.1305C19.6356 13.6065 19.4769 14.0825 19.3182 14.4791C19.1596 14.2411 19.0009 13.9238 18.8422 13.6858ZM11.1475 11.2267C10.9889 9.87812 11.1475 8.84683 11.7028 8.52956C11.7821 8.4502 11.9408 8.4502 12.0995 8.4502C12.8134 8.4502 13.924 9.0055 15.1139 10.1954C14.6379 10.7507 14.162 11.306 13.686 11.9406C12.8927 12.0199 12.0995 12.1786 11.3855 12.3373C11.2268 11.9406 11.1475 11.544 11.1475 11.2267ZM9.71968 17.2556C8.45043 16.7003 7.65717 16.0656 7.65717 15.431C7.65717 14.8757 8.45043 14.1618 9.71968 13.6065C10.037 13.4479 10.3543 13.3685 10.7509 13.2892C10.9889 14.0031 11.2268 14.717 11.5442 15.431C11.2268 16.145 10.9096 16.8589 10.7509 17.5728C10.3543 17.5728 10.037 17.4142 9.71968 17.2556ZM11.7028 22.4911C11.2268 22.1738 10.9889 21.1426 11.1475 19.794C11.2268 19.4767 11.2268 19.08 11.3855 18.6834C12.0995 18.8421 12.8134 19.0007 13.6067 19.08C14.0826 19.7147 14.5586 20.3493 15.1139 20.9046C13.924 22.0152 12.8134 22.6498 12.0995 22.6498C11.9408 22.5705 11.7821 22.5705 11.7028 22.4911ZM20.2702 19.794C20.4288 21.1426 20.2702 22.1738 19.7149 22.4911C19.6356 22.5705 19.4769 22.5705 19.3182 22.5705C18.6043 22.5705 17.4937 22.0152 16.3038 20.8252C16.7798 20.2699 17.3351 19.7147 17.811 19.0007C18.6043 18.9214 19.3975 18.8421 20.0322 18.6041C20.1115 19.08 20.1909 19.4767 20.2702 19.794ZM21.698 17.2556C21.3808 17.4142 21.0634 17.4935 20.6668 17.6522C20.4288 16.9382 20.1909 16.2243 19.8735 15.5103C20.1909 14.7964 20.5081 14.0031 20.6668 13.3685C21.0634 13.4479 21.3808 13.6065 21.698 13.6858C22.9673 14.2411 23.7605 14.8757 23.7605 15.5103C23.7605 16.0656 22.9673 16.7796 21.698 17.2556Z" fill="white"/>
<path d="M15.751 17.177C16.7029 17.177 17.4169 16.463 17.4169 15.5111C17.4169 14.5592 16.7029 13.8452 15.751 13.8452C14.799 13.8452 14.0851 14.5592 14.0851 15.5111C14.0851 16.463 14.799 17.177 15.751 17.177Z" fill="white"/>
</svg>
