<svg width="55" height="55" viewBox="0 0 55 55" fill="none" xmlns="http://www.w3.org/2000/svg">
<mask id="mask0_658_3240" style="mask-type:alpha" maskUnits="userSpaceOnUse" x="0" y="0" width="55" height="55">
<rect width="55" height="55" fill="#D9D9D9"/>
</mask>
<g mask="url(#mask0_658_3240)">
<path d="M10.5682 25.612C9.54686 25.4899 9.4712 24.1079 8.16237 24.23C7.52687 24.23 6.93676 24.4973 6.93676 25.0852C6.93676 25.9709 8.29099 26.0549 9.10806 26.2763C10.5001 26.7039 11.8468 26.9941 11.8468 28.5211C11.8468 30.4605 10.3412 31.1325 8.35151 31.1325C6.6871 31.1325 5 30.5369 5 28.9945C5 28.567 5.40854 28.231 5.80194 28.231C6.30126 28.231 6.47527 28.4448 6.64928 28.796C7.03512 29.4832 7.46635 29.8497 8.54065 29.8497C9.22154 29.8497 9.91757 29.5901 9.91757 28.9945C9.91757 28.147 9.06267 27.9638 8.1775 27.7576C6.61145 27.3147 5.26479 27.0857 5.10592 25.3295C4.93948 22.3364 11.1205 22.2219 11.4761 24.8485C11.4685 25.3219 11.0297 25.612 10.5682 25.612ZM17.9218 22.9855C20.0931 22.9855 21.3263 24.818 21.3263 27.078C21.3263 29.3458 20.131 31.1706 17.9218 31.1706C16.6962 31.1706 15.9321 30.6438 15.3798 29.8344V32.8275C15.3798 33.7285 15.0924 34.1637 14.4417 34.1637C13.6473 34.1637 13.5036 33.6522 13.5036 32.8275V24.1231C13.5036 23.413 13.7987 22.9778 14.4417 22.9778C15.047 22.9778 15.3798 23.4589 15.3798 24.1231V24.3675C15.9926 23.5887 16.6962 22.9855 17.9218 22.9855ZM17.4074 29.613C18.6784 29.613 19.2458 28.4295 19.2458 27.0475C19.2458 25.696 18.6708 24.482 17.4074 24.482C16.0834 24.482 15.4706 25.5815 15.4706 27.0475C15.4706 28.4753 16.091 29.613 17.4074 29.613ZM22.8016 25.1234C22.8016 23.5505 24.5946 22.9855 26.3347 22.9855C28.7783 22.9855 29.7845 23.7032 29.7845 26.0854V28.3761C29.7845 28.9182 30.1174 30.0024 30.1174 30.3307C30.1174 30.827 29.6635 31.1401 29.1793 31.1401C28.6421 31.1401 28.2412 30.4987 27.9537 30.0406C27.1593 30.682 26.3195 31.1401 25.0334 31.1401C23.6111 31.1401 22.4914 30.2926 22.4914 28.8953C22.4914 27.6583 23.369 26.9482 24.4282 26.7039C24.4282 26.7115 27.8326 25.8946 27.8326 25.8869C27.8326 24.8332 27.4619 24.3675 26.3649 24.3675C25.3965 24.3675 24.9048 24.6347 24.5265 25.2226C24.2239 25.6655 24.2617 25.9327 23.6792 25.9327C23.2101 25.9251 22.8016 25.6044 22.8016 25.1234ZM25.7067 29.8497C27.1971 29.8497 27.8251 29.0556 27.8251 27.4751V27.1391C27.4241 27.2766 25.8051 27.6812 25.3663 27.75C24.8972 27.8416 24.4282 28.1928 24.4282 28.7502C24.4433 29.361 25.0637 29.8497 25.7067 29.8497ZM36.654 20C38.7572 20 41.0344 21.2675 41.0344 23.2832C41.0344 23.8024 40.6486 24.23 40.1417 24.23C39.4532 24.23 39.3549 23.8559 39.0522 23.329C38.5454 22.3899 37.9477 21.7638 36.6464 21.7638C34.634 21.7485 33.7337 23.4894 33.7337 25.6579C33.7337 27.8416 34.4827 29.4145 36.5632 29.4145C37.9477 29.4145 38.7118 28.6051 39.1052 27.5591C39.2641 27.0781 39.5516 26.6123 40.1492 26.6123C40.6183 26.6123 41.0874 27.0933 41.0874 27.6125C41.0874 29.7505 38.9236 31.2317 36.6994 31.2317C34.2633 31.2317 32.8864 30.1933 32.1298 28.4677C31.7591 27.6431 31.5246 26.7879 31.5246 25.612C31.5095 22.2983 33.4235 20 36.654 20ZM48.6831 22.9855C49.2203 22.9855 49.5304 23.3367 49.5304 23.8864C49.5304 24.1079 49.3564 24.5507 49.2884 24.7874L46.701 31.6517C46.126 33.1406 45.6947 34.1714 43.7353 34.1714C42.8047 34.1714 41.9952 34.0874 41.9952 33.2704C41.9952 32.797 42.3508 32.5603 42.8426 32.5603C42.9333 32.5603 43.0847 32.6061 43.1754 32.6061C43.3192 32.6061 43.4175 32.6519 43.5083 32.6519C44.4918 32.6519 44.628 31.6364 44.976 30.9339L42.4794 24.6958C42.3357 24.3598 42.2373 24.1308 42.2373 23.9323C42.2373 23.3825 42.661 22.9855 43.2284 22.9855C43.8639 22.9855 44.1136 23.4894 44.2724 24.0391L45.9217 28.9869L47.571 24.4133C47.8206 23.7032 47.8433 22.9855 48.6831 22.9855Z" fill="#09A3D5"/>
</g>
</svg>
