<svg width="55" height="55" viewBox="0 0 55 55" fill="none" xmlns="http://www.w3.org/2000/svg">
<mask id="mask0_658_3358" style="mask-type:alpha" maskUnits="userSpaceOnUse" x="0" y="0" width="55" height="55">
<rect width="55" height="55" fill="#D9D9D9"/>
</mask>
<g mask="url(#mask0_658_3358)">
<path d="M28.4236 49.0331C26.8856 49.0331 25.4563 48.4427 24.3689 47.3552L5.3845 28.3243C4.87183 27.8116 4.87183 26.9727 5.3845 26.46L24.3844 7.42905C25.4719 6.34157 26.9011 5.75122 28.4391 5.75122C29.9616 5.75122 31.4064 6.34157 32.4939 7.42905L39.2363 14.2025C39.749 14.7152 39.749 15.5541 39.2363 16.0668L27.9265 27.3921L39.2363 38.7175C39.749 39.2302 39.749 40.0691 39.2363 40.5818L32.4628 47.3552C31.3909 48.4427 29.9616 49.0331 28.4236 49.0331ZM8.18089 27.3921L26.2486 45.491C26.8235 46.0658 27.6002 46.392 28.4236 46.392C29.247 46.392 30.0238 46.0658 30.5986 45.491L36.4399 39.6496L25.1301 28.3243C24.6174 27.8116 24.6174 26.9727 25.1301 26.46L36.4399 15.1346L30.6141 9.29331C30.0393 8.70296 29.2625 8.39225 28.4391 8.39225C27.6158 8.39225 26.839 8.7185 26.2642 9.29331L8.18089 27.3921Z" fill="#226DB4"/>
<path d="M42.9698 36.3096C42.6125 36.3096 42.2863 36.1698 42.0377 35.9212L34.4564 28.3243C33.9437 27.8117 33.9437 26.9728 34.4564 26.4601L42.0377 18.8632C42.2863 18.6147 42.6281 18.4749 42.9698 18.4749C43.3272 18.4749 43.6534 18.6147 43.902 18.8632L48.3762 23.353C50.5978 25.5746 50.5978 29.2099 48.3762 31.4314L43.902 35.9212C43.6534 36.1698 43.3272 36.3096 42.9698 36.3096ZM37.2528 27.3922L42.9698 33.1093L46.5119 29.5672C47.7082 28.371 47.7082 26.4135 46.5119 25.2173L42.9698 21.6752L37.2528 27.3922Z" fill="#E42527"/>
</g>
</svg>
