<svg width="55" height="55" viewBox="0 0 55 55" fill="none" xmlns="http://www.w3.org/2000/svg">
<mask id="mask0_656_1855" style="mask-type:alpha" maskUnits="userSpaceOnUse" x="0" y="0" width="55" height="55">
<rect width="55" height="55" fill="#D9D9D9"/>
</mask>
<g mask="url(#mask0_656_1855)">
<g clip-path="url(#clip0_656_1855)">
<path d="M17.5347 27.0587C17.5347 27.6496 17.5946 28.1296 17.7086 28.4835C17.8346 28.8345 17.9966 29.2185 18.2186 29.6354C18.2894 29.7456 18.3279 29.8734 18.3296 30.0044C18.3296 30.1634 18.2336 30.3253 18.0296 30.4843L17.0217 31.1563C16.9007 31.2436 16.7568 31.2936 16.6078 31.3002C16.4458 31.3002 16.2868 31.2222 16.1278 31.0783C15.9122 30.8463 15.7194 30.5941 15.5519 30.3253C15.3734 30.0176 15.2083 29.7024 15.0569 29.3804C13.8121 30.8533 12.2492 31.5912 10.3655 31.5912C9.0246 31.5912 7.95372 31.2042 7.17381 30.4363C6.3909 29.6684 5.99194 28.6425 5.99194 27.3617C5.99194 25.9998 6.47189 24.896 7.44378 24.062C8.41867 23.2281 9.71153 22.8142 11.3553 22.8142C11.8953 22.8142 12.4562 22.8622 13.0472 22.9402C13.6381 23.0212 14.247 23.1501 14.8829 23.2941V22.1243C14.8829 20.9064 14.628 20.0575 14.133 19.5625C13.6231 19.0646 12.7592 18.8246 11.5293 18.8246C10.9714 18.8246 10.3985 18.8906 9.80752 19.0346C9.2204 19.1743 8.644 19.3558 8.08271 19.5775C7.90149 19.6596 7.71512 19.7297 7.52477 19.7875C7.44229 19.8148 7.35655 19.8309 7.2698 19.8355C7.04483 19.8355 6.93384 19.6735 6.93384 19.3376V18.5517C6.93384 18.2967 6.96383 18.1017 7.04483 17.9937C7.1657 17.8465 7.31996 17.7303 7.49478 17.6548C8.04971 17.3668 8.72164 17.1268 9.50455 16.9348C10.2845 16.7249 11.1154 16.6319 11.9943 16.6319C13.8931 16.6319 15.2819 17.0638 16.1758 17.9277C17.0547 18.7916 17.5017 20.1055 17.5017 21.8693V27.0587H17.5317H17.5347ZM11.0524 29.4914C11.5773 29.4914 12.1203 29.3954 12.6962 29.2035C13.2691 29.0115 13.7821 28.6575 14.211 28.1776C14.4682 27.8829 14.654 27.5329 14.754 27.1547C14.85 26.7677 14.9159 26.3058 14.9159 25.7599V25.0879C14.4315 24.9704 13.9407 24.8803 13.4461 24.818C12.9487 24.7536 12.4478 24.7206 11.9463 24.719C10.8754 24.719 10.0925 24.9289 9.56754 25.3609C9.0396 25.7928 8.78763 26.4018 8.78763 27.2027C8.78763 27.9526 8.97661 28.5135 9.37557 28.9005C9.75952 29.2995 10.3175 29.4914 11.0524 29.4914ZM23.8699 31.2222C23.582 31.2222 23.39 31.1742 23.264 31.0603C23.135 30.9643 23.024 30.7423 22.9281 30.4363L19.1785 18.0567C19.1045 17.8492 19.0552 17.6338 19.0315 17.4148C19.0315 17.1598 19.1605 17.0158 19.4154 17.0158H20.9813C21.2812 17.0158 21.4912 17.0638 21.6022 17.1748C21.7312 17.2708 21.8272 17.4958 21.9232 17.7987L24.6049 28.4026L27.0946 17.7987C27.1726 17.4808 27.2686 17.2708 27.3946 17.1748C27.587 17.0569 27.8112 17.0014 28.0365 17.0158H29.3113C29.6173 17.0158 29.8213 17.0638 29.9503 17.1748C30.0793 17.2708 30.1902 17.4958 30.2532 17.7987L32.7759 28.5315L35.5356 17.7987C35.5868 17.5665 35.6974 17.3515 35.8566 17.1748C36.0425 17.057 36.261 17.0013 36.4805 17.0158H37.9654C38.2203 17.0158 38.3643 17.1448 38.3643 17.4148C38.3643 17.4958 38.3463 17.5768 38.3343 17.6728C38.3085 17.8089 38.2704 17.9425 38.2203 18.0717L34.3718 30.4513C34.2758 30.7723 34.1648 30.9823 34.0388 31.0783C33.8577 31.1941 33.6445 31.2498 33.4299 31.2372H32.059C31.7561 31.2372 31.5491 31.1892 31.4201 31.0783C31.2911 30.9643 31.1801 30.7573 31.1171 30.4363L28.6424 20.1085L26.1827 30.4243C26.1047 30.7453 26.0087 30.9523 25.8827 31.0633C25.7537 31.1772 25.5288 31.2252 25.2438 31.2252H23.8699V31.2222ZM44.3817 31.6542C43.5533 31.6553 42.7277 31.5586 41.9219 31.3662C41.124 31.1742 40.5031 30.9643 40.0861 30.7243C39.8312 30.5803 39.6572 30.4213 39.5912 30.2743C39.5302 30.1332 39.4986 29.9811 39.4982 29.8274V29.0115C39.4982 28.6755 39.6242 28.5135 39.8642 28.5135C39.9621 28.5138 40.0594 28.53 40.1521 28.5615C40.2481 28.5945 40.3921 28.6575 40.5511 28.7235C41.091 28.9635 41.685 29.1555 42.3059 29.2845C42.9448 29.4104 43.5657 29.4764 44.2047 29.4764C45.2126 29.4764 45.9925 29.2995 46.5354 28.9485C46.7962 28.7906 47.0105 28.5664 47.1565 28.2987C47.3025 28.031 47.3749 27.7294 47.3663 27.4247C47.3717 27.2189 47.3363 27.0141 47.2622 26.8221C47.188 26.63 47.0766 26.4546 46.9344 26.3058C46.6494 25.9998 46.1065 25.7269 45.3235 25.4719L43.0078 24.752C41.8439 24.383 40.98 23.8371 40.4551 23.1171C39.9412 22.4519 39.6608 21.636 39.6572 20.7954C39.6572 20.1235 39.8012 19.5295 40.0861 19.0166C40.3741 18.5067 40.7581 18.0567 41.238 17.7028C41.718 17.3368 42.2579 17.0638 42.8968 16.8718C43.5357 16.6799 44.2047 16.5989 44.9066 16.5989C45.2606 16.5989 45.6265 16.6139 45.9775 16.6619C46.3434 16.7099 46.6794 16.7759 47.0154 16.8419C47.3333 16.9198 47.6393 16.9978 47.9243 17.0968C48.2122 17.1928 48.4342 17.2888 48.5962 17.3848C48.7845 17.4794 48.9487 17.6158 49.0761 17.7837C49.1788 17.9399 49.2283 18.1251 49.2171 18.3117V19.0646C49.2171 19.4006 49.0911 19.5775 48.8512 19.5775C48.6387 19.5533 48.4329 19.4881 48.2452 19.3856C47.2806 18.9579 46.2346 18.745 45.1796 18.7616C44.2707 18.7616 43.5507 18.9056 43.0558 19.2116C42.5609 19.5116 42.3059 19.9795 42.3059 20.6364C42.3059 21.0834 42.4649 21.4673 42.7858 21.7733C43.1038 22.0763 43.6947 22.3792 44.5406 22.6522L46.8084 23.3721C47.9573 23.7411 48.7882 24.254 49.2831 24.9109C49.7781 25.5679 50.015 26.3208 50.015 27.1547C50.015 27.8446 49.874 28.4656 49.6011 29.0115C49.3185 29.5593 48.9216 30.0401 48.4372 30.4213C47.9423 30.8203 47.3513 31.1113 46.6644 31.3182C45.9445 31.5432 45.1946 31.6542 44.3817 31.6542Z" fill="#252F3E"/>
<path fill-rule="evenodd" clip-rule="evenodd" d="M47.3899 39.4355C42.1405 43.3261 34.5094 45.3929 27.9491 45.3929C18.7551 45.3929 10.4701 41.9822 4.21277 36.3129C3.71782 35.8629 4.16477 35.254 4.75271 35.6079C11.5229 39.5465 19.871 41.9342 28.5101 41.9342C34.3324 41.9342 40.7337 40.7164 46.625 38.2177C47.5039 37.8187 48.2538 38.7936 47.3899 39.4355Z" fill="#FF9900"/>
<path fill-rule="evenodd" clip-rule="evenodd" d="M49.5721 36.937C48.9032 36.0761 45.1356 36.523 43.4288 36.73C42.9189 36.796 42.8379 36.3461 43.2998 36.0101C46.2995 33.8953 51.2339 34.5043 51.8069 35.2092C52.3828 35.9291 51.6479 40.8786 48.8372 43.2483C48.4082 43.6173 47.9943 43.4283 48.1833 42.9483C48.8222 41.3585 50.244 37.7889 49.5721 36.94V36.937Z" fill="#FF9900"/>
</g>
</g>
<defs>
<clipPath id="clip0_656_1855">
<rect width="47.9946" height="47.9946" fill="white" transform="translate(4 4)"/>
</clipPath>
</defs>
</svg>
