<svg width="55" height="55" viewBox="0 0 55 55" fill="none" xmlns="http://www.w3.org/2000/svg">
<mask id="mask0_656_2348" style="mask-type:alpha" maskUnits="userSpaceOnUse" x="0" y="0" width="55" height="55">
<rect width="55" height="55" fill="#D9D9D9"/>
</mask>
<g mask="url(#mask0_656_2348)">
<path d="M27.9991 40.62V48.5751C41.4826 48.5751 51.9604 35.5566 47.5509 21.4191C46.5872 18.3682 44.903 15.5943 42.6406 13.3319C40.3782 11.0695 37.6043 9.38526 34.5534 8.42158C20.4399 4.01208 7.42139 14.5109 7.42139 27.9734H15.3765C15.3765 19.5293 23.7516 12.9961 32.6426 16.2147C34.2755 16.8104 35.7584 17.7559 36.9875 18.985C38.2166 20.2141 39.1621 21.697 39.7578 23.3299C42.9974 32.2119 36.4581 40.578 28.0231 40.596V32.6859H20.089V40.62H27.9991Z" fill="#0080FF"/>
<path d="M20.0963 46.73H13.9829V40.6197H20.0963V46.73ZM8.87451 40.6197H13.9829V35.5083H8.87451V40.6197Z" fill="#0080FF"/>
</g>
</svg>
