<svg width="55" height="55" viewBox="0 0 55 55" fill="none" xmlns="http://www.w3.org/2000/svg">
<mask id="mask0_656_2358" style="mask-type:alpha" maskUnits="userSpaceOnUse" x="0" y="0" width="55" height="55">
<rect width="55" height="55" fill="#D9D9D9"/>
</mask>
<g mask="url(#mask0_656_2358)">
<path d="M49.77 23.658C49.6489 23.5583 48.5589 22.7412 46.2174 22.7412C45.6119 22.7412 44.986 22.801 44.3805 22.9007C43.9365 19.8515 41.3729 18.3767 41.272 18.297L40.6462 17.9382L40.2425 18.5162C39.7379 19.2935 39.3544 20.1704 39.1323 21.0672C38.7085 22.801 38.9708 24.4352 39.859 25.8302C38.7892 26.4281 37.0533 26.5676 36.69 26.5875H8.02667C7.27983 26.5875 6.67426 27.1854 6.67426 27.9228C6.63394 30.394 7.05779 32.8652 7.9258 35.1969C8.91483 37.7479 10.3884 39.6412 12.2858 40.7971C14.4255 42.0924 17.9175 42.8298 21.8536 42.8298C23.63 42.8298 25.4062 42.6704 27.1624 42.3515C29.6048 41.913 31.9463 41.076 34.1062 39.8604C35.8762 38.8473 37.4711 37.5552 38.8295 36.034C41.1105 33.503 42.4629 30.673 43.4519 28.162H43.8556C46.3385 28.162 47.8725 27.1854 48.7203 26.3484C49.2855 25.8302 49.7093 25.1925 50.0121 24.4751L50.1939 23.9569L49.77 23.658Z" fill="#0091E2"/>
<path d="M10.694 25.7703H14.5292C14.7109 25.7703 14.8724 25.6308 14.8724 25.4316V22.0436C14.8724 21.8642 14.731 21.7048 14.5292 21.7048H10.694C10.5123 21.7048 10.3508 21.8443 10.3508 22.0436V25.4316C10.371 25.6308 10.5123 25.7703 10.694 25.7703V25.7703ZM15.9825 25.7703H19.8178C19.9994 25.7703 20.1609 25.6308 20.1609 25.4316V22.0436C20.1609 21.8642 20.0196 21.7048 19.8178 21.7048H15.9824C15.8008 21.7048 15.6393 21.8443 15.6393 22.0436V25.4316C15.6595 25.6308 15.8009 25.7703 15.9824 25.7703M21.3719 25.7703H25.2072C25.3888 25.7703 25.5503 25.6308 25.5503 25.4316V22.0436C25.5503 21.8642 25.409 21.7048 25.2072 21.7048H21.3719C21.1902 21.7048 21.0288 21.8443 21.0288 22.0436V25.4316C21.0288 25.6308 21.1701 25.7703 21.3719 25.7703ZM26.6807 25.7703H30.5159C30.6976 25.7703 30.8591 25.6308 30.8591 25.4316V22.0436C30.8591 21.8642 30.7177 21.7048 30.5159 21.7048H26.6807C26.499 21.7048 26.3375 21.8443 26.3375 22.0436V25.4316C26.3375 25.6308 26.499 25.7703 26.6807 25.7703ZM15.9825 20.9276H19.8177C19.9993 20.9276 20.1608 20.7682 20.1608 20.5888V17.2008C20.1608 17.0214 20.0195 16.862 19.8177 16.862H15.9824C15.8008 16.862 15.6393 17.0015 15.6393 17.2008V20.5888C15.6595 20.7681 15.8009 20.9276 15.9825 20.9276ZM21.3719 20.9276H25.2072C25.3888 20.9276 25.5503 20.7682 25.5503 20.5888V17.2008C25.5503 17.0214 25.409 16.862 25.2072 16.862H21.3719C21.1902 16.862 21.0288 17.0015 21.0288 17.2008V20.5888C21.0288 20.7681 21.1701 20.9276 21.3719 20.9276ZM26.6807 20.9276H30.5159C30.6976 20.9276 30.8591 20.7682 30.8591 20.5888V17.2008C30.8591 17.0214 30.6975 16.862 30.5159 16.862H26.6807C26.499 16.862 26.3375 17.0015 26.3375 17.2008V20.5888C26.3375 20.7681 26.499 20.9276 26.6807 20.9276ZM26.6807 16.0649H30.5159C30.6976 16.0649 30.8591 15.9253 30.8591 15.7261V12.3381C30.8591 12.1587 30.6975 11.9993 30.5159 11.9993H26.6807C26.499 11.9993 26.3375 12.1388 26.3375 12.3381V15.7261C26.3375 15.9054 26.499 16.0649 26.6807 16.0649ZM32.0297 25.7703H35.865C36.0466 25.7703 36.2081 25.6308 36.2081 25.4316V22.0436C36.2081 21.8642 36.0669 21.7048 35.865 21.7048H32.0298C31.8481 21.7048 31.6866 21.8443 31.6866 22.0436V25.4316C31.7068 25.6308 31.8482 25.7703 32.0298 25.7703" fill="#0091E2"/>
</g>
</svg>
