<svg width="55" height="55" viewBox="0 0 55 55" fill="none" xmlns="http://www.w3.org/2000/svg">
<mask id="mask0_656_2481" style="mask-type:alpha" maskUnits="userSpaceOnUse" x="0" y="0" width="55" height="55">
<rect width="55" height="55" fill="#D9D9D9"/>
</mask>
<g mask="url(#mask0_656_2481)">
<path d="M34.9432 20.126L40.6036 15.6265L39.6077 14.3846C37.348 12.4145 34.6274 11.047 31.6981 10.4088C28.7689 9.7706 25.726 9.88247 22.8516 10.734C19.9882 11.599 17.3913 13.1767 15.3042 15.3194C13.2172 17.4621 11.7083 20.0995 10.9189 22.9846C10.8289 23.3236 11.8548 22.6907 12.3077 22.8167L20.1309 21.5328C20.1309 21.5328 20.5118 21.1608 20.7338 20.9179C24.2134 17.1203 30.1107 16.6224 34.1273 19.856L34.9432 20.126Z" fill="#EA4335"/>
<path d="M44.9076 22.8983C44.0065 19.6033 42.1608 16.644 39.5982 14.3853L34.1088 19.8446C35.2503 20.7707 36.1657 21.9446 36.7858 23.2772C37.4059 24.6098 37.7142 26.0662 37.6874 27.5358V28.5047C40.3871 28.5047 42.5769 30.6794 42.5769 33.3641C42.5769 36.0428 40.3871 38.2206 37.6874 38.2206L27.9175 38.2116L26.9426 38.3166V45.8367L27.9175 45.9957H37.6874C40.4104 46.0224 43.0698 45.1733 45.2734 43.5735C47.477 41.9737 49.1081 39.708 49.9261 37.1107C50.7336 34.517 50.6809 31.7318 49.776 29.1705C48.871 26.6091 47.1623 24.409 44.9046 22.8983H44.9076Z" fill="#4285F4"/>
<path d="M18.1294 45.9928H27.9053V38.2117H18.1264C17.4305 38.2117 16.7436 38.0137 16.1107 37.7288L14.7368 38.1487L10.7983 42.0393L10.4563 43.3801C12.6616 45.0601 15.3541 45.9762 18.1264 45.9898L18.1294 45.9928Z" fill="#34A853"/>
<path d="M18.1312 20.7143C15.4893 20.7252 12.9165 21.5599 10.7712 23.1019C8.62591 24.6439 7.01492 26.8166 6.16256 29.3173C5.3192 31.8164 5.2803 34.5171 6.05134 37.0395C6.82237 39.5619 8.36456 41.7792 10.4611 43.3797L16.1304 37.7284C15.1672 37.2988 14.3701 36.567 13.8601 35.6438C13.3501 34.7206 13.1549 33.6563 13.3041 32.6122C13.4533 31.5681 13.9388 30.601 14.687 29.8576C15.4352 29.1142 16.4053 28.6349 17.4503 28.4924C18.4956 28.3424 19.5613 28.5349 20.488 29.041C21.4148 29.5471 22.1528 30.3396 22.5917 31.3001L28.2611 25.6667C27.0667 24.1176 25.5311 22.8648 23.7736 22.0059C22.0162 21.1469 20.0873 20.7049 18.1312 20.7143Z" fill="#FBBC05"/>
</g>
</svg>
