<svg width="55" height="55" viewBox="0 0 55 55" fill="none" xmlns="http://www.w3.org/2000/svg">
<mask id="mask0_658_2551" style="mask-type:alpha" maskUnits="userSpaceOnUse" x="0" y="0" width="55" height="55">
<rect width="55" height="55" fill="#D9D9D9"/>
</mask>
<g mask="url(#mask0_658_2551)">
<g clip-path="url(#clip0_658_2551)">
<path d="M27.508 4.96286C31.1633 4.96286 34.6051 5.81685 37.8335 7.47107L38.2604 7.68452L37.8869 7.97801C36.9797 8.69839 36.2593 9.63222 35.8057 10.6995L35.6723 10.9929L35.4055 10.8595C32.9242 9.68558 30.2828 9.07192 27.5347 9.07192C17.3693 9.07192 9.12486 17.343 9.12486 27.4817C9.12486 37.6205 17.3426 45.8915 27.508 45.8915C37.6734 45.8915 45.9178 37.6205 45.9178 27.4817C45.9178 25.0538 45.4642 22.6792 44.5037 20.438L44.3703 20.1445L44.6638 20.0111C45.7577 19.6109 46.7182 18.9438 47.492 18.0901L47.7855 17.7165L47.9722 18.1434C49.333 21.105 50 24.2533 50 27.4284C50 39.835 39.8879 49.947 27.4813 49.947C15.0747 49.947 4.96265 39.835 4.96265 27.4284C4.96265 15.0218 15.0747 4.9097 27.508 4.96286ZM27.508 17.2363C33.1377 17.2363 37.7535 21.8254 37.7801 27.5084C37.7801 33.1914 33.191 37.7806 27.508 37.7806C21.825 37.7806 17.2359 33.1914 17.2359 27.5084C17.2359 21.8254 21.8516 17.2363 27.508 17.2363ZM42.2092 8.75175C44.8026 8.75175 46.905 10.8541 46.905 13.4476C46.905 16.041 44.8026 18.1434 42.2092 18.1434C39.6157 18.1434 37.5133 16.041 37.5133 13.4476C37.5133 10.8541 39.6157 8.75175 42.2092 8.75175Z" fill="#3880FF"/>
</g>
</g>
<defs>
<clipPath id="clip0_658_2551">
<rect width="45.0373" height="45.0373" fill="white" transform="translate(4.96265 4.96265)"/>
</clipPath>
</defs>
</svg>
