<svg width="62" height="62" viewBox="0 0 62 62" fill="none" xmlns="http://www.w3.org/2000/svg">
<g clip-path="url(#clip0_1457_32386)">
<path d="M36.5063 0.121094C36.058 0.121094 35.6417 0.217166 35.2574 0.345256C36.074 0.889649 36.5223 1.61018 36.7465 2.42676C36.7625 2.53884 36.7945 2.61891 36.8106 2.73098C36.8266 2.82705 36.8426 2.92312 36.8426 3.01919C36.9066 4.42821 36.4743 4.60434 36.1701 5.43694C35.7057 6.50972 35.8338 7.66256 36.3942 8.59123C36.4423 8.70331 36.5063 8.8314 36.5864 8.94348C35.9779 4.89255 39.3564 4.28411 39.9808 3.01919C40.0289 1.91439 39.1162 1.17786 38.3957 0.665487C37.7072 0.249187 37.0827 0.121094 36.5063 0.121094ZM41.598 1.03376C41.5339 1.40202 41.582 1.30595 41.566 1.49809C41.55 1.62618 41.55 1.7863 41.534 1.91439C41.502 2.04249 41.4699 2.17058 41.4219 2.29867C41.3899 2.42676 41.3419 2.55486 41.2938 2.68295C41.2298 2.81105 41.1817 2.92312 41.1177 3.05122C41.0697 3.11529 41.0376 3.17931 40.9896 3.24336C40.9576 3.29139 40.9255 3.33943 40.8935 3.38746C40.8135 3.49955 40.7334 3.61162 40.6534 3.70769C40.5573 3.80376 40.4772 3.91584 40.3651 3.9959C40.3651 4.01194 40.3651 4.01194 40.3651 4.01194C40.2691 4.09199 40.173 4.18806 40.0609 4.26812C39.7247 4.5243 39.3404 4.71644 38.9882 4.95662C38.8761 5.03667 38.764 5.10073 38.6679 5.19679C38.5558 5.27685 38.4598 5.3569 38.3637 5.45298C38.2516 5.54905 38.1716 5.64512 38.0755 5.7572C37.9954 5.85327 37.8994 5.96535 37.8353 6.07743C37.7553 6.18951 37.6752 6.30159 37.6112 6.41367C37.5471 6.54176 37.4991 6.65385 37.435 6.78194C37.387 6.91003 37.339 7.02211 37.3069 7.1502C37.2589 7.29431 37.2269 7.4224 37.1949 7.5505C37.1788 7.61457 37.1788 7.6946 37.1629 7.75865C37.1468 7.82272 37.1468 7.88674 37.1309 7.95079C37.1309 8.07888 37.1148 8.22298 37.1148 8.35107C37.1148 8.44715 37.1148 8.54322 37.1309 8.63929C37.1309 8.76738 37.1469 8.89547 37.1789 9.03957C37.1949 9.16766 37.2269 9.29576 37.259 9.42386C37.307 9.55195 37.339 9.68004 37.387 9.80813C37.4191 9.88819 37.4671 9.96825 37.4991 10.0323L33.8165 8.60726C33.192 8.43113 32.5836 8.27102 31.9591 8.12691C31.6229 8.04686 31.2866 7.9668 30.9504 7.88674C29.9897 7.6946 29.013 7.5505 28.0363 7.45443C28.0043 7.45443 27.9882 7.4384 27.9562 7.4384C26.9955 7.34233 26.0508 7.29429 25.0902 7.29429C24.3856 7.29429 23.6811 7.32629 22.9926 7.37435C22.0159 7.43842 21.0392 7.56649 20.0625 7.7266C19.8223 7.7586 19.5822 7.80667 19.342 7.8547C18.8456 7.95076 18.3653 8.06285 17.9009 8.17493C17.6608 8.239 17.4206 8.30302 17.1804 8.36707C16.9402 8.46314 16.7161 8.57522 16.4919 8.67129C16.3158 8.75135 16.1397 8.8314 15.9635 8.91147C15.9315 8.9275 15.8995 8.9275 15.8835 8.94347C15.7234 9.02352 15.5793 9.08756 15.4352 9.16763C15.3871 9.18366 15.3551 9.19962 15.3231 9.21566C15.1469 9.29572 14.9708 9.39179 14.8267 9.47184C14.7146 9.51988 14.6026 9.58393 14.5065 9.63196C14.4584 9.66396 14.3944 9.69603 14.3624 9.71202C14.2183 9.79208 14.0742 9.87213 13.9461 9.9522C13.802 10.0323 13.6739 10.1123 13.5618 10.1924C13.4497 10.2724 13.3376 10.3365 13.2416 10.4165C13.2255 10.4326 13.2096 10.4326 13.1935 10.4485C13.0975 10.5126 12.9854 10.5926 12.8893 10.6727C12.8893 10.6727 12.8733 10.6887 12.8573 10.7047C12.7773 10.7688 12.6972 10.8328 12.6171 10.8968C12.5851 10.9129 12.5531 10.9449 12.5211 10.9609C12.441 11.025 12.361 11.105 12.2809 11.169C12.2649 11.201 12.2329 11.2171 12.2168 11.2331C12.1208 11.3292 12.0247 11.4092 11.9286 11.5053C11.9126 11.5053 11.9126 11.5214 11.8966 11.5373C11.8005 11.6174 11.7045 11.7134 11.6084 11.8095C11.5924 11.8255 11.5924 11.8415 11.5764 11.8415C11.4964 11.9216 11.4163 12.0016 11.3362 12.0977C11.3042 12.1297 11.2562 12.1618 11.2242 12.1938C11.1441 12.2898 11.048 12.3859 10.952 12.482C10.9359 12.514 10.9039 12.53 10.8879 12.562C10.7598 12.6901 10.6477 12.8182 10.5196 12.9463C10.5036 12.9623 10.4876 12.9783 10.4716 12.9943C10.2154 13.2665 9.9432 13.5387 9.65499 13.7789C9.36678 14.0351 9.06257 14.2753 8.75834 14.4834C8.43811 14.7076 8.13389 14.8997 7.79765 15.0919C7.47741 15.268 7.14117 15.4281 6.78892 15.5722C6.45267 15.7163 6.10042 15.8444 5.74816 15.9565C5.07567 16.1006 4.38717 16.3728 3.79475 16.4208C3.66665 16.4208 3.52255 16.4528 3.39446 16.4689C3.25035 16.5009 3.12226 16.5329 2.99417 16.5649C2.86608 16.613 2.73798 16.661 2.60989 16.709C2.4818 16.7571 2.35371 16.8211 2.22561 16.8852C2.11353 16.9652 1.98544 17.0293 1.87335 17.1093C1.76128 17.1894 1.64919 17.2854 1.55312 17.3815C1.44105 17.4616 1.32896 17.5737 1.23289 17.6697C1.13682 17.7818 1.04075 17.8779 0.960694 17.99C0.880638 18.118 0.784568 18.2301 0.720519 18.3582C0.640463 18.4703 0.560407 18.5984 0.496357 18.7265C0.432285 18.8706 0.368266 18.9987 0.320231 19.1428C0.272196 19.2709 0.224161 19.415 0.176125 19.5591C0.144127 19.6872 0.112054 19.8153 0.0960695 19.9434C0.0960695 19.9594 0.0800332 19.9754 0.0800332 19.9914C0.0480348 20.1355 0.0480348 20.3277 0.0319979 20.4237C0.0159617 20.5358 0 20.6319 0 20.744C0 20.808 0 20.8881 0.0160362 20.9521C0.0320725 21.0642 0.0480341 21.1603 0.0801081 21.2563C0.112106 21.3524 0.14418 21.4485 0.192185 21.5445C0.192185 21.5606 0.192185 21.5606 0.192185 21.5606C0.24022 21.6566 0.30427 21.7527 0.368312 21.8488C0.432383 21.9449 0.49641 22.0409 0.576466 22.137C0.656522 22.2171 0.752593 22.3131 0.848663 22.3932C0.944733 22.4892 1.0408 22.5693 1.15288 22.6494C1.53716 22.9856 1.63323 23.0977 2.12959 23.3539C2.20965 23.4019 2.28971 23.4339 2.38578 23.482C2.40182 23.482 2.41778 23.498 2.43381 23.498C2.43381 23.53 2.43381 23.546 2.44985 23.5781C2.46589 23.7062 2.49789 23.8342 2.52991 23.9623C2.56191 24.1064 2.60997 24.2345 2.65801 24.3466C2.70604 24.4427 2.73806 24.5388 2.7861 24.6348C2.80214 24.6668 2.8181 24.6989 2.83414 24.7149C2.89821 24.843 2.96223 24.9551 3.02627 25.0671C3.10633 25.1792 3.18639 25.2913 3.26644 25.4034C3.3465 25.4995 3.44257 25.6115 3.53864 25.7076C3.63471 25.8037 3.73078 25.8837 3.84287 25.9798C3.84287 25.9798 3.8589 25.9959 3.87486 25.9959C3.97093 26.0759 4.067 26.156 4.16307 26.22C4.27515 26.3001 4.38724 26.3641 4.51533 26.4282C4.62741 26.4922 4.7555 26.5563 4.88359 26.6043C4.97966 26.6523 5.09174 26.6844 5.20383 26.7164C5.21986 26.7324 5.23582 26.7324 5.2679 26.7484C5.33197 26.7644 5.412 26.7804 5.47604 26.7964C5.42801 27.661 5.41197 28.4776 5.54012 28.7658C5.68421 29.0861 6.38873 28.1094 7.09324 26.9886C6.99717 28.0934 6.93312 29.3903 7.09324 29.7746C7.26937 30.1749 8.23006 28.926 9.06267 27.549C20.4149 24.9231 30.7744 32.7687 31.8632 43.8488C31.655 42.1195 29.5255 41.1588 28.5488 41.399C28.0684 42.5838 27.2518 44.1049 25.9389 45.0496C26.051 43.9929 26.003 42.9041 25.7788 41.8473C25.4265 43.3204 24.738 44.6974 23.7933 45.8822C22.2722 45.9943 20.7511 45.2578 19.9505 44.153C19.8865 44.1049 19.8705 44.0089 19.8225 43.9448C19.7744 43.8327 19.7264 43.7207 19.6944 43.6086C19.6463 43.4965 19.6143 43.3844 19.5983 43.2723C19.5823 43.1603 19.5823 43.0482 19.5823 42.9201C19.5823 42.84 19.5823 42.76 19.5823 42.6799C19.5983 42.5678 19.6303 42.4557 19.6623 42.3437C19.6943 42.2316 19.7264 42.1195 19.7744 42.0074C19.8385 41.8953 19.8865 41.7833 19.9665 41.6712C20.2387 40.9026 20.2387 40.2782 19.7424 39.9099C19.6463 39.8458 19.5502 39.7978 19.4381 39.7498C19.3741 39.7338 19.294 39.7018 19.23 39.6857C19.182 39.6697 19.1499 39.6537 19.1019 39.6377C18.9898 39.6057 18.8777 39.5736 18.7657 39.5576C18.6536 39.5256 18.5415 39.5096 18.4294 39.5096C18.3173 39.4935 18.1892 39.4776 18.0772 39.4776C17.9971 39.4776 17.917 39.4936 17.837 39.4936C17.7089 39.4936 17.5968 39.5097 17.4847 39.5417C17.3726 39.5577 17.2606 39.5737 17.1485 39.6057C17.0364 39.6377 16.9243 39.6698 16.8122 39.7178C16.7002 39.7659 16.6041 39.8139 16.492 39.8619C16.3959 39.91 16.2999 39.974 16.1878 40.022C12.4571 42.4558 14.6827 48.1559 17.2285 49.8051C16.2679 49.9812 15.2911 50.1894 15.019 50.3975C15.0029 50.4136 14.987 50.4295 14.987 50.4295C15.6755 50.8458 16.396 51.1981 17.1485 51.5023C18.1733 51.8386 19.262 52.1428 19.7424 52.2709V52.2869C21.0714 52.5591 22.4163 52.6552 23.7773 52.5751C30.8705 52.0788 36.6827 46.6828 37.7394 39.5737C37.7714 39.7178 37.8035 39.8459 37.8355 39.99C37.8835 40.2782 37.9476 40.5824 37.9796 40.8867C37.9796 40.8867 37.9796 40.8867 37.9796 40.9027C38.0116 41.0468 38.0276 41.1909 38.0437 41.319C38.0437 41.351 38.0437 41.367 38.0437 41.3831C38.0597 41.5272 38.0757 41.6713 38.0757 41.7994C38.0917 41.9755 38.1077 42.1516 38.1077 42.3278C38.1077 42.4078 38.1077 42.4879 38.1077 42.5839C38.1077 42.664 38.1237 42.7601 38.1237 42.8401C38.1237 42.9362 38.1077 43.0323 38.1077 43.1283C38.1077 43.2084 38.1077 43.2885 38.1077 43.3525C38.1077 43.4646 38.0916 43.5607 38.0916 43.6727C38.0916 43.7368 38.0916 43.8008 38.0756 43.8809C38.0756 43.993 38.0596 44.105 38.0596 44.2331C38.0435 44.2812 38.0435 44.3292 38.0435 44.3773C38.0275 44.5053 38.0115 44.6174 37.9955 44.7455C37.9955 44.7936 37.9955 44.8416 37.9794 44.8896C37.9634 45.0497 37.9314 45.1938 37.9154 45.354V45.37V45.386C37.8834 45.5301 37.8513 45.6903 37.8193 45.8344C37.8193 45.8504 37.8193 45.8664 37.8193 45.8824C37.7873 46.0265 37.7552 46.1706 37.7232 46.3147C37.7232 46.3308 37.7072 46.3628 37.7072 46.3788C37.6752 46.5229 37.6431 46.667 37.5951 46.8111C37.5951 46.8271 37.5951 46.8431 37.5951 46.8591C37.5471 47.0192 37.499 47.1634 37.467 47.3075C37.451 47.3235 37.451 47.3395 37.451 47.3395C37.4029 47.4996 37.3549 47.6597 37.3069 47.8198C37.2428 47.9799 37.1948 48.124 37.1308 48.2841C37.0667 48.4443 37.0187 48.6044 36.9546 48.7485C36.8906 48.9086 36.8265 49.0527 36.7625 49.2128H36.7464C36.6824 49.3569 36.6183 49.517 36.5383 49.6611C36.5222 49.7092 36.5063 49.7412 36.4902 49.7732C36.4742 49.7893 36.4742 49.8052 36.4582 49.8213C35.4175 51.9188 33.8804 53.7601 31.959 55.2012C31.8309 55.2812 31.7028 55.3773 31.5747 55.4733C31.5427 55.5053 31.4946 55.5214 31.4626 55.5534C31.3505 55.6335 31.2385 55.7135 31.1104 55.7936L31.1584 55.8896H31.1744C31.3986 55.8577 31.6228 55.8256 31.8469 55.7936H31.863C32.2793 55.7295 32.6956 55.6495 33.1119 55.5694C33.2239 55.5534 33.352 55.5214 33.4641 55.4894C33.5442 55.4733 33.6082 55.4574 33.6883 55.4413C33.8004 55.4253 33.9124 55.3933 34.0245 55.3772C34.1206 55.3453 34.2167 55.3292 34.3127 55.2972C35.9139 54.9129 37.467 54.3845 38.9561 53.7601C36.4103 57.2346 32.9998 60.0366 29.0129 61.878C30.8542 61.7499 32.6956 61.4456 34.4728 60.9333C40.9255 59.0279 46.3535 54.6887 49.6038 48.8445C48.9473 52.5432 47.4743 56.0657 45.2967 59.14C46.8498 58.1152 48.2748 56.9304 49.5718 55.5854C53.1584 51.8387 55.5121 47.0832 56.3127 41.9755C56.8571 44.5054 57.0172 47.1153 56.777 49.6931C68.3374 33.5695 57.7377 16.8533 53.3025 12.4502C53.2864 12.4182 53.2705 12.4021 53.2705 12.3701C53.2544 12.3861 53.2544 12.3861 53.2544 12.4021C53.2544 12.3861 53.2544 12.3861 53.2384 12.3701C53.2384 12.5622 53.2224 12.7544 53.2064 12.9465C53.1584 13.3148 53.1103 13.667 53.0463 14.0193C52.9662 14.3716 52.8702 14.7238 52.7741 15.0761C52.662 15.4123 52.5339 15.7646 52.3898 16.1008C52.2457 16.421 52.0856 16.7573 51.9095 17.0775C51.7333 17.3817 51.5412 17.702 51.333 17.9902C51.1249 18.2944 50.9007 18.5826 50.6766 18.8548C50.4364 19.143 50.1802 19.3992 49.924 19.6554C49.7639 19.7995 49.6198 19.9276 49.4597 20.0557C49.3316 20.1677 49.2195 20.2638 49.0914 20.3759C48.8032 20.6001 48.515 20.8082 48.1948 21.0004C47.8906 21.1925 47.5703 21.3846 47.2501 21.5447C46.9138 21.7049 46.5776 21.849 46.2414 21.9931C45.9051 22.1212 45.5529 22.2332 45.2006 22.3293C44.8483 22.4254 44.4801 22.5054 44.1278 22.5695C43.7596 22.6336 43.3913 22.6656 43.039 22.6976C42.7829 22.7136 42.5267 22.7296 42.2705 22.7296C41.9022 22.7296 41.534 22.6976 41.1817 22.6655C40.8134 22.6335 40.4452 22.5854 40.0929 22.5054C39.7246 22.4413 39.3724 22.3453 39.0201 22.2332H39.0041C39.3563 22.2012 39.7086 22.1691 40.0609 22.1051C40.4291 22.041 40.7814 21.961 41.1336 21.8649C41.4859 21.7689 41.8381 21.6568 42.1744 21.5287C42.5266 21.4006 42.8629 21.2405 43.1831 21.0804C43.5194 20.9202 43.8236 20.7441 44.1438 20.552C44.448 20.3438 44.7523 20.1357 45.0405 19.9115C45.3287 19.6873 45.6009 19.4472 45.8571 19.191C46.1293 18.9508 46.3694 18.6786 46.6096 18.4064C46.8498 18.1182 47.0739 17.83 47.2821 17.5418C47.3141 17.4938 47.3462 17.4297 47.3782 17.3817C47.5383 17.1255 47.6984 16.8693 47.8425 16.6131C48.0186 16.2929 48.1787 15.9727 48.3228 15.6364C48.4669 15.3002 48.595 14.9639 48.7071 14.6117C48.8192 14.2754 48.8993 13.9232 48.9793 13.5709C49.0434 13.2027 49.1074 12.8504 49.1394 12.4981C49.1714 12.1299 49.2035 11.7616 49.2035 11.4094C49.2035 11.1532 49.1874 10.897 49.1715 10.6408C49.1395 10.2725 49.0914 9.92028 49.0434 9.56802C48.9793 9.19976 48.8993 8.8475 48.8032 8.49524C48.6912 8.159 48.5791 7.80675 48.451 7.47051C48.3229 7.13426 48.1628 6.79802 48.0027 6.47778C47.8265 6.15755 47.6504 5.83732 47.4583 5.5331C47.2501 5.22889 47.042 4.94068 46.8178 4.65246C46.5776 4.38027 46.3375 4.10807 46.0813 3.83587C45.9532 3.70778 45.8091 3.56368 45.665 3.43559C44.9444 2.87518 44.1919 2.34679 43.4394 1.86645C43.3273 1.80238 43.2312 1.75436 43.1191 1.70633C42.5907 1.37009 42.0944 1.19387 41.598 1.03376Z" fill="#E0234E"/>
</g>
<defs>
<clipPath id="clip0_1457_32386">
<rect width="62" height="62" fill="white"/>
</clipPath>
</defs>
</svg>
