<svg width="55" height="55" viewBox="0 0 55 55" fill="none" xmlns="http://www.w3.org/2000/svg">
<mask id="mask0_658_2853" style="mask-type:alpha" maskUnits="userSpaceOnUse" x="0" y="0" width="55" height="55">
<rect width="55" height="55" fill="#D9D9D9"/>
</mask>
<g mask="url(#mask0_658_2853)">
<g clip-path="url(#clip0_658_2853)">
<path d="M27.3745 4.97559C15.9241 4.97559 16.639 9.94117 16.639 9.94117L16.6518 15.0857H27.5787V16.6302H12.3118C12.3118 16.6302 4.98462 15.7992 4.98462 27.3526C4.98462 38.9064 11.3799 38.4966 11.3799 38.4966H15.1966V33.1352C15.1966 33.1352 14.9909 26.7399 21.4898 26.7399H32.3274C32.3274 26.7399 38.4163 26.8383 38.4163 20.8552V10.9625C38.4163 10.9625 39.341 4.97559 27.3745 4.97559ZM21.3494 8.43516C21.6076 8.43493 21.8634 8.48561 22.102 8.58432C22.3406 8.68303 22.5573 8.82781 22.7399 9.01039C22.9225 9.19298 23.0673 9.40977 23.166 9.64837C23.2647 9.88697 23.3154 10.1427 23.3152 10.4009C23.3154 10.6591 23.2647 10.9148 23.166 11.1534C23.0673 11.392 22.9225 11.6088 22.7399 11.7914C22.5573 11.974 22.3406 12.1188 22.102 12.2175C21.8634 12.3162 21.6076 12.3669 21.3494 12.3667C21.0912 12.3669 20.8355 12.3162 20.5969 12.2175C20.3583 12.1188 20.1415 11.974 19.9589 11.7914C19.7763 11.6088 19.6315 11.392 19.5328 11.1534C19.4341 10.9148 19.3834 10.6591 19.3837 10.4009C19.3834 10.1427 19.4341 9.88697 19.5328 9.64837C19.6315 9.40977 19.7763 9.19298 19.9589 9.01039C20.1415 8.82781 20.3583 8.68303 20.5969 8.58432C20.8355 8.48561 21.0912 8.43493 21.3494 8.43516V8.43516Z" fill="#154F5B"/>
<path d="M27.7094 49.8458C39.1598 49.8458 38.4448 44.8802 38.4448 44.8802L38.4321 39.7359H27.505V38.1914H42.772C42.772 38.1914 50.0991 39.0224 50.0991 27.4686C50.0991 15.915 43.7038 16.3248 43.7038 16.3248H39.8871V21.686C39.8871 21.686 40.0929 28.0813 33.5939 28.0813H22.7563C22.7563 28.0813 16.6674 27.9829 16.6674 33.9662V43.859C16.6674 43.859 15.7429 49.8458 27.7092 49.8458H27.7094ZM33.7345 46.3866C33.4763 46.3868 33.2205 46.3361 32.9819 46.2374C32.7433 46.1387 32.5265 45.9939 32.344 45.8114C32.1614 45.6288 32.0166 45.412 31.9179 45.1734C31.8192 44.9348 31.7685 44.6791 31.7687 44.4208C31.7685 44.1626 31.8191 43.9069 31.9178 43.6683C32.0165 43.4296 32.1613 43.2128 32.3439 43.0302C32.5265 42.8476 32.7433 42.7028 32.9819 42.6041C33.2205 42.5054 33.4762 42.4547 33.7345 42.4549C33.9927 42.4547 34.2484 42.5054 34.487 42.6041C34.7256 42.7028 34.9424 42.8476 35.125 43.0302C35.3076 43.2127 35.4524 43.4295 35.5511 43.6681C35.6498 43.9067 35.7005 44.1625 35.7002 44.4207C35.7005 44.6789 35.6498 44.9346 35.5511 45.1732C35.4524 45.4118 35.3076 45.6286 35.125 45.8112C34.9424 45.9938 34.7256 46.1385 34.487 46.2373C34.2484 46.336 33.9927 46.3866 33.7345 46.3864V46.3866Z" fill="#154F5B"/>
</g>
</g>
<defs>
<clipPath id="clip0_658_2853">
<rect width="45.2182" height="45.0373" fill="white" transform="translate(4.96265 4.96265)"/>
</clipPath>
</defs>
</svg>
