<svg width="55" height="55" viewBox="0 0 55 55" fill="none" xmlns="http://www.w3.org/2000/svg">
<mask id="mask0_658_2900" style="mask-type:alpha" maskUnits="userSpaceOnUse" x="0" y="0" width="55" height="55">
<rect width="55" height="55" fill="#D9D9D9"/>
</mask>
<g mask="url(#mask0_658_2900)">
<path d="M27.52 46.4339C17.3857 46.4339 8.79162 37.8744 8.71264 27.6759C8.69501 25.2158 9.16589 22.7765 10.098 20.4997C11.0301 18.2229 12.4048 16.1537 14.1426 14.4121C15.8917 12.6206 17.9794 11.1945 20.2844 10.2166C22.5893 9.23866 25.0656 8.72846 27.5693 8.71558C30.0279 8.71339 32.4625 9.19772 34.733 10.1407C37.0035 11.0836 39.065 12.4665 40.7986 14.2097C42.5613 15.9279 43.9664 17.9779 44.9331 20.2417C45.8997 22.5054 46.4088 24.9381 46.431 27.3995C46.4534 32.4068 44.4931 37.2195 40.9784 40.7861C37.4636 44.3526 32.6801 46.3831 27.673 46.4339H27.52ZM27.5792 9.70285C25.2066 9.71675 22.8603 10.2017 20.6766 11.1296C18.4929 12.0575 16.5152 13.4098 14.8583 15.1081C13.2102 16.7558 11.9056 18.7142 11.0201 20.8699C10.1346 23.0256 9.68589 25.3356 9.6999 27.6661C9.77394 37.3314 17.9189 45.4368 27.515 45.4368H27.6434C32.3912 45.3938 36.9289 43.4728 40.2645 40.0937C43.6001 36.7147 45.4622 32.1525 45.4437 27.4044C45.4216 25.0726 44.9382 22.7681 44.0215 20.6239C43.1049 18.4796 41.773 16.5379 40.1026 14.9107C38.4636 13.2571 36.5127 11.9454 34.363 11.0514C32.2132 10.1574 29.9074 9.69906 27.5792 9.70285Z" fill="#F1592A"/>
<path d="M12.9453 33.0891V22.0713H15.6257V23.0586H14.2041V32.1216H15.6257V33.1089L12.9453 33.0891Z" fill="#F1592A"/>
<path d="M22.0473 27.4728C22.0473 29.4819 20.828 30.6271 19.1744 30.6271C17.5207 30.6271 16.4199 29.3388 16.4199 27.5765C16.4199 25.7353 17.575 24.437 19.2632 24.437C20.9515 24.437 22.0473 25.7896 22.0473 27.4728ZM17.575 27.5617C17.575 28.781 18.1871 29.7485 19.2386 29.7485C20.29 29.7485 20.8922 28.7612 20.8922 27.5173C20.8922 26.3869 20.3344 25.3206 19.2386 25.3206C18.1427 25.3206 17.5651 26.3523 17.5651 27.5864L17.575 27.5617Z" fill="#F1592A"/>
<path d="M22.9731 24.647C23.4981 24.5563 24.0299 24.5117 24.5626 24.5137C25.1611 24.4552 25.7626 24.5883 26.2805 24.8938C26.4746 25.0081 26.6347 25.1723 26.744 25.3694C26.8534 25.5664 26.9081 25.7891 26.9024 26.0143C26.8953 26.3071 26.7961 26.5901 26.6189 26.8232C26.4416 27.0563 26.1954 27.2275 25.9152 27.3126C26.2567 27.382 26.5636 27.5674 26.784 27.8373C27.0044 28.1072 27.1247 28.445 27.1246 28.7935C27.1283 29.0295 27.0782 29.2633 26.9782 29.4771C26.8781 29.691 26.7307 29.8792 26.547 30.0275C26.1225 30.4027 25.4166 30.5853 24.3257 30.5853C23.8769 30.5876 23.4284 30.5612 22.983 30.5064L22.9731 24.647ZM24.0591 27.0115H24.6169C25.3722 27.0115 25.7967 26.656 25.7967 26.1476C25.7967 25.6392 25.3722 25.3282 24.6762 25.3282C24.4679 25.3211 24.2594 25.336 24.0542 25.3726L24.0591 27.0115ZM24.0591 29.7659C24.251 29.7857 24.4438 29.794 24.6367 29.7906C25.3376 29.7906 25.9596 29.524 25.9596 28.8033C25.9596 28.0826 25.3574 27.8161 24.6021 27.8161H24.0591V29.7659Z" fill="#F1592A"/>
<path d="M29.2769 24.5637H30.3678V28.4585C30.3678 30.1121 29.5681 30.665 28.3933 30.665C28.0791 30.6624 27.7674 30.6091 27.4702 30.507L27.6035 29.6284C27.8226 29.6968 28.0503 29.7334 28.2798 29.737C28.9017 29.737 29.267 29.4507 29.267 28.414L29.2769 24.5637Z" fill="#F1592A"/>
<path d="M33.4685 27.8083V28.5636H31.1978V27.8083H33.4685Z" fill="#F1592A"/>
<path d="M38.7714 30.3765C38.2806 30.5722 37.7543 30.663 37.2263 30.6431C35.3258 30.6431 34.1707 29.4535 34.1707 27.632C34.1483 27.2076 34.2159 26.7832 34.3692 26.3868C34.5224 25.9904 34.7579 25.631 35.06 25.3321C35.3622 25.0332 35.7242 24.8017 36.1222 24.6527C36.5202 24.5037 36.9453 24.4407 37.3694 24.4678C37.8767 24.4468 38.3823 24.5378 38.8503 24.7343L38.6085 25.6031C38.2372 25.4451 37.8371 25.3661 37.4336 25.3711C36.2143 25.3711 35.3357 26.1363 35.3357 27.5777C35.3357 28.8907 36.1107 29.7398 37.4237 29.7398C37.8311 29.7456 38.2356 29.6701 38.6134 29.5176L38.7714 30.3765Z" fill="#F1592A"/>
<path d="M42.2017 22.042V33.0895H39.5212V32.1022H40.9429V23.0293H39.5212V22.042H42.2017Z" fill="#F1592A"/>
</g>
</svg>
