<svg width="55" height="55" viewBox="0 0 55 55" fill="none" xmlns="http://www.w3.org/2000/svg">
<mask id="mask0_658_2932" style="mask-type:alpha" maskUnits="userSpaceOnUse" x="0" y="0" width="55" height="55">
<rect width="55" height="55" fill="#D9D9D9"/>
</mask>
<g mask="url(#mask0_658_2932)">
<path d="M22.9047 26.1716C19.2977 24.0891 17.5391 19.8436 18.6171 15.8205C19.6951 11.7975 23.3408 9 27.5058 9C31.6708 9 35.3165 11.7975 36.3945 15.8205C37.4725 19.8436 35.7139 24.0891 32.1069 26.1716L29.3363 21.3727C30.7712 20.5442 31.4708 18.8552 31.042 17.2547C30.6131 15.6542 29.1628 14.5413 27.5058 14.5413C25.8489 14.5413 24.3985 15.6542 23.9696 17.2547C23.5408 18.8552 24.2404 20.5442 25.6753 21.3727L22.9047 26.1716Z" fill="#FF0101"/>
<path d="M42.6078 28.3992C46.2147 30.4817 47.9733 34.7272 46.8953 38.7503C45.8173 42.7733 42.1716 45.5708 38.0066 45.5708C33.8417 45.5708 30.1959 42.7733 29.118 38.7503C28.04 34.7272 29.7985 30.4817 33.4055 28.3992L36.1762 33.1981C34.7412 34.0266 34.0416 35.7156 34.4705 37.3161C34.8993 38.9166 36.3497 40.0295 38.0066 40.0295C39.6636 40.0295 41.114 38.9166 41.5428 37.3161C41.9717 35.7156 41.2721 34.0266 39.8371 33.1981L42.6078 28.3992Z" fill="#0101FF"/>
<path d="M26.4047 36.369C26.4047 40.5339 23.6072 44.1797 19.5842 45.2576C15.5611 46.3356 11.3156 44.5771 9.23308 40.9701C7.15059 37.3631 7.7504 32.8071 10.6955 29.862C13.6406 26.9169 18.1966 26.3171 21.8036 28.3996L19.0329 33.1985C17.598 32.37 15.7854 32.6087 14.6138 33.7803C13.4421 34.9519 13.2035 36.7645 14.032 38.1994C14.8605 39.6344 16.5495 40.334 18.15 39.9051C19.7505 39.4763 20.8634 38.0259 20.8634 36.369H26.4047Z" fill="#01FF01"/>
</g>
</svg>
