<svg width="55" height="55" viewBox="0 0 55 55" fill="none" xmlns="http://www.w3.org/2000/svg">
<mask id="mask0_658_2979" style="mask-type:alpha" maskUnits="userSpaceOnUse" x="0" y="0" width="55" height="55">
<rect width="55" height="55" fill="#D9D9D9"/>
</mask>
<g mask="url(#mask0_658_2979)">
<g clip-path="url(#clip0_658_2979)">
<path d="M38.1404 32.9499L39.4414 29.6598H43.1981L41.4153 24.6689L43.645 19.0303L50.0314 35.9869H45.3217L44.2303 32.9499H38.1404Z" fill="#3D3D3D"/>
<path d="M34.1283 35.987L40.9651 19.0303L36.4326 19.0303L31.7558 29.9881L28.4301 19.0303H24.9462L21.3753 29.9881L18.8571 24.9948L16.5781 32.0158L18.8919 35.987H23.3525L26.5794 26.1602L29.656 35.987H34.1283Z" fill="#5A0FC8"/>
<path d="M9.30245 30.166H12.0943C12.94 30.166 13.693 30.0716 14.3535 29.8828L15.0755 27.6585L17.0934 21.4417C16.9396 21.198 16.7641 20.9676 16.5668 20.7505C15.5307 19.6037 14.0148 19.0303 12.0191 19.0303H5V35.9869H9.30245V30.166ZM12.9979 22.9313C13.4026 23.3386 13.6049 23.8837 13.6049 24.5665C13.6049 25.2546 13.4269 25.8003 13.071 26.2036C12.6809 26.6518 11.9625 26.8759 10.9159 26.8759H9.30245V22.3203H10.9277C11.9031 22.3203 12.5932 22.524 12.9979 22.9313Z" fill="#3D3D3D"/>
</g>
</g>
<defs>
<clipPath id="clip0_658_2979">
<rect width="45.0373" height="45.0373" fill="white" transform="translate(5 5)"/>
</clipPath>
</defs>
</svg>
