<svg width="55" height="55" viewBox="0 0 55 55" fill="none" xmlns="http://www.w3.org/2000/svg">
<mask id="mask0_658_3059" style="mask-type:alpha" maskUnits="userSpaceOnUse" x="0" y="0" width="55" height="55">
<rect width="55" height="55" fill="#D9D9D9"/>
</mask>
<g mask="url(#mask0_658_3059)">
<path d="M40.7122 18.0908C48.0187 25.3973 48.0187 37.1182 40.7122 44.4754C33.558 51.7819 21.7864 51.7819 14.4799 44.4754C7.17338 37.1689 7.17338 25.3973 14.4799 18.0908L27.5707 5V11.5454L26.3529 12.7632L17.6765 21.4396C12.1966 26.818 12.1966 35.6467 17.6765 41.1266C23.0549 46.6065 31.8836 46.6065 37.3634 41.1266C42.8433 35.7482 42.8433 26.9195 37.3634 21.4396L40.7122 18.0908ZM34.1668 17.279C32.8217 17.279 31.7313 16.1886 31.7313 14.8435C31.7313 13.4984 32.8217 12.408 34.1668 12.408C35.5119 12.408 36.6023 13.4984 36.6023 14.8435C36.6023 16.1886 35.5119 17.279 34.1668 17.279Z" fill="#EE4C2C"/>
</g>
</svg>
