<svg width="62" height="62" viewBox="0 0 62 62" fill="none" xmlns="http://www.w3.org/2000/svg">
<rect width="62" height="62" rx="10.4568" fill="#CC0000"/>
<g clip-path="url(#clip0_1457_32351)">
<path d="M9.44531 45.9551H26.1426C26.1426 45.9551 22.9511 31.3925 33.519 25.4956C35.8228 24.3754 43.1569 20.1905 55.1621 29.0676C55.5425 28.7506 55.9018 28.4969 55.9018 28.4969C55.9018 28.4969 44.9112 17.5274 32.6736 18.7533C26.5231 19.3028 18.9564 24.9038 14.5179 32.3014C10.0794 39.6989 9.44531 45.9551 9.44531 45.9551Z" fill="white"/>
<path d="M9.44531 45.9551H26.1426C26.1426 45.9551 22.9511 31.3925 33.519 25.4956C35.8228 24.3754 43.1569 20.1905 55.1621 29.0676C55.5425 28.7506 55.9018 28.4969 55.9018 28.4969C55.9018 28.4969 44.9112 17.5274 32.6736 18.7533C26.5231 19.3028 18.9564 24.9038 14.5179 32.3014C10.0794 39.6989 9.44531 45.9551 9.44531 45.9551Z" fill="white"/>
<path d="M9.44531 45.9553H26.1426C26.1426 45.9553 22.9511 31.3927 33.519 25.4958C35.8228 24.3756 43.1569 20.1907 55.1621 29.0678C55.5425 28.7507 55.9018 28.4971 55.9018 28.4971C55.9018 28.4971 44.9112 17.5276 32.6736 18.7535C26.5019 19.303 18.9353 24.904 14.4968 32.3016C10.0583 39.6991 9.44531 45.9553 9.44531 45.9553ZM44.2349 19.9371L44.3194 18.521C44.1292 18.4153 43.6008 18.1617 42.2692 17.7812L42.1847 19.1762C42.8822 19.4087 43.5585 19.6623 44.2349 19.9371Z" fill="white"/>
<path d="M42.2231 24.4178L42.1385 25.7494C42.836 25.7705 43.5335 25.8551 44.231 26.003L44.3155 24.6926C43.5969 24.5447 42.8994 24.4601 42.2231 24.4178ZM34.4028 17.8235H34.6142L34.1915 16.5342C33.5363 16.5342 32.8599 16.5765 32.1624 16.661L32.564 17.908C33.1769 17.8446 33.7899 17.8235 34.4028 17.8235ZM35.4173 25.6015L35.9035 27.0598C36.5164 26.7639 37.1293 26.5103 37.7423 26.3201L37.2773 24.9251C36.5587 25.1365 35.9457 25.369 35.4173 25.6015ZM25.8217 20.0427L24.8706 18.5844C24.3422 18.8591 23.7926 19.155 23.222 19.4932L24.1942 20.9727C24.7438 20.6345 25.2722 20.3175 25.8217 20.0427ZM30.1545 29.5539L31.169 31.0756C31.5284 30.5472 31.9511 30.0611 32.4161 29.575L31.4649 28.1378C30.9788 28.5816 30.535 29.0677 30.1545 29.5539ZM27.0898 36.3596L28.8018 37.7123C28.8864 36.888 29.0343 36.0637 29.2457 35.2394L27.7239 34.0346C27.4491 34.8167 27.2589 35.5987 27.0898 36.3596ZM17.8323 26.3201L16.3317 25.0096C15.7822 25.538 15.2538 26.0664 14.7676 26.5948L16.3951 27.9898C16.839 27.4191 17.3251 26.8485 17.8323 26.3201ZM11.4493 35.7678L9.01871 34.8801C8.61712 35.7889 8.17327 36.8457 7.96191 37.4164L10.3925 38.3041C10.6673 37.5855 11.1112 36.5498 11.4493 35.7678ZM26.7728 41.7281C26.8151 42.8483 26.9207 43.7571 27.0264 44.3912L29.5627 45.3C29.3725 44.4757 29.1823 43.5458 29.0555 42.5524L26.7728 41.7281Z" fill="white"/>
</g>
<defs>
<clipPath id="clip0_1457_32351">
<rect width="50.2066" height="29.4211" fill="white" transform="translate(7.96191 16.5342)"/>
</clipPath>
</defs>
</svg>
