<svg width="62" height="62" viewBox="0 0 62 62" fill="none" xmlns="http://www.w3.org/2000/svg">
<g clip-path="url(#clip0_1457_32384)">
<path d="M61.1987 30.2479L58.6283 28.6566C58.6069 28.4066 58.5828 28.1568 58.556 27.9074L60.7647 25.8485C60.8738 25.7451 60.9548 25.6158 61.0003 25.4726C61.0457 25.3294 61.0542 25.177 61.0247 25.0296C60.9953 24.8823 60.929 24.7448 60.8321 24.63C60.7351 24.5153 60.6106 24.427 60.4702 24.3734L57.6467 23.3168C57.5769 23.0727 57.5028 22.8298 57.4245 22.5883L59.1863 20.1419C59.2747 20.0196 59.3302 19.8768 59.3478 19.727C59.3653 19.5772 59.3442 19.4254 59.2864 19.2861C59.2287 19.1468 59.1362 19.0245 59.0178 18.9311C58.8995 18.8376 58.7592 18.7759 58.6102 18.7521L55.6342 18.269C55.5181 18.0441 55.3984 17.821 55.2752 17.5999L56.5255 14.8538C56.6547 14.5748 56.6262 14.2493 56.4557 13.9961C56.2852 13.743 55.9959 13.5931 55.6885 13.6035L52.666 13.7094C52.5109 13.513 52.3516 13.3201 52.1881 13.1307L52.883 10.1883C52.9172 10.0416 52.9135 9.88854 52.8722 9.74366C52.8308 9.59878 52.7532 9.46683 52.6467 9.36029C52.5401 9.25375 52.4082 9.17614 52.2633 9.13479C52.1184 9.09344 51.9654 9.08971 51.8187 9.12397L48.8762 9.81888C48.6842 9.65755 48.4904 9.49823 48.295 9.34097L48.4009 6.31847C48.4081 6.16724 48.3761 6.01672 48.308 5.88152C48.2399 5.74631 48.138 5.631 48.0122 5.54678C47.8864 5.46256 47.7409 5.41229 47.59 5.40085C47.439 5.3894 47.2876 5.41718 47.1506 5.48147L44.4045 6.73438C44.1823 6.61297 43.9602 6.49155 43.7354 6.3753L43.2497 3.39672C43.2245 3.24855 43.1622 3.1092 43.0685 2.99169C42.9748 2.87418 42.8528 2.78236 42.7139 2.72481C42.5751 2.66726 42.4239 2.64586 42.2746 2.66262C42.1252 2.67938 41.9825 2.73375 41.8599 2.82063L39.4109 4.58247C39.1694 4.50501 38.9265 4.43181 38.6824 4.36288L37.6258 1.5393C37.5722 1.39893 37.4839 1.27445 37.3692 1.17747C37.2544 1.0805 37.1169 1.01421 36.9696 0.98479C36.8223 0.955373 36.6699 0.963794 36.5267 1.00927C36.3835 1.05474 36.2541 1.13577 36.1507 1.2448L34.0918 3.45613C33.8425 3.42806 33.5927 3.40395 33.3427 3.3838L31.7513 0.813383C31.6722 0.685188 31.5616 0.579363 31.43 0.505968C31.2984 0.432572 31.1502 0.394043 30.9996 0.394043C30.8489 0.394043 30.7008 0.432572 30.5692 0.505968C30.4376 0.579363 30.327 0.685188 30.2478 0.813383L28.6565 3.3838C28.4059 3.40447 28.1553 3.4303 27.9073 3.45613L25.8458 1.2448C25.7431 1.13442 25.6139 1.05217 25.4704 1.00587C25.3269 0.959565 25.1739 0.950754 25.0261 0.980273C24.8782 1.00979 24.7404 1.07666 24.6257 1.17451C24.511 1.27236 24.4232 1.39794 24.3707 1.5393L23.3142 4.36288C23.0687 4.43263 22.8285 4.50755 22.5857 4.58247L20.1392 2.82063C20.0166 2.73375 19.8739 2.67938 19.7246 2.66262C19.5752 2.64586 19.4241 2.66726 19.2852 2.72481C19.1464 2.78236 19.0244 2.87418 18.9307 2.99169C18.837 3.1092 18.7746 3.24855 18.7494 3.39672L18.2637 6.3753C18.0388 6.49144 17.8158 6.61115 17.5947 6.73438L14.8486 5.48147C14.7114 5.41873 14.5604 5.39215 14.4101 5.40428C14.2597 5.41641 14.115 5.46683 13.9896 5.55074C13.8643 5.63465 13.7625 5.74926 13.694 5.88365C13.6255 6.01804 13.5925 6.16773 13.5982 6.31847L13.7042 9.34097C13.5078 9.49597 13.3141 9.65613 13.1229 9.81888L10.1805 9.12397C10.0338 9.08971 9.88073 9.09344 9.73585 9.13479C9.59097 9.17614 9.45902 9.25375 9.35248 9.36029C9.24594 9.46683 9.16833 9.59878 9.12698 9.74366C9.08563 9.88854 9.0819 10.0416 9.11616 10.1883L9.80849 13.1307C9.64832 13.3219 9.48816 13.5156 9.33316 13.7094L6.31066 13.6035C6.15992 13.5977 6.01023 13.6307 5.87584 13.6992C5.74145 13.7677 5.62684 13.8695 5.54293 13.9949C5.45902 14.1202 5.4086 14.265 5.39647 14.4153C5.38435 14.5657 5.41092 14.7166 5.47366 14.8538L6.72657 17.5999C6.60327 17.821 6.48356 18.044 6.36749 18.269L3.39149 18.7521C3.24332 18.7773 3.10397 18.8396 2.98646 18.9333C2.86895 19.027 2.77713 19.149 2.71958 19.2879C2.66203 19.4267 2.64064 19.5779 2.6574 19.7272C2.67415 19.8766 2.72852 20.0192 2.81541 20.1419L4.57724 22.5883C4.49974 22.8311 4.42741 23.0714 4.35507 23.3168L1.53149 24.3734C1.39113 24.427 1.26664 24.5153 1.16966 24.63C1.07269 24.7448 1.0064 24.8823 0.976981 25.0296C0.947565 25.177 0.955986 25.3294 1.00146 25.4726C1.04693 25.6158 1.12796 25.7451 1.23699 25.8485L3.44574 27.9074C3.41767 28.1567 3.39355 28.4065 3.37341 28.6566L0.802991 30.2479C0.673573 30.3261 0.566535 30.4364 0.492239 30.5681C0.417944 30.6998 0.378906 30.8484 0.378906 30.9996C0.378906 31.1508 0.417944 31.2995 0.492239 31.4312C0.566535 31.5629 0.673573 31.6732 0.802991 31.7514L3.37341 33.3427C3.39407 33.5933 3.41991 33.8439 3.44574 34.0919L1.23699 36.1534C1.12661 36.2561 1.04436 36.3854 0.998059 36.5288C0.951756 36.6723 0.942945 36.8253 0.972465 36.9731C1.00198 37.121 1.06885 37.2588 1.1667 37.3735C1.26456 37.4883 1.39014 37.576 1.53149 37.6285L4.35507 38.6851C4.42482 38.9305 4.49974 39.1733 4.57724 39.4136L2.81541 41.86C2.72629 41.9822 2.67014 42.1253 2.65237 42.2755C2.63459 42.4257 2.6558 42.578 2.71394 42.7176C2.77208 42.8572 2.86519 42.9796 2.98431 43.0728C3.10344 43.166 3.24455 43.2269 3.39407 43.2498L6.37007 43.7329C6.48632 43.9576 6.60516 44.1798 6.72916 44.402L5.47624 47.148C5.4135 47.2852 5.38693 47.4362 5.39905 47.5865C5.41118 47.7369 5.4616 47.8816 5.54551 48.007C5.62943 48.1323 5.74404 48.2341 5.87842 48.3026C6.01281 48.3711 6.16251 48.4041 6.31324 48.3984L9.33316 48.2925C9.49074 48.4888 9.64832 48.6826 9.81107 48.8737L9.11874 51.8187C9.08427 51.9654 9.08786 52.1184 9.12918 52.2633C9.1705 52.4081 9.24818 52.54 9.35482 52.6464C9.46147 52.7528 9.59356 52.8301 9.73852 52.8711C9.88348 52.9121 10.0365 52.9153 10.1831 52.8805L13.1255 52.1881C13.3167 52.3509 13.5104 52.5085 13.7067 52.6635L13.6008 55.686C13.5941 55.837 13.6264 55.9872 13.6947 56.122C13.763 56.2569 13.865 56.3718 13.9907 56.4557C14.1165 56.5396 14.2617 56.5897 14.4125 56.601C14.5632 56.6123 14.7143 56.5846 14.8512 56.5204L17.5972 55.2701C17.8194 55.3941 18.0416 55.5129 18.2663 55.6291L18.752 58.6051C18.7768 58.7535 18.8389 58.8932 18.9325 59.011C19.026 59.1288 19.148 59.221 19.2869 59.2788C19.4258 59.3366 19.5771 59.3583 19.7266 59.3416C19.8761 59.325 20.019 59.2707 20.1418 59.1838L22.5882 57.422C22.8311 57.4995 23.0713 57.5744 23.3167 57.6441L24.3733 60.4677C24.4252 60.6096 24.5127 60.7357 24.6274 60.834C24.742 60.9323 24.8801 60.9995 25.0282 61.0291C25.1763 61.0586 25.3296 61.0496 25.4732 61.0029C25.6168 60.9562 25.746 60.8733 25.8484 60.7622L27.9099 58.5535C28.1579 58.5819 28.4085 58.6051 28.6591 58.6284L30.2504 61.1988C30.33 61.3264 30.4408 61.4316 30.5723 61.5046C30.7038 61.5775 30.8518 61.6158 31.0022 61.6158C31.1526 61.6158 31.3005 61.5775 31.432 61.5046C31.5635 61.4316 31.6743 61.3264 31.7539 61.1988L33.3452 58.6284C33.5958 58.6051 33.8464 58.5819 34.0944 58.5535L36.1533 60.7622C36.2567 60.8712 36.386 60.9523 36.5292 60.9978C36.6724 61.0432 36.8248 61.0516 36.9722 61.0222C37.1195 60.9928 37.257 60.9265 37.3718 60.8295C37.4865 60.7326 37.5748 60.6081 37.6284 60.4677L38.685 57.6441C38.9304 57.5744 39.1732 57.4995 39.4135 57.422L41.8599 59.1838C41.9821 59.2729 42.1252 59.3291 42.2754 59.3468C42.4256 59.3646 42.5779 59.3434 42.7175 59.2853C42.8572 59.2271 42.9795 59.134 43.0727 59.0149C43.1659 58.8958 43.2269 58.7547 43.2497 58.6051L43.7354 55.6291C43.9602 55.5129 44.1823 55.3915 44.4045 55.2701L47.1506 56.5204C47.2876 56.5823 47.4381 56.6082 47.588 56.5959C47.7378 56.5836 47.882 56.5333 48.0071 56.4498C48.1321 56.3664 48.2339 56.2525 48.3028 56.1188C48.3717 55.9852 48.4055 55.8362 48.4009 55.686L48.295 52.6635C48.4913 52.5085 48.6851 52.3509 48.8737 52.1881L51.8161 52.8805C51.9625 52.9145 52.1153 52.9108 52.2599 52.8696C52.4045 52.8283 52.5362 52.751 52.6427 52.6448C52.7491 52.5386 52.8268 52.407 52.8684 52.2625C52.91 52.118 52.9141 51.9653 52.8804 51.8187L52.1881 48.8737C52.3482 48.6826 52.5084 48.4888 52.6634 48.2925L55.6859 48.3984C55.8371 48.4056 55.9876 48.3736 56.1229 48.3055C56.2581 48.2374 56.3734 48.1355 56.4576 48.0096C56.5418 47.8838 56.5921 47.7384 56.6035 47.5874C56.615 47.4365 56.5872 47.2851 56.5229 47.148L55.2726 44.402C55.394 44.1798 55.5154 43.9576 55.6317 43.7329L58.6077 43.2498C58.7558 43.2246 58.8952 43.1622 59.0127 43.0685C59.1302 42.9748 59.222 42.8528 59.2796 42.714C59.3371 42.5752 59.3585 42.424 59.3418 42.2746C59.325 42.1253 59.2706 41.9826 59.1837 41.86L57.4219 39.4136L57.6441 38.6851L60.4677 37.6285C60.609 37.576 60.7346 37.4883 60.8324 37.3735C60.9303 37.2588 60.9972 37.121 61.0267 36.9731C61.0562 36.8253 61.0474 36.6723 61.0011 36.5288C60.9548 36.3854 60.8725 36.2561 60.7622 36.1534L58.5534 34.0919C58.5792 33.8439 58.6051 33.5933 58.6257 33.3427L61.1962 31.7514C61.3256 31.6732 61.4326 31.5629 61.5069 31.4312C61.5812 31.2995 61.6202 31.1508 61.6202 30.9996C61.6202 30.8484 61.5812 30.6998 61.5069 30.5681C61.4326 30.4364 61.3282 30.3261 61.1987 30.2479ZM43.9963 51.5681C43.7624 51.5181 43.5406 51.4225 43.3437 51.2867C43.1467 51.151 42.9784 50.9778 42.8484 50.777C42.5858 50.3715 42.4951 49.8783 42.5962 49.4059C42.6462 49.172 42.7418 48.9502 42.8776 48.7533C43.0133 48.5563 43.1865 48.388 43.3873 48.258C43.7928 47.9954 44.286 47.9047 44.7584 48.0057C44.9923 48.0559 45.214 48.1517 45.4109 48.2876C45.6078 48.4235 45.776 48.5969 45.9059 48.7978C46.0358 48.9987 46.1249 49.2232 46.168 49.4585C46.2111 49.6938 46.2075 49.9353 46.1573 50.1693C46.1071 50.4032 46.0113 50.6249 45.8754 50.8218C45.7395 51.0187 45.5661 51.1869 45.3652 51.3168C45.1643 51.4467 44.9398 51.5357 44.7045 51.5789C44.4692 51.622 44.2302 51.6183 43.9963 51.5681ZM43.1232 45.6626C42.9101 45.6168 42.6901 45.6134 42.4757 45.6528C42.2613 45.6921 42.0568 45.7734 41.8739 45.892C41.6911 46.0106 41.5334 46.1641 41.4099 46.3437C41.2865 46.5233 41.1998 46.7256 41.1547 46.9388L40.2427 51.1961C37.4269 52.4749 34.3011 53.1853 31.0073 53.1853C27.7503 53.19 24.5318 52.4811 21.5782 51.1083L20.6662 46.851C20.6212 46.6378 20.5344 46.4356 20.4109 46.2561C20.2875 46.0766 20.1297 45.9233 19.9468 45.8049C19.7638 45.6865 19.5593 45.6055 19.345 45.5665C19.1306 45.5274 18.9107 45.5311 18.6977 45.5774L14.939 46.3834C14.2406 45.6642 13.5915 44.8987 12.9963 44.092H31.2863C31.493 44.092 31.6325 44.0558 31.6325 43.8672V37.396C31.6325 37.2074 31.4956 37.1712 31.2863 37.1712H25.9362V33.0689H31.7229C32.2499 33.0689 34.5465 33.2187 35.2802 36.1534C35.5101 37.055 36.0138 39.9922 36.36 40.9326C36.7036 41.9866 38.1037 44.092 39.5969 44.092H48.7109C48.8219 44.0904 48.9325 44.0792 49.0416 44.0584C48.4096 44.9169 47.7173 45.7293 46.9697 46.4893L43.1232 45.6626ZM17.8246 51.4803C17.5907 51.5305 17.3492 51.5342 17.1138 51.491C16.8785 51.4479 16.654 51.3588 16.4531 51.2289C16.2522 51.099 16.0788 50.9309 15.9429 50.734C15.807 50.5371 15.7112 50.3153 15.661 50.0814C15.6108 49.8475 15.6072 49.606 15.6503 49.3707C15.6934 49.1354 15.7825 48.9108 15.9124 48.7099C16.0423 48.509 16.2105 48.3357 16.4074 48.1998C16.6043 48.0639 16.826 47.9681 17.0599 47.9179C17.5323 47.8165 18.0257 47.9069 18.4314 48.1692C18.8371 48.4316 19.122 48.8444 19.2234 49.3168C19.3249 49.7892 19.2344 50.2825 18.9721 50.6882C18.7098 51.094 18.297 51.3789 17.8246 51.4803ZM10.8857 23.3426C10.9917 23.5624 11.0525 23.8012 11.0644 24.0449C11.0763 24.2886 11.0392 24.5323 10.9551 24.7613C10.8711 24.9904 10.7418 25.2002 10.5751 25.3784C10.4084 25.5565 10.2076 25.6994 9.98456 25.7984C9.76156 25.8974 9.52094 25.9506 9.27697 25.9549C9.03301 25.9591 8.79069 25.9143 8.56439 25.823C8.33809 25.7318 8.13243 25.596 7.95962 25.4238C7.7868 25.2515 7.65037 25.0463 7.55841 24.8203C7.3801 24.3821 7.37931 23.8917 7.5562 23.4529C7.73309 23.0141 8.07378 22.6614 8.50616 22.4694C8.93853 22.2774 9.42865 22.2611 9.87279 22.4241C10.3169 22.5871 10.6802 22.9165 10.8857 23.3426ZM8.75449 28.3982L12.6708 26.6571C12.8701 26.5686 13.0499 26.4418 13.2001 26.2838C13.3502 26.1258 13.4678 25.9398 13.546 25.7363C13.6242 25.5328 13.6616 25.316 13.6559 25.0981C13.6502 24.8801 13.6017 24.6655 13.513 24.4664L12.707 22.6426H15.8793V36.9387H9.48041C8.69129 34.1642 8.44568 31.2633 8.75707 28.3956L8.75449 28.3982ZM25.9388 27.011V22.7976H33.4925C33.8826 22.7976 36.2463 23.2496 36.2463 25.0166C36.2463 26.484 34.4328 27.011 32.9422 27.011H25.9388ZM53.3893 30.8033C53.3893 31.3613 53.3687 31.9167 53.3273 32.4644H51.0307C50.8008 32.4644 50.7078 32.6142 50.7078 32.8416V33.8956C50.7078 36.3781 49.3077 36.9181 48.0806 37.055C46.9129 37.1867 45.6187 36.5667 45.4585 35.8511C44.7687 31.9761 43.6217 31.1469 41.8082 29.7183C44.0583 28.2897 46.3988 26.1817 46.3988 23.3607C46.3988 20.315 44.3089 18.3956 42.8855 17.4526C40.8886 16.1351 38.6772 15.8716 38.0805 15.8716H14.3319C17.614 12.2017 22.0154 9.71726 26.8533 8.80363L29.6537 11.7409C29.8037 11.8988 29.9834 12.0254 30.1825 12.1136C30.3816 12.2019 30.5962 12.2499 30.8139 12.2549C31.0316 12.2599 31.2482 12.2219 31.4512 12.143C31.6542 12.0641 31.8396 11.9459 31.9967 11.7951L35.1277 8.79847C38.3202 9.39722 41.3442 10.6833 43.99 12.5676C46.6357 14.4519 48.8399 16.8892 50.4495 19.7105L48.3053 24.5542C48.1276 24.9565 48.1165 25.4128 48.2743 25.8234C48.4321 26.2339 48.7461 26.5652 49.1475 26.7449L53.2757 28.5791C53.348 29.3127 53.3842 30.0516 53.3842 30.8033H53.3893ZM29.6562 6.30813C29.8291 6.14326 30.0327 6.01404 30.2555 5.92787C30.4783 5.84169 30.7159 5.80023 30.9547 5.80587C31.1935 5.81151 31.4288 5.86413 31.6473 5.96072C31.8658 6.05732 32.0631 6.19599 32.2279 6.36884C32.3928 6.54169 32.522 6.74532 32.6082 6.9681C32.6944 7.19089 32.7358 7.42846 32.7302 7.66727C32.7246 7.90607 32.672 8.14143 32.5754 8.3599C32.4788 8.57837 32.3401 8.77568 32.1672 8.94055C31.8134 9.2458 31.3558 9.40338 30.8891 9.38069C30.4224 9.358 29.9822 9.15678 29.6597 8.81865C29.3372 8.48053 29.1569 8.03137 29.1563 7.56408C29.1556 7.0968 29.3346 6.64714 29.6562 6.30813ZM50.9352 23.4305C51.3407 22.5108 52.4154 22.0975 53.3325 22.5056C53.6622 22.6511 53.9413 22.8912 54.1345 23.1953C54.3278 23.4995 54.4264 23.8542 54.418 24.2145C54.4095 24.5748 54.2944 24.9244 54.0872 25.2193C53.8799 25.5141 53.5899 25.7408 53.2537 25.8707C52.9176 26.0006 52.5504 26.0278 52.1988 25.949C51.8471 25.8702 51.5268 25.6888 51.2783 25.4278C51.0298 25.1668 50.8643 24.838 50.8027 24.4829C50.7412 24.1278 50.7864 23.7624 50.9326 23.4331L50.9352 23.4305Z" fill="#212529"/>
</g>
<defs>
<clipPath id="clip0_1457_32384">
<rect width="62" height="62" fill="white"/>
</clipPath>
</defs>
</svg>
