<svg width="55" height="55" viewBox="0 0 55 55" fill="none" xmlns="http://www.w3.org/2000/svg">
<mask id="mask0_658_3146" style="mask-type:alpha" maskUnits="userSpaceOnUse" x="0" y="0" width="55" height="55">
<rect width="55" height="55" fill="#D9D9D9"/>
</mask>
<g mask="url(#mask0_658_3146)">
<path d="M37.187 32.3725C42.3127 27.21 43.1645 19.6982 39.0896 15.5941C35.0153 11.4904 27.5579 12.3483 22.4325 17.5105C17.3072 22.6728 18.7898 32.5356 20.5302 34.2889C21.9366 35.7055 32.062 37.5347 37.187 32.3725Z" fill="#F89939"/>
<path d="M16.1598 24.9127C13.1864 21.9177 8.85901 21.4191 6.49436 23.8007C4.13032 26.1821 4.62459 30.5414 7.59867 33.5359C10.5728 36.5319 16.2544 35.6653 17.2635 34.6479C18.0802 33.8268 19.1342 27.9081 16.1598 24.9127Z" fill="#3499CD"/>
<path d="M29.5513 32.447C29.026 32.934 28.5652 33.2935 28.1691 33.5244C27.7731 33.7561 27.3954 33.8718 27.0359 33.8718C26.6225 33.8718 26.2889 33.7104 26.036 33.3874C25.7827 33.0641 25.6565 32.6305 25.6565 32.0851C25.6565 31.2679 25.8323 30.2869 26.1841 29.143C26.5352 27.9982 26.9627 26.9434 27.4648 25.9783L28.9372 25.4292C28.9833 25.4137 29.0185 25.4058 29.0418 25.4058C29.1534 25.4058 29.2458 25.4887 29.3166 25.6538C29.3882 25.8196 29.4242 26.0425 29.4242 26.3227C29.4242 27.1167 29.2427 27.8854 28.8791 28.6288C28.5156 29.3726 27.9477 30.1663 27.175 31.0109C27.144 31.4158 27.1286 31.6938 27.1286 31.8458C27.1286 32.1847 27.1903 32.4528 27.3139 32.6514C27.4377 32.8503 27.6018 32.9491 27.8067 32.9491C28.0157 32.9491 28.2377 32.8738 28.4735 32.722C28.7088 32.5699 29.0682 32.2549 29.5512 31.7758V32.447H29.5513ZM27.3315 30.1646C27.8221 29.6151 28.2206 28.9988 28.5257 28.3169C28.8308 27.6348 28.9832 27.0481 28.9832 26.5565C28.9832 26.4132 28.9622 26.2967 28.9199 26.2092C28.8774 26.1216 28.8229 26.0775 28.7574 26.0775C28.615 26.0775 28.4069 26.4361 28.1343 27.1533C27.8618 27.8703 27.5942 28.8742 27.3315 30.1646Z" fill="#010101"/>
<path d="M33.8896 32.4469C33.399 32.934 32.9586 33.2934 32.5681 33.5243C32.1777 33.756 31.7473 33.8717 31.2756 33.8717C30.75 33.8717 30.3259 33.7024 30.0028 33.3641C29.6803 33.025 29.5193 32.5797 29.5193 32.0268C29.5193 31.2018 29.803 30.4554 30.3718 29.7879C30.9393 29.1201 31.5695 28.7864 32.2611 28.7864C32.6205 28.7864 32.908 28.8801 33.1248 29.0669C33.3412 29.2539 33.4494 29.4989 33.4494 29.8025C33.4494 30.6084 32.5993 31.2619 30.899 31.7642C31.0534 32.5228 31.4572 32.9027 32.1103 32.9027C32.3655 32.9027 32.6087 32.8337 32.8404 32.6959C33.0727 32.5574 33.4221 32.2504 33.8898 31.7759L33.8896 32.4469ZM30.8523 31.3671C31.8413 31.0866 32.3361 30.5692 32.3361 29.8141C32.3361 29.4405 32.2007 29.2537 31.9305 29.2537C31.6754 29.2537 31.4322 29.449 31.2005 29.8406C30.968 30.2316 30.8523 30.7401 30.8523 31.3671Z" fill="#010101"/>
<path d="M40.0828 32.4469C39.4645 33.0385 39.022 33.4243 38.7556 33.6036C38.4889 33.7825 38.2339 33.8719 37.9903 33.8719C37.3796 33.8719 37.0919 33.329 37.1266 32.243C36.7402 32.7993 36.3835 33.21 36.0569 33.4752C35.7307 33.7399 35.3936 33.8719 35.0454 33.8719C34.7058 33.8719 34.4171 33.7117 34.179 33.3905C33.9409 33.0693 33.8228 32.6754 33.8228 32.2079C33.8228 31.6244 33.9818 31.0677 34.3004 30.538C34.6195 30.0086 35.0282 29.5808 35.5265 29.2539C36.0249 28.9269 36.4659 28.7632 36.848 28.7632C37.3312 28.7632 37.6695 28.9871 37.8627 29.4345L39.0474 28.7751H39.3724L38.8608 30.4855C38.5981 31.346 38.4662 31.9358 38.4662 32.2548C38.4662 32.5894 38.5838 32.7568 38.8198 32.7568C38.9699 32.7568 39.1361 32.6762 39.3178 32.5144C39.4996 32.3527 39.7541 32.1065 40.0825 31.7757V32.4469H40.0828ZM35.8398 32.7684C36.2261 32.7684 36.5903 32.4367 36.9329 31.7731C37.2749 31.1093 37.4458 30.4968 37.4458 29.9365C37.4458 29.7188 37.397 29.5482 37.3009 29.4258C37.2039 29.3028 37.0745 29.2418 36.9126 29.2418C36.5259 29.2418 36.1594 29.5726 35.8142 30.2345C35.4684 30.8963 35.2951 31.5055 35.2951 32.0616C35.2951 32.2721 35.3466 32.4423 35.4489 32.5728C35.5512 32.7033 35.681 32.7684 35.8398 32.7684Z" fill="#010101"/>
<path d="M44.4133 32.4471C43.4432 33.4046 42.6953 33.8837 42.1699 33.8837C41.9339 33.8837 41.7348 33.7834 41.5728 33.5835C41.4109 33.3829 41.3293 33.1346 41.3293 32.8386C41.3293 32.2898 41.6214 31.5545 42.2048 30.6318C41.9186 30.7798 41.606 30.8825 41.2658 30.9411C41.0146 31.4081 40.6202 31.9104 40.0832 32.447H39.9502V31.9221C40.2514 31.6069 40.5239 31.2681 40.7674 30.906C40.4346 30.758 40.2688 30.538 40.2688 30.2466C40.2688 29.9464 40.3699 29.6265 40.5733 29.2855C40.776 28.9453 41.0551 28.7751 41.4109 28.7751C41.7124 28.7751 41.8628 28.9303 41.8628 29.2419C41.8628 29.4872 41.7759 29.8373 41.6017 30.2929C42.2431 30.2227 42.8035 29.7288 43.2829 28.8099L43.8102 28.7864L43.2711 30.281C43.0472 30.9117 42.9022 31.3412 42.8367 31.5687C42.7711 31.7961 42.738 31.9979 42.738 32.1728C42.738 32.3365 42.7758 32.4673 42.8509 32.5639C42.9262 32.6619 43.0279 32.7101 43.1554 32.7101C43.2943 32.7101 43.4279 32.6622 43.5554 32.5674C43.6828 32.4712 43.9688 32.2078 44.4134 31.7758V32.4471H44.4133Z" fill="#010101"/>
<path d="M50.1066 32.4475C49.214 33.3978 48.4484 33.8724 47.8111 33.8724C47.5522 33.8724 47.3435 33.781 47.1851 33.5979C47.0263 33.4151 46.9472 33.17 46.9472 32.8626C46.9472 32.4461 47.1174 31.8096 47.4576 30.9536C47.6391 30.4942 47.7302 30.2018 47.7302 30.0777C47.7302 29.9531 47.6814 29.8907 47.5853 29.8907C47.5313 29.8907 47.4594 29.9181 47.3708 29.9723C47.2892 30.0267 47.1946 30.1032 47.0864 30.2003C46.99 30.2896 46.8815 30.3986 46.7618 30.5267C46.6572 30.6366 46.5451 30.761 46.426 30.9006L46.1009 31.2805C45.9582 31.4554 45.8692 31.64 45.8345 31.8349C45.7763 32.1656 45.7378 32.4696 45.7183 32.7463C45.7065 32.952 45.7009 33.2301 45.7009 33.5811L44.4198 33.8842C44.3776 33.3587 44.356 32.9674 44.356 32.7109C44.356 32.0842 44.4285 31.4905 44.5736 30.9302C44.7184 30.3692 44.951 29.739 45.272 29.0381L46.6861 28.7639C46.3887 29.5698 46.1937 30.204 46.1009 30.6669C46.7347 29.9547 47.2371 29.4618 47.6096 29.1869C47.9814 28.9124 48.3125 28.7758 48.6019 28.7758C48.7985 28.7758 48.9628 28.8505 49.0937 29C49.2252 29.1497 49.2906 29.3377 49.2906 29.5624C49.2906 29.9357 49.1244 30.5508 48.7926 31.4074C48.5643 31.9949 48.4502 32.3762 48.4502 32.5522C48.4502 32.7865 48.5451 32.9036 48.7349 32.9036C49.0175 32.9036 49.4751 32.5278 50.1066 31.7766V32.4475Z" fill="#010101"/>
<path d="M38.4453 23.2732H38.7557V23.7868H39.0473V24.0393H38.7557V25.2401C38.7557 25.3042 38.7773 25.3472 38.8205 25.3689C38.8444 25.3815 38.8842 25.3878 38.9399 25.3878C38.9547 25.3878 38.9706 25.3878 38.9876 25.3878C39.0047 25.3867 39.0246 25.385 39.0473 25.3827V25.6266C39.0121 25.6369 38.9751 25.6444 38.9365 25.6489C38.8989 25.6535 38.858 25.6558 38.8137 25.6558C38.6704 25.6558 38.5732 25.6192 38.522 25.5459C38.4709 25.4714 38.4453 25.3752 38.4453 25.2573V24.0393H38.198V23.7868H38.4453V23.2732Z" fill="white"/>
<path d="M37.6038 23.7951H37.9159V25.6263H37.6038V23.7951ZM37.6038 23.1028H37.9159V23.4532H37.6038V23.1028Z" fill="white"/>
<path d="M35.8516 23.1028H36.1466V24.5681L36.9345 23.7865H37.3268L36.6275 24.4753L37.366 25.6263H36.9738L36.4041 24.6986L36.1466 24.9357V25.6263H35.8516V23.1028Z" fill="white"/>
<path d="M35.083 23.7951H35.3951V25.6263H35.083V23.7951ZM35.083 23.1028H35.3951V23.4532H35.083V23.1028Z" fill="white"/>
<path d="M34.0369 23.7336C34.2427 23.7336 34.4098 23.784 34.5383 23.8848C34.6679 23.9856 34.7458 24.1591 34.7719 24.4053H34.4735C34.4553 24.2919 34.4138 24.198 34.349 24.1236C34.2842 24.048 34.1801 24.0102 34.0369 24.0102C33.8413 24.0102 33.7015 24.1064 33.6173 24.2988C33.5627 24.4236 33.5355 24.5777 33.5355 24.7609C33.5355 24.9453 33.5741 25.1005 33.6514 25.2264C33.7287 25.3524 33.8504 25.4154 34.0164 25.4154C34.1437 25.4154 34.2444 25.3765 34.3183 25.2986C34.3933 25.2196 34.445 25.1119 34.4735 24.9756H34.7719C34.7378 25.2196 34.6525 25.3982 34.5161 25.5116C34.3797 25.6238 34.2051 25.6799 33.9925 25.6799C33.7538 25.6799 33.5633 25.5923 33.4212 25.4171C33.2791 25.2407 33.208 25.0209 33.208 24.7575C33.208 24.4345 33.2859 24.1831 33.4417 24.0033C33.5974 23.8235 33.7958 23.7336 34.0369 23.7336Z" fill="white"/>
<path d="M31.7714 25.0495C31.7805 25.1525 31.806 25.2316 31.8481 25.2865C31.9254 25.3862 32.0596 25.436 32.2506 25.436C32.3643 25.436 32.4644 25.4114 32.5508 25.3621C32.6372 25.3117 32.6804 25.2344 32.6804 25.1302C32.6804 25.0512 32.6457 24.9911 32.5763 24.9498C32.532 24.9246 32.4445 24.8954 32.3137 24.8622L32.0698 24.8004C31.9141 24.7614 31.7992 24.7179 31.7253 24.6698C31.5934 24.5862 31.5275 24.4706 31.5275 24.3228C31.5275 24.1488 31.5894 24.0079 31.7134 23.9002C31.8384 23.7926 32.0061 23.7388 32.2165 23.7388C32.4916 23.7388 32.69 23.8201 32.8117 23.9827C32.8879 24.0858 32.9248 24.1969 32.9226 24.316H32.6326C32.6269 24.2461 32.6025 24.1825 32.5593 24.1253C32.4888 24.044 32.3666 24.0033 32.1926 24.0033C32.0766 24.0033 31.9885 24.0256 31.9283 24.0703C31.8691 24.115 31.8396 24.174 31.8396 24.2472C31.8396 24.3274 31.8788 24.3915 31.9573 24.4396C32.0027 24.4683 32.0698 24.4935 32.1585 24.5152L32.3615 24.565C32.582 24.6189 32.7298 24.671 32.8049 24.7214C32.9243 24.8004 32.9839 24.9246 32.9839 25.0941C32.9839 25.2579 32.922 25.3993 32.7981 25.5184C32.6753 25.6375 32.4877 25.6971 32.2353 25.6971C31.9635 25.6971 31.7708 25.6352 31.6571 25.5116C31.5445 25.3867 31.4843 25.2327 31.4763 25.0495H31.7714Z" fill="white"/>
</g>
</svg>
