<svg width="55" height="55" viewBox="0 0 55 55" fill="none" xmlns="http://www.w3.org/2000/svg">
<mask id="mask0_658_3258" style="mask-type:alpha" maskUnits="userSpaceOnUse" x="0" y="0" width="55" height="55">
<rect width="55" height="55" fill="#D9D9D9"/>
</mask>
<g mask="url(#mask0_658_3258)">
<path d="M17.7446 10.0044C17.9501 10.0044 36.8266 10.0044 37.169 10.0044C38.1142 10.0044 39.032 10.1549 39.9224 10.4696C41.2101 10.9349 42.3745 11.7558 43.2512 12.8231C44.1416 13.8904 44.7306 15.204 44.9361 16.5723C45.0183 17.0786 45.032 17.5849 45.032 18.0912C45.032 18.5564 45.032 34.9489 45.032 35.6878C45.032 36.1257 45.032 36.5772 45.032 37.0151C45.032 37.6171 45.0046 38.2329 44.8813 38.8212C44.6073 40.1759 43.9635 41.4484 43.032 42.4747C42.1142 43.5009 40.9087 44.2672 39.6074 44.6777C38.8129 44.924 37.991 45.0334 37.1553 45.0334C36.7855 45.0334 17.6898 45.0334 17.4022 45.0197C16.0049 44.9513 14.6214 44.4998 13.457 43.7198C12.32 42.9536 11.3885 41.8863 10.7858 40.6548C10.2653 39.6012 10.005 38.4244 10.005 37.2477C10.005 36.974 10.005 18.0638 10.005 17.7901C9.97759 16.6271 10.2242 15.4777 10.731 14.4378C11.32 13.2063 12.2378 12.1253 13.3748 11.359C14.5392 10.5654 15.909 10.1002 17.3063 10.0318C17.4433 10.0044 17.5939 10.0044 17.7446 10.0044Z" fill="url(#paint0_linear_658_3258)"/>
<path d="M39.716 38.7625C39.5922 38.5702 39.4546 38.3779 39.3033 38.1994C38.9594 37.7874 38.5605 37.4303 38.1203 37.1282C37.5701 36.7574 36.9235 36.5239 36.2632 36.4964C35.7955 36.469 35.3278 36.5514 34.8876 36.7162C34.4474 36.8672 34.021 37.087 33.6083 37.3067C33.1269 37.5539 32.6454 37.8011 32.1364 38.0071C31.5312 38.2543 30.8984 38.4466 30.2518 38.5839C29.4402 38.735 28.6149 38.7899 27.8033 38.7762C26.3314 38.7487 24.8595 38.529 23.4564 38.117C22.2183 37.7462 21.0353 37.2381 19.921 36.5926C18.9444 36.0295 18.0365 35.384 17.1836 34.6561C16.482 34.0519 15.8355 33.4064 15.2302 32.7197C14.8175 32.239 14.4186 31.7309 14.0472 31.209C13.8959 31.003 13.7583 30.7833 13.6345 30.5635L10.0029 26.6495V17.7913C10.0029 13.4927 13.4832 10.0044 17.7889 10.0044H24.7357L29.8804 15.2231C41.4905 23.1062 37.7351 31.7996 37.7351 31.7996C37.7351 31.7996 41.0366 35.5076 39.716 38.7625Z" fill="url(#paint1_linear_658_3258)"/>
<path d="M29.9388 15.0085C41.4869 22.9641 37.7516 31.7374 37.7516 31.7374C37.7516 31.7374 41.0354 35.4935 39.7082 38.7782C39.7082 38.7782 38.3536 36.4775 36.0823 36.4775C33.8931 36.4775 32.6069 38.7782 28.2011 38.7782C18.3907 38.7782 13.7523 30.4762 13.7523 30.4762C22.5913 36.3666 28.6253 32.1948 28.6253 32.1948C24.6437 29.8525 16.1741 18.6537 16.1741 18.6537C23.549 25.0154 26.7371 26.6924 26.7371 26.6924C24.8352 25.0985 19.499 17.3093 19.499 17.3093C23.768 21.689 32.2512 27.8012 32.2512 27.8012C34.6593 21.0376 29.9388 15.0085 29.9388 15.0085Z" fill="white"/>
</g>
<defs>
<linearGradient id="paint0_linear_658_3258" x1="30.8116" y1="8.75446" x2="24.2004" y2="46.2902" gradientUnits="userSpaceOnUse">
<stop stop-color="#FAAE42"/>
<stop offset="1" stop-color="#EF3E31"/>
</linearGradient>
<linearGradient id="paint1_linear_658_3258" x1="27.9699" y1="10.5725" x2="23.1159" y2="38.1462" gradientUnits="userSpaceOnUse">
<stop stop-color="#E39F3A"/>
<stop offset="1" stop-color="#D33929"/>
</linearGradient>
</defs>
</svg>
