<svg width="55" height="55" viewBox="0 0 55 55" fill="none" xmlns="http://www.w3.org/2000/svg">
<mask id="mask0_658_3320" style="mask-type:alpha" maskUnits="userSpaceOnUse" x="0" y="0" width="55" height="55">
<rect width="55" height="55" fill="#D9D9D9"/>
</mask>
<g mask="url(#mask0_658_3320)">
</g>
<g clip-path="url(#clip0_658_3320)">
<path d="M40.5194 31.6077C40.1179 31.7766 39.7182 31.861 39.3128 31.861C38.671 31.861 38.0931 31.7503 37.5808 31.527C37.0872 31.3177 36.6454 31.0033 36.2859 30.6056C35.935 30.2134 35.6629 29.7555 35.4753 29.2263C35.2876 28.6971 35.1957 28.1266 35.1957 27.5168C35.1957 26.8881 35.2895 26.3101 35.4753 25.7716C35.6629 25.233 35.9294 24.7657 36.2803 24.3698C36.6377 23.9652 37.0798 23.6442 37.5751 23.4296C38.1218 23.1944 38.7121 23.0773 39.3072 23.0862C39.7388 23.0862 40.1535 23.1538 40.5532 23.2814C40.9548 23.4109 41.3189 23.6023 41.6435 23.8519C41.9681 24.1014 42.2365 24.4129 42.4448 24.7826C42.6611 25.1737 42.7928 25.6059 42.8314 26.0512H41.0768C40.9661 25.5839 40.7559 25.2311 40.4444 24.9966C40.1146 24.7555 39.7136 24.6319 39.3053 24.6456C38.8906 24.6456 38.5397 24.7263 38.2507 24.8858C37.9617 25.0453 37.7253 25.2593 37.547 25.5314C37.3687 25.8035 37.2355 26.1094 37.1548 26.4528C37.0741 26.7962 37.0309 27.1508 37.0309 27.5205C37.0309 27.8714 37.0703 28.2148 37.1548 28.5489C37.2355 28.8829 37.3687 29.1813 37.547 29.4477C37.7253 29.7142 37.9617 29.9281 38.2507 30.0895C38.5397 30.2509 38.8925 30.3297 39.3053 30.3297C39.9152 30.3297 40.3881 30.174 40.7202 29.8662C41.0543 29.5585 41.2457 29.1137 41.3038 28.5264H39.4517V27.1433H42.9646V31.6715H41.7936L41.606 30.7238C41.3275 31.1086 40.9528 31.4134 40.5194 31.6077ZM45.9539 23.2964V30.112H50.0373V31.6658H44.1168V23.2964H45.9539ZM10.2262 27.5168C10.2262 26.1863 10.8699 24.9346 12.0052 23.835L14.0863 31.7559H15.52L17.5373 24.5968L19.5264 31.7559H20.9639L23.4428 22.6434H21.8289L20.2132 29.6335L18.2635 22.6415H16.7848L14.835 29.6316L13.2587 22.816C16.0529 20.8925 20.5172 19.6446 25.5464 19.6446C30.2603 19.6446 34.4863 20.6373 37.2955 22.3562C34.233 19.4757 28.729 17.4547 22.4426 17.4509C12.8083 17.4509 5 21.9565 5 27.5168C5 33.077 12.8083 37.5882 22.4388 37.5882C28.7028 37.5882 34.1879 35.5709 37.2636 32.7092C34.4544 34.4187 30.2434 35.3889 25.5464 35.3889C17.0831 35.387 10.2262 31.8666 10.2262 27.5168ZM27.4793 26.479C27.2664 26.1727 26.9799 25.9249 26.6461 25.7584C26.2821 25.5841 25.8824 25.4973 25.4788 25.5051C24.9891 25.5051 24.5481 25.5933 24.1653 25.7678C23.8055 25.9327 23.4907 26.1818 23.2476 26.494C22.7897 27.0777 22.5495 27.9015 22.5495 28.8754C22.5495 29.307 22.6115 29.7161 22.7316 30.082C22.8443 30.4363 23.026 30.7648 23.2664 31.0484C23.7562 31.6189 24.4543 31.921 25.2874 31.921C25.7247 31.921 26.0793 31.876 26.3777 31.7822C26.6367 31.7015 26.8093 31.5945 26.9519 31.5026C27.301 31.27 27.5872 30.9548 27.7851 30.5849C27.954 30.2734 28.0385 29.9788 28.0572 29.8287L28.0704 29.7255H26.8825L26.8788 29.8099C26.8469 30.1965 26.3402 30.8871 25.4357 30.8871C24.1446 30.8871 23.8369 29.9525 23.8143 29.1287H28.1417V29.0349C28.1475 28.551 28.094 28.0683 27.9822 27.5975C27.8826 27.1976 27.7123 26.8189 27.4793 26.479ZM25.3419 26.5729C26.2989 26.5729 26.8112 27.0889 26.905 28.1492H23.8068C23.8538 27.2897 24.5349 26.5729 25.3419 26.5729ZM34.1204 27.3516C34.0141 27.0011 33.8435 26.6734 33.6175 26.3852C33.3965 26.1098 33.1162 25.8879 32.7974 25.7359C32.453 25.5763 32.0773 25.4955 31.6978 25.4995C31.3511 25.4977 31.0091 25.5801 30.7013 25.7397C30.4513 25.8687 30.2304 26.0475 30.052 26.2651V23.469H28.8679V31.7503H29.9938V31.1854C30.1052 31.3338 30.2388 31.4642 30.3898 31.572C30.7107 31.8028 31.1066 31.9192 31.5645 31.9192C32.0581 31.9192 32.5047 31.8085 32.8781 31.5889C33.2121 31.3937 33.4974 31.1123 33.7188 30.7557C33.9248 30.417 34.0738 30.0468 34.1598 29.6598C34.246 29.2888 34.2894 28.9091 34.2893 28.5282C34.2963 28.1295 34.2393 27.7323 34.1204 27.3516ZM33.0564 28.6971C33.0564 29.3464 32.9269 29.8906 32.6773 30.2734C32.5589 30.4664 32.3915 30.6246 32.192 30.7317C31.9926 30.8388 31.7683 30.8912 31.542 30.8833C30.8345 30.8833 30.0051 30.3898 30.0051 28.9917C30.0051 28.3237 30.0895 27.8076 30.2584 27.4154C30.5024 26.8506 30.9171 26.5785 31.5176 26.5785C32.1594 26.5785 32.591 26.8281 32.8312 27.3479C33.0301 27.7739 33.0564 28.2955 33.0564 28.6971Z" fill="#212529"/>
</g>
<defs>
<clipPath id="clip0_658_3320">
<rect width="45.0373" height="45.0373" fill="white" transform="translate(5 5)"/>
</clipPath>
</defs>
</svg>
