<svg width="55" height="55" viewBox="0 0 55 55" fill="none" xmlns="http://www.w3.org/2000/svg">
<mask id="mask0_658_3348" style="mask-type:alpha" maskUnits="userSpaceOnUse" x="0" y="0" width="55" height="55">
<rect width="55" height="55" fill="#D9D9D9"/>
</mask>
<g mask="url(#mask0_658_3348)">
<g clip-path="url(#clip0_658_3348)">
<path d="M27.5328 5C28.8049 5.00234 30.056 5.10984 31.2722 5.31315V18.4232L40.5666 9.1527C41.5932 9.88181 42.5535 10.6927 43.4414 11.5784C44.3298 12.4641 45.1452 13.4246 45.8761 14.4482L36.5812 23.7187H49.7256C49.9295 24.9315 50.0373 26.1748 50.0373 27.4461V27.4765C50.0373 28.7477 49.9295 29.9933 49.7256 31.2062H36.579L45.8761 40.4744C45.1452 41.4979 44.3298 42.4584 43.4441 43.3441H43.4414C42.5535 44.2298 41.5932 45.0431 40.5693 45.7698L31.2722 36.4993V49.6094C30.0582 49.8127 28.8071 49.9201 27.535 49.9227H27.5023C26.2298 49.9201 24.9836 49.8127 23.7674 49.6094V36.4993L14.4729 45.7698C12.4203 44.3139 10.6257 42.5215 9.16347 40.4744L18.4584 31.2062H5.314C5.1078 29.991 5 28.7407 5 27.4694V27.4042C5.00214 27.0743 5.02374 26.6712 5.05477 26.2543L5.06435 26.1288C5.15622 24.9552 5.314 23.7187 5.314 23.7187H18.4584L9.16347 14.4482C9.89212 13.4246 10.7053 12.4664 11.5932 11.5831L11.5977 11.5784C12.4838 10.6927 13.4464 9.88181 14.4729 9.1527L23.7674 18.4232V5.31315C24.9836 5.10984 26.2325 5.00234 27.5068 5H27.5328ZM27.5305 21.8468H27.509C25.8361 21.8468 24.2339 22.153 22.7529 22.7091C22.1978 24.1837 21.8905 25.7822 21.8883 27.4507V27.4718C21.8905 29.1403 22.1978 30.7388 22.7551 32.2134C24.2339 32.7696 25.8361 33.0757 27.509 33.0757H27.5305C29.2034 33.0757 30.8057 32.7696 32.2844 32.2134C32.8418 30.7365 33.1491 29.1403 33.1491 27.4718V27.4507C33.1491 25.7822 32.8418 24.1837 32.2844 22.7091C30.8057 22.153 29.2034 21.8468 27.5305 21.8468Z" fill="#FF4A00"/>
</g>
</g>
<defs>
<clipPath id="clip0_658_3348">
<rect width="45.0373" height="45.0373" fill="white" transform="translate(5 5)"/>
</clipPath>
</defs>
</svg>
