<svg width="55" height="55" viewBox="0 0 55 55" fill="none" xmlns="http://www.w3.org/2000/svg">
<mask id="mask0_658_3395" style="mask-type:alpha" maskUnits="userSpaceOnUse" x="0" y="0" width="55" height="55">
<rect width="55" height="55" fill="#D9D9D9"/>
</mask>
<g mask="url(#mask0_658_3395)">
<path d="M47.2225 27.5188C47.2225 38.3953 38.405 47.2226 27.5187 47.2226C16.6323 47.2226 7.81482 38.3953 7.81482 27.5188C7.81482 16.6324 16.6323 7.81494 27.5187 7.81494C38.405 7.81494 47.2225 16.6324 47.2225 27.5188Z" fill="#070707"/>
<path d="M14.9729 34.3298H17.125V24.3441H14.9729V34.3298ZM16.0446 23.0346C16.7101 23.0346 17.246 22.4694 17.246 21.7629C17.246 21.0375 16.7101 20.4817 16.0446 20.4817C15.3878 20.4817 14.8519 21.0375 14.8519 21.7629C14.8519 22.4694 15.3878 23.0346 16.0446 23.0346Z" fill="white"/>
<path d="M24.6427 20.5105C21.004 20.5105 18.7223 23.2141 18.7223 27.5382C18.7223 31.8622 21.004 34.5564 24.6427 34.5564C28.2726 34.5564 30.5543 31.8622 30.5543 27.5382C30.5543 23.2141 28.2726 20.5105 24.6427 20.5105ZM24.6427 22.5829C26.8639 22.5829 28.2813 24.5047 28.2813 27.5382C28.2813 30.5621 26.8639 32.4838 24.6427 32.4838C22.4128 32.4838 21.004 30.5621 21.004 27.5382C21.004 24.5047 22.4128 22.5829 24.6427 22.5829Z" fill="white"/>
<path d="M31.8289 30.5055C31.9239 33.0115 33.808 34.5564 36.6774 34.5564C39.6938 34.5564 41.5952 32.936 41.5952 30.3548C41.5952 28.3294 40.5235 27.1895 37.9911 26.5584L36.5564 26.2004C35.0266 25.8048 34.3957 25.2773 34.3957 24.3729C34.3957 23.2424 35.3464 22.4888 36.7552 22.4888C38.1812 22.4888 39.158 23.2519 39.2617 24.5236H41.3877C41.336 22.1309 39.521 20.5105 36.7725 20.5105C34.0586 20.5105 32.1313 22.1401 32.1313 24.5519C32.1313 26.4924 33.2204 27.6983 35.5192 28.273L37.1355 28.6874C38.7085 29.0925 39.3481 29.6577 39.3481 30.6374C39.3481 31.7679 38.3023 32.5781 36.7984 32.5781C35.2773 32.5781 34.1277 31.7584 33.9895 30.5055H31.8289Z" fill="white"/>
</g>
</svg>
