<svg width="55" height="55" viewBox="0 0 55 55" fill="none" xmlns="http://www.w3.org/2000/svg">
<mask id="mask0_658_2745" style="mask-type:alpha" maskUnits="userSpaceOnUse" x="0" y="0" width="55" height="55">
<rect width="55" height="55" fill="#D9D9D9"/>
</mask>
<g mask="url(#mask0_658_2745)">
<path d="M19.7288 48.1868C18.7363 48.1868 17.7991 47.7458 17.165 46.9462L7.51651 34.9543C6.8824 34.1548 6.63437 33.135 6.8824 32.1423L10.3283 17.1732C10.5488 16.1807 11.2105 15.3812 12.1203 14.9402L26.0695 8.26864C26.5106 8.04832 27.0069 7.93799 27.5031 7.93799C27.9993 7.93799 28.4954 8.04815 28.9366 8.26881L42.8859 14.9126C43.7956 15.3536 44.4572 16.1532 44.6777 17.1456L48.1236 32.1148C48.3443 33.1073 48.1236 34.1273 47.4897 34.9268L37.8409 46.9187C37.2068 47.6905 36.2696 48.1592 35.2771 48.1592L19.7291 48.1868H19.7288Z" fill="#326DE6"/>
<path d="M27.476 8.63071C27.8621 8.63071 28.248 8.71334 28.6064 8.87875L42.5557 15.5226C43.2724 15.8809 43.8238 16.5426 43.9892 17.3146L47.4351 32.2837C47.6281 33.0833 47.4351 33.9103 46.9113 34.5443L37.2627 46.5363C36.7665 47.1703 35.9945 47.5286 35.1951 47.5286H19.7296C18.9301 47.5286 18.1582 47.1703 17.662 46.5363L8.01339 34.5443C7.51715 33.9103 7.32403 33.0833 7.48961 32.2837L10.9355 17.3146C11.1285 16.5151 11.6523 15.8534 12.369 15.5226L26.3185 8.85137C26.6769 8.7135 27.0903 8.63088 27.4762 8.63088L27.476 8.63071ZM27.476 7.33496C26.8972 7.33496 26.3183 7.47283 25.7668 7.72087L11.8177 14.3924C10.7149 14.9162 9.94308 15.8809 9.66734 17.0664L6.2214 32.0357C5.94583 33.2211 6.2214 34.4341 6.99338 35.399L16.642 47.3909C17.3864 48.3282 18.5166 48.8519 19.702 48.8519H35.1674C36.3529 48.8519 37.4832 48.3282 38.2275 47.3909L47.8763 35.3988C48.6481 34.4616 48.9238 33.2211 48.6481 32.0355L45.2021 17.0664C44.9265 15.8809 44.1546 14.9162 43.0519 14.3924L29.1577 7.7207C28.6339 7.47283 28.0551 7.33496 27.476 7.33496Z" fill="white"/>
<path d="M41.4527 31.0963C41.4252 31.0963 41.4252 31.0963 41.4527 31.0963H41.4252C41.3976 31.0963 41.3701 31.0963 41.3701 31.0687C41.315 31.0687 41.2599 31.0412 41.2047 31.0412C41.0117 31.0136 40.8463 30.9861 40.6809 30.9861C40.5981 30.9861 40.5155 30.9861 40.4052 30.9584H40.3776C39.7988 30.9033 39.3301 30.8482 38.8889 30.7104C38.696 30.6276 38.6409 30.5174 38.5856 30.4071C38.5856 30.3795 38.5581 30.3795 38.5581 30.352L38.1997 30.2418C38.369 28.945 38.3037 27.6283 38.0068 26.3546C37.7058 25.0703 37.1834 23.8482 36.463 22.7432L36.7387 22.4952V22.4401C36.7387 22.3022 36.7663 22.1644 36.8764 22.0265C37.2073 21.7232 37.6209 21.4752 38.1171 21.1719C38.1997 21.1168 38.2823 21.0893 38.3651 21.034C38.5306 20.9514 38.6684 20.8688 38.8338 20.7585C38.8614 20.7309 38.9165 20.7034 38.9717 20.6483C38.9992 20.6206 39.0268 20.6206 39.0268 20.593C39.4127 20.2622 39.4955 19.7109 39.2197 19.3524C39.0819 19.1594 38.8338 19.0493 38.5856 19.0493C38.3653 19.0493 38.1722 19.1319 37.9792 19.2698L37.9242 19.3248C37.8691 19.3524 37.8414 19.4076 37.7863 19.4352C37.6484 19.573 37.5381 19.6832 37.4279 19.8211C37.3728 19.8761 37.3178 19.9589 37.235 20.014C36.8489 20.4276 36.4905 20.7585 36.1322 21.0065C36.0495 21.0616 35.9669 21.0893 35.8841 21.0893C35.8291 21.0893 35.7738 21.0893 35.7187 21.0616H35.6636L35.3326 21.2822C34.9743 20.8963 34.5884 20.5655 34.2025 20.2347C32.5407 18.9358 30.5409 18.1415 28.4408 17.9465L28.4132 17.5881L28.3582 17.533C28.2754 17.4502 28.1652 17.3676 28.1375 17.1746C28.11 16.7335 28.1652 16.2373 28.2203 15.6859V15.6584C28.2203 15.5756 28.2478 15.4655 28.2754 15.3827C28.3029 15.2174 28.3305 15.0518 28.3582 14.8589V14.6109C28.3582 14.1146 27.9721 13.7012 27.5036 13.7012C27.2829 13.7012 27.0624 13.8113 26.897 13.9767C26.7317 14.1422 26.649 14.3627 26.649 14.6109V14.8313C26.649 15.0243 26.6765 15.1897 26.7316 15.3551C26.7591 15.4379 26.7591 15.5205 26.7867 15.6309V15.6584C26.8417 16.2097 26.9245 16.706 26.8695 17.1471C26.8419 17.3401 26.7316 17.4227 26.649 17.5055L26.5939 17.5606L26.5662 17.9189C26.0699 17.974 25.5737 18.0291 25.0775 18.1394C22.9548 18.6081 21.0802 19.6834 19.6192 21.227L19.3435 21.034H19.2884C19.2333 21.034 19.1781 21.0616 19.123 21.0616C19.0402 21.0616 18.9576 21.034 18.8748 20.9789C18.5164 20.7309 18.1581 20.3724 17.7721 19.9589C17.7171 19.9039 17.662 19.8211 17.5792 19.766C17.4689 19.6281 17.3585 19.5178 17.2207 19.3801C17.1931 19.3524 17.138 19.325 17.083 19.2698C17.0554 19.2422 17.0279 19.2422 17.0279 19.2147C16.8571 19.0736 16.6429 18.9956 16.4213 18.994C16.1731 18.994 15.9251 19.1043 15.7872 19.2973C15.5115 19.6557 15.5943 20.207 15.9802 20.5378C16.0077 20.5378 16.0077 20.5655 16.0352 20.5655C16.0903 20.593 16.118 20.6481 16.1731 20.6757C16.3385 20.7858 16.4764 20.8686 16.6418 20.9514C16.7246 20.9789 16.8072 21.034 16.89 21.0893C17.3861 21.3924 17.7997 21.6406 18.1305 21.9439C18.2684 22.0816 18.2684 22.2195 18.2684 22.3573V22.4124L18.544 22.6606C18.4889 22.7432 18.4338 22.7985 18.4061 22.8811C17.0277 25.059 16.5039 27.6228 16.8623 30.159L16.5039 30.2692C16.5039 30.2969 16.4764 30.2969 16.4764 30.3243C16.4213 30.4346 16.3385 30.5449 16.1731 30.6276C15.7597 30.7654 15.2634 30.8207 14.6846 30.8758H14.6569C14.5742 30.8758 14.4639 30.8758 14.3813 30.9033C14.2159 30.9033 14.0505 30.9308 13.8575 30.9584C13.8024 30.9584 13.7474 30.9861 13.6921 30.9861C13.6646 30.9861 13.637 30.9861 13.6093 31.0136C13.1131 31.1238 12.8098 31.5925 12.8926 32.0335C12.9754 32.4196 13.3337 32.6678 13.7747 32.6678C13.8575 32.6678 13.9126 32.6678 13.9954 32.64C14.0229 32.64 14.0505 32.64 14.0505 32.6125C14.1056 32.6125 14.1606 32.585 14.2157 32.585C14.4088 32.5299 14.5467 32.4748 14.7121 32.392C14.7947 32.3645 14.8774 32.3092 14.9602 32.2819H14.9877C15.5115 32.0887 15.9802 31.9233 16.4213 31.8682H16.4764C16.6418 31.8682 16.7521 31.9509 16.8348 32.0061C16.8623 32.0061 16.8623 32.0336 16.8898 32.0336L17.2759 31.9786C17.9376 34.0184 19.2056 35.838 20.8873 37.1612C21.2732 37.4644 21.6591 37.7126 22.0727 37.9608L21.9073 38.319C21.9073 38.3467 21.9348 38.3467 21.9348 38.374C21.9899 38.4844 22.045 38.6222 21.9899 38.8152C21.8246 39.2288 21.5764 39.6423 21.2732 40.1109V40.1385C21.2181 40.2213 21.163 40.2764 21.1079 40.359C20.9976 40.4968 20.9148 40.6347 20.8045 40.8001C20.7769 40.8277 20.7494 40.8828 20.7218 40.938C20.7218 40.9655 20.6943 40.9931 20.6943 40.9931C20.4738 41.4618 20.6392 41.9856 21.0527 42.1785C21.1628 42.2336 21.2732 42.2613 21.3835 42.2613C21.7143 42.2613 22.0451 42.0406 22.2106 41.7374C22.2106 41.7098 22.2381 41.6823 22.2381 41.6823C22.2656 41.6272 22.2932 41.5721 22.3207 41.5444C22.4035 41.3514 22.431 41.2136 22.4861 41.0482L22.5689 40.8001C22.7619 40.2488 22.8997 39.8077 23.1478 39.4218C23.2579 39.2563 23.396 39.2288 23.5061 39.1736C23.5337 39.1736 23.5337 39.1736 23.5612 39.146L23.7543 38.7877C24.9673 39.2563 26.2906 39.5044 27.6137 39.5044C28.4132 39.5044 29.2403 39.4218 30.0123 39.2288C30.498 39.1202 30.9768 38.9821 31.4457 38.8152L31.611 39.1185C31.6387 39.1185 31.6387 39.1185 31.6662 39.146C31.8041 39.1736 31.9143 39.2288 32.0246 39.3942C32.2451 39.7801 32.4105 40.2488 32.6034 40.7726V40.8001L32.6862 41.0482C32.7413 41.2136 32.7689 41.379 32.8515 41.5444C32.8792 41.5995 32.9067 41.6272 32.9343 41.6823C32.9343 41.7098 32.962 41.7374 32.962 41.7374C33.1272 42.0682 33.458 42.2613 33.7889 42.2613C33.8992 42.2613 34.0095 42.2336 34.1197 42.1785C34.3126 42.0683 34.478 41.9028 34.5333 41.6823C34.5884 41.4618 34.5884 41.2136 34.4782 40.9931C34.4782 40.9655 34.4505 40.9655 34.4505 40.938C34.423 40.8829 34.3954 40.8278 34.3679 40.8001C34.2851 40.6347 34.1749 40.4968 34.0646 40.359C34.0095 40.2764 33.9544 40.2213 33.8994 40.1386V40.1109C33.5959 39.6423 33.3202 39.2288 33.1825 38.8152C33.1274 38.6222 33.1825 38.5121 33.21 38.3742C33.21 38.3467 33.2376 38.3467 33.2376 38.3191L33.0997 37.9883C34.5608 37.1337 35.8013 35.9206 36.7387 34.432C37.235 33.6601 37.6209 32.8055 37.8964 31.9509L38.2273 32.0059C38.255 32.0059 38.255 31.9784 38.2824 31.9784C38.3927 31.9233 38.4755 31.8407 38.6409 31.8407H38.696C39.1371 31.8958 39.6056 32.061 40.1296 32.2541H40.1571C40.2397 32.2817 40.3224 32.3368 40.4052 32.3643C40.5706 32.4471 40.7084 32.5022 40.9014 32.5574C40.9565 32.5574 41.0116 32.585 41.0668 32.585C41.0943 32.585 41.1219 32.585 41.1494 32.6125C41.2322 32.64 41.2873 32.64 41.3701 32.64C41.7835 32.64 42.1419 32.3645 42.2522 32.0061C42.2522 31.6753 41.9489 31.2341 41.4527 31.0964V31.0963ZM28.6888 29.7454L27.4759 30.3245L26.2629 29.7454L25.9598 28.4498L26.7867 27.4023H28.1375L28.9646 28.4498L28.689 29.7454H28.6888ZM35.8841 26.8785C36.098 27.7901 36.1631 28.7303 36.0771 29.6626L31.8592 28.4498C31.4733 28.3397 31.2528 27.9536 31.3354 27.5677C31.3629 27.4574 31.4182 27.347 31.5008 27.2644L34.8366 24.2595C35.3051 25.0314 35.6635 25.9138 35.8841 26.8785ZM33.5133 22.6055L29.9019 25.1693C29.5987 25.3623 29.185 25.307 28.937 25.0039C28.8544 24.9211 28.8269 24.8108 28.7991 24.7006L28.5511 20.207C30.4286 20.4232 32.1776 21.2686 33.5133 22.6055ZM25.5186 20.3447C25.8219 20.2896 26.0975 20.2345 26.4008 20.1794L26.1527 24.5901C26.1252 24.976 25.8219 25.3069 25.4083 25.3069C25.2981 25.3069 25.1603 25.2793 25.0775 25.2242L21.411 22.6055C22.5414 21.4752 23.9473 20.703 25.5186 20.3447ZM20.0877 24.2593L23.3683 27.1815C23.6716 27.4297 23.6991 27.8982 23.4511 28.2015C23.3683 28.3116 23.2581 28.3944 23.1202 28.4221L18.8472 29.6626C18.6818 27.788 19.0953 25.8859 20.0877 24.2593ZM19.3433 31.7302L23.7268 30.9858C24.0852 30.9582 24.416 31.2064 24.4986 31.5648C24.5261 31.73 24.5261 31.8681 24.4711 32.0059L22.7894 36.0583C21.2456 35.0658 20.005 33.5496 19.3433 31.7302ZM29.4057 37.2162C28.7716 37.354 28.1375 37.4367 27.4759 37.4367C26.5111 37.4367 25.5737 37.2714 24.6917 36.9957L26.8695 33.0535C27.0899 32.8053 27.4483 32.6951 27.7516 32.8605C27.8803 32.9394 27.9926 33.0423 28.0824 33.1637L30.2051 36.9957C29.957 37.0783 29.6813 37.1335 29.4055 37.2162H29.4057ZM34.7813 33.3843C34.0921 34.487 33.1823 35.3691 32.1349 36.0583L30.3982 31.8954C30.3154 31.5648 30.4533 31.2064 30.7841 31.0408C30.8942 30.9858 31.0321 30.9582 31.17 30.9582L35.5808 31.7027C35.4154 32.3091 35.1397 32.8605 34.7813 33.3843Z" fill="white"/>
</g>
</svg>
