<svg width="62" height="62" viewBox="0 0 62 62" fill="none" xmlns="http://www.w3.org/2000/svg">
<g clip-path="url(#clip0_4142_3681)">
<path d="M25.2004 3.92676C24.3996 3.92676 23.6298 4.24709 23.0614 4.81284L10.4289 17.4428C9.86244 18.0097 9.09397 18.3284 8.29252 18.3288H3.02252C2.61899 18.3287 2.21952 18.4094 1.84767 18.5661C1.47582 18.7228 1.13912 18.9524 0.857413 19.2413C0.575711 19.5303 0.354716 19.8727 0.20746 20.2484C0.0602046 20.6241 -0.0103296 21.0254 1.72601e-05 21.4288L0.134351 26.5542C0.154565 27.3423 0.481908 28.0913 1.04656 28.6415C1.61121 29.1917 2.36848 29.4994 3.15685 29.4992H9.27935C10.0802 29.4992 10.8474 29.1788 11.4158 28.6105L24.1516 15.8747C24.7199 15.3063 25.4872 14.9886 26.288 14.9886H33.7125C34.1094 14.9886 34.5025 14.9104 34.8692 14.7585C35.2359 14.6066 35.5691 14.384 35.8497 14.1033C36.1304 13.8227 36.3531 13.4895 36.5049 13.1228C36.6568 12.756 36.735 12.363 36.735 11.9661V6.94926C36.735 6.14764 36.4166 5.37886 35.8497 4.81203C35.2829 4.2452 34.5141 3.92676 33.7125 3.92676H25.2004ZM50.4654 10.3928C49.6646 10.3928 48.8948 10.7106 48.3264 11.2789L35.6965 23.9088C35.1296 24.4748 34.3612 24.7926 33.5601 24.7923H26.4404C25.6396 24.7923 24.8698 25.1127 24.304 25.681L10.7209 39.259C10.1544 39.8259 9.38589 40.1447 8.58443 40.1451H3.41002C2.6084 40.1451 1.83962 40.4635 1.27279 41.0304C0.705958 41.5972 0.387517 42.366 0.387517 43.1676V48.3239C0.387517 49.9928 1.74118 51.3464 3.41002 51.3464H8.6206C9.40077 51.3464 10.1499 51.0468 10.7131 50.5068L25.0119 36.8048C25.5745 36.2646 26.3243 35.9629 27.1044 35.9627H34.5444C35.3452 35.9627 36.1124 35.6449 36.6808 35.0792L49.4166 22.3433C49.9849 21.775 50.7522 21.4547 51.553 21.4547H58.9749C59.3721 21.455 59.7654 21.3771 60.1324 21.2253C60.4994 21.0736 60.8329 20.851 61.1138 20.5703C61.3948 20.2896 61.6176 19.9563 61.7697 19.5894C61.9218 19.2226 62 18.8293 62 18.4322V13.4153C62 12.6137 61.6816 11.8449 61.1148 11.2781C60.5479 10.7113 59.7791 10.3928 58.9775 10.3928H50.4654ZM50.4654 32.5036C49.6646 32.5036 48.8948 32.8213 48.3264 33.3897L35.6965 46.0196C35.13 46.5865 34.3616 46.9052 33.5601 46.9057H28.2901C27.8866 46.9055 27.4871 46.9862 27.1153 47.1429C26.7434 47.2997 26.4067 47.5292 26.125 47.8182C25.8433 48.1071 25.6223 48.4495 25.475 48.8252C25.3278 49.2009 25.2573 49.6023 25.2676 50.0057L25.4019 55.131C25.4221 55.9191 25.7495 56.6681 26.3141 57.2183C26.8788 57.7685 27.6361 58.0763 28.4244 58.076H34.5469C35.3478 58.076 36.115 57.7557 36.6834 57.1899L49.4192 44.4541C49.9875 43.8858 50.7548 43.568 51.5556 43.568H58.9775C59.7791 43.568 60.5479 43.2496 61.1148 42.6827C61.6816 42.1159 62 41.3471 62 40.5455V35.5261C62 34.7245 61.6816 33.9557 61.1148 33.3889C60.5479 32.822 59.7791 32.5036 58.9775 32.5036H50.4654Z" fill="black"/>
</g>
<defs>
<clipPath id="clip0_4142_3681">
<rect width="62" height="62" fill="white"/>
</clipPath>
</defs>
</svg>
