<svg width="62" height="62" viewBox="0 0 62 62" fill="none" xmlns="http://www.w3.org/2000/svg">
<path d="M37.7369 29.4629L26.4278 33.1557L16.5891 37.4981L13.8365 38.2247C13.1355 38.8915 12.4005 39.5669 11.6055 40.2507C10.7336 41.0029 9.92157 41.6868 9.29746 42.1825C8.60512 42.7296 7.57934 43.7554 7.05795 44.4049C6.28003 45.3794 5.6646 46.4137 5.39959 47.2087C4.92941 48.6449 5.16032 50.098 6.06639 51.4401C7.22891 53.1497 9.54548 54.8934 12.2466 56.0816C13.6229 56.6886 15.9394 57.4664 17.6831 57.9023C20.5808 58.6375 26.1884 59.4325 29.2742 59.5522C29.8981 59.5779 30.7359 59.5779 30.77 59.5522C30.8385 59.5093 31.3172 58.5948 31.8729 57.458C33.7706 53.5856 35.1382 49.9527 35.8819 46.8498C36.3263 44.9693 36.6768 42.4647 36.9075 39.4986C36.9674 38.6694 36.993 35.8913 36.9417 34.9509C36.8647 33.4123 36.7279 32.1644 36.5144 30.942C36.4802 30.7624 36.4715 30.6 36.4887 30.5915C36.5228 30.5659 36.6254 30.5317 38.0187 30.1298L37.7368 29.4632V29.463H37.7369V29.4629ZM35.1554 30.976C35.258 30.976 35.5314 33.6002 35.5998 35.2586C35.617 35.6091 35.6083 35.8399 35.5913 35.8399C35.5229 35.8399 34.1466 35.0279 33.1638 34.4124C32.3089 33.8739 30.6848 32.7968 30.4284 32.5916C30.3428 32.5318 30.3513 32.5233 31.0523 32.2839C32.2404 31.8821 35.0614 30.976 35.1554 30.976ZM29.394 32.8737C29.471 32.8737 29.6675 32.9847 30.1376 33.2754C31.8985 34.3781 34.292 35.7117 35.3178 36.1562C35.634 36.293 35.6681 36.2416 34.9416 36.7375C33.3859 37.7974 31.4454 38.8402 29.069 39.8916C28.6502 40.0797 28.2998 40.225 28.2913 40.225C28.2743 40.225 28.3254 40.0114 28.3937 39.7549C28.9664 37.6263 29.2913 35.4722 29.3085 33.7455C29.317 32.8907 29.317 32.8907 29.394 32.8652C29.3768 32.8737 29.3853 32.8737 29.394 32.8737ZM28.2059 33.3267C28.257 33.3779 28.2229 35.2928 28.1545 35.8142C28.0006 37.0622 27.7613 38.2247 27.3682 39.5327C27.2741 39.8487 27.1885 40.1139 27.1716 40.1309C27.1372 40.1736 25.9662 39.0282 25.5815 38.5837C24.9147 37.8144 24.3934 37.045 24.0087 36.2928C23.8121 35.9082 23.5045 35.156 23.53 35.1303C23.6668 35.0363 28.1716 33.2926 28.2059 33.3267ZM22.6153 35.5235C22.6239 35.5235 22.6324 35.5235 22.641 35.532C22.6581 35.5491 22.718 35.686 22.7693 35.8398C23.0427 36.5835 23.6581 37.6776 24.1882 38.3786C24.7695 39.1479 25.5303 39.9685 26.1627 40.507C26.368 40.678 26.5559 40.8403 26.5815 40.866C26.6329 40.9173 26.65 40.9087 25.2566 41.4388C23.6412 42.0542 21.8802 42.6697 19.8628 43.3193C19.3809 43.4746 18.8994 43.6314 18.4184 43.7894C18.3413 43.8151 18.367 43.7723 18.5893 43.4219C19.5894 41.8576 21.1109 38.7889 21.9657 36.6177C22.1111 36.2415 22.2564 35.8655 22.2821 35.78C22.3163 35.6602 22.3589 35.6175 22.47 35.5577C22.5298 35.5407 22.5898 35.5235 22.6153 35.5235ZM20.9059 36.233C20.9315 36.2502 20.4955 37.1647 20.0681 38.0025C19.2389 39.618 18.3328 41.2081 17.119 43.1399C16.9139 43.4732 16.7173 43.781 16.6916 43.8152C16.649 43.8751 16.6318 43.8579 16.495 43.5929C16.2044 43.0202 15.965 42.285 15.8368 41.6097C15.7085 40.9429 15.7342 39.7804 15.8796 39.0624C15.9906 38.5325 15.9822 38.5411 16.2386 38.4128C17.3327 37.8572 20.8717 36.1988 20.9059 36.233ZM35.6512 36.8315V37.1904C35.6512 39.0967 35.446 41.7123 35.1467 43.6186C35.0955 43.952 35.0526 44.2254 35.0442 44.2341C35.0442 44.2341 34.7963 44.1658 34.5057 44.0802C33.2235 43.6784 31.8302 43.0885 30.5736 42.3963C29.7443 41.9432 28.5391 41.1994 28.5734 41.1652C28.5818 41.1567 28.9409 40.9687 29.3596 40.7464C31.0353 39.8745 32.6421 38.9343 34.0355 38.0025C34.557 37.652 35.3432 37.0879 35.5144 36.934L35.6512 36.8315ZM14.452 39.3615C14.4862 39.3615 14.4776 39.4299 14.4263 39.7376C14.3921 39.96 14.3494 40.3703 14.3324 40.6522C14.2639 41.9003 14.4692 42.8235 15.0846 44.0886C15.2556 44.4391 15.3924 44.7297 15.3837 44.7382C15.3239 44.7896 9.66519 46.448 7.88707 46.9351C7.35714 47.0804 6.89563 47.2087 6.86125 47.2171C6.80154 47.2343 6.79294 47.2258 6.81856 47.0803C7.01514 45.8239 7.97257 44.1826 9.30601 42.7978C10.195 41.8746 10.9046 41.3361 12.1184 40.6436C12.9903 40.1479 14.3323 39.4044 14.4349 39.3701C14.435 39.3615 14.4435 39.3615 14.452 39.3615ZM27.787 41.7464C27.7955 41.7379 28.0006 41.8491 28.2485 41.9944C30.0778 43.0544 32.6251 44.0374 34.7962 44.5417L34.9929 44.5845L34.7193 44.7382C33.5825 45.3708 29.847 46.9265 26.0261 48.3541C25.4704 48.5592 24.9233 48.7644 24.8206 48.8071C24.7181 48.8498 24.624 48.8755 24.624 48.867C24.624 48.8583 24.778 48.5592 24.9744 48.1917C26.0429 46.1914 27.1201 43.7553 27.6671 42.0627C27.7357 41.9003 27.7783 41.7551 27.787 41.7464ZM26.4278 42.191C26.4365 42.1997 26.368 42.3791 26.2825 42.5842C25.5389 44.3878 24.5643 46.354 23.3163 48.5593C23.0001 49.1236 22.735 49.5766 22.7264 49.5766C22.718 49.5766 22.4614 49.4227 22.1537 49.2346C20.3415 48.1234 18.7345 46.7557 17.6832 45.4307L17.5292 45.2427L18.307 45.0289C21.0938 44.2683 23.4614 43.4476 25.8123 42.439C26.1457 42.3022 26.4193 42.191 26.4278 42.191ZM34.8733 45.1401C34.8818 45.3367 34.4458 47.0976 34.0868 48.3711C33.7876 49.4397 33.5311 50.2774 33.061 51.7561C32.8559 52.4059 32.6765 52.9443 32.6678 52.9443C32.6593 52.9443 32.608 52.9358 32.5568 52.9188C30.018 52.4571 27.7442 51.816 25.6072 50.9613C25.0088 50.7218 24.154 50.3372 24.1027 50.2945C24.0857 50.2772 24.5986 50.038 25.2482 49.7559C29.1376 48.0548 33.1722 46.123 34.557 45.2939C34.7193 45.1913 34.8476 45.1401 34.8733 45.1401ZM15.3752 45.8069C15.3923 45.8239 14.3067 47.3882 12.7851 49.5167C12.2552 50.2604 11.6397 51.1322 11.409 51.457C11.1781 51.7819 10.8277 52.2948 10.6311 52.6025L10.2719 53.1582L9.88723 52.8334C9.43416 52.4572 8.64785 51.6537 8.29738 51.2092C7.56219 50.2946 7.06651 49.3287 6.86989 48.4483C6.77584 48.0379 6.77583 47.8327 6.86121 47.8072C6.9894 47.773 9.27176 47.2344 11.4089 46.7386C12.5971 46.4651 13.9732 46.1403 14.469 46.0206C14.9649 45.9008 15.3667 45.8069 15.3752 45.8069ZM16.4693 46.2257L16.7428 46.5334C17.9738 47.9097 19.2304 48.9271 20.7519 49.8159C21.0255 49.9698 21.2306 50.1065 21.2134 50.1152C21.1537 50.1579 15.9308 52.0126 13.5117 52.8504C12.1526 53.329 11.0328 53.7137 11.0243 53.7137C11.0158 53.7137 10.9388 53.6625 10.8532 53.6026L10.6994 53.4914L10.9473 53.1325C11.7508 51.9699 12.7596 50.6963 14.9564 48.0465L16.4693 46.2257ZM23.2908 51.1066C23.2992 51.0981 23.6753 51.2348 24.1368 51.4059C25.2482 51.8247 26.1285 52.0896 27.3083 52.3888C28.7615 52.7565 30.8642 53.1155 32.1038 53.218C32.2918 53.235 32.3944 53.2522 32.3602 53.2779C32.3002 53.3121 31.0438 53.731 30.1206 54.0216C28.6502 54.4831 24.1626 55.808 20.5041 56.8595C19.8287 57.0561 19.2474 57.2185 19.2133 57.227C19.1279 57.2442 18.8457 57.1671 18.8457 57.1329C18.8457 57.116 19.0508 56.851 19.2988 56.5603C20.5296 55.09 21.7521 53.4488 22.7693 51.8931C23.0513 51.4655 23.2908 51.1151 23.2908 51.1066ZM21.7862 51.1494C21.7947 51.1579 21.1878 52.1323 20.128 53.8077C19.6749 54.5172 19.1705 55.3207 18.9909 55.6028C18.82 55.8764 18.5636 56.3039 18.4183 56.5431L18.1704 56.9791L18.0422 56.9449C17.7344 56.8594 15.5718 56.0986 14.999 55.8678C14.2895 55.5857 13.5544 55.2439 13.0073 54.9532C12.3235 54.5856 11.4688 54.0385 11.5371 54.0215C11.5541 54.013 12.7253 53.6966 14.1356 53.312C17.8797 52.2947 19.9568 51.7049 21.3161 51.2776C21.564 51.2006 21.7777 51.1407 21.7862 51.1494ZM32.4285 53.6453H32.437C32.4712 53.7309 31.0865 57.5775 30.582 58.7912C30.471 59.0647 30.4284 59.1333 30.3685 59.1245C30.2231 59.1162 28.2144 58.834 26.9919 58.6545C24.8636 58.3297 21.2904 57.7056 20.3929 57.5005L20.1878 57.4578L21.4613 57.167C24.1968 56.5516 25.5131 56.2182 26.8466 55.8079C28.5306 55.2951 30.1975 54.6539 31.8814 53.8676C32.1464 53.7479 32.3687 53.6538 32.4285 53.6453Z" fill="url(#paint0_linear_1457_32467)"/>
<path d="M26.0729 3.10054C25.8848 3.07503 22.8502 4.16916 20.8927 4.96403C18.2513 6.04121 16.1999 7.06703 14.9347 7.95583C14.4647 8.28935 13.8747 8.87909 13.7809 9.10984C13.7467 9.19534 13.7295 9.29791 13.7295 9.40047L14.875 10.4861L17.6017 11.358L24.0897 12.5205L31.5094 13.7942L31.5863 13.1531C31.5608 13.1531 31.5436 13.1446 31.5181 13.1446L30.5434 12.9907L30.3469 12.6403C29.3382 10.8622 28.227 8.65681 27.5774 7.16944C27.0731 6.01543 26.5944 4.68207 26.3293 3.72464C26.184 3.14338 26.167 3.10921 26.0731 3.10069V3.1005H26.0729V3.10054ZM25.9359 3.53662H25.9447C25.9531 3.54505 25.9873 3.78456 26.0216 4.06648C26.1668 5.26337 26.432 6.41718 26.8508 7.66524C27.167 8.60556 27.167 8.55432 26.7995 8.44312C25.9276 8.20385 22.0212 7.52854 19.1918 7.13534C18.7387 7.07547 18.354 7.01567 18.354 7.00716C18.3198 6.97298 20.3969 5.88728 21.3116 5.45999C22.4827 4.92134 25.6967 3.57931 25.9359 3.53662ZM17.6957 7.3661L18.0292 7.4771C19.8412 8.09265 24.3972 8.96459 26.9105 9.16972C27.1925 9.19538 27.432 9.22108 27.4404 9.22108C27.4489 9.22959 27.2097 9.35782 26.9019 9.50308C25.6882 10.11 24.3546 10.8537 23.4314 11.4265C23.158 11.5973 22.91 11.7342 22.8759 11.7342C22.8416 11.7342 22.6622 11.7 22.4741 11.6743L22.1322 11.6229L21.2775 10.7852C19.7731 9.32357 18.5934 8.19526 18.1403 7.76777L17.6957 7.3661ZM17.3539 7.63103L18.5591 9.13554C19.2173 9.9647 19.884 10.7767 20.0295 10.9562C20.1746 11.1358 20.2944 11.2812 20.2859 11.2897C20.2517 11.3153 18.5422 10.9819 17.636 10.7768C16.7042 10.563 16.3196 10.4605 15.7469 10.281L15.2767 10.1271V10.0074C15.2852 9.43461 16.0119 8.57986 17.2428 7.70805L17.3539 7.63103ZM27.5944 9.68259C27.6286 9.68259 27.6712 9.75949 27.7738 9.99029C28.0644 10.6313 28.9707 12.3581 29.1927 12.6915C29.2613 12.8027 29.3808 12.8112 28.1757 12.6146C25.278 12.1443 24.3461 11.9906 24.3461 11.9735C24.3461 11.965 24.4316 11.9051 24.5427 11.8453C25.4403 11.3496 26.3464 10.717 27.1499 10.0416C27.3466 9.87921 27.5261 9.72536 27.5602 9.69966C27.5687 9.68259 27.5859 9.67407 27.5944 9.68259Z" fill="url(#paint1_linear_1457_32467)"/>
<path d="M13.8447 8.98975C13.8447 8.98975 13.6567 9.28905 13.8362 9.73357C13.9474 10.007 14.2722 10.3403 14.6397 10.6823C14.6397 10.6823 18.4436 14.3921 18.9052 14.9222C21.0079 17.3498 21.9226 19.7432 22.0081 23.0428C22.0594 25.1627 21.6575 27.0262 20.6575 29.1889C18.8795 33.0697 15.1268 37.3523 9.33984 42.105L10.1862 41.8229C10.7333 41.4125 11.477 40.9767 13.2207 40.0193C17.2468 37.8138 21.7773 35.7879 27.3335 33.7022C35.3343 30.6932 48.4899 27.1714 55.9778 26.0261L56.7558 25.9063L56.6361 25.7182C55.9523 24.6583 55.4821 24.0001 54.9178 23.2992C53.2767 21.2647 51.2852 19.615 48.8488 18.2473C45.498 16.3754 41.164 14.9137 35.6763 13.8281C34.642 13.6228 32.3682 13.2296 30.5219 12.9476C26.6068 12.3408 24.0766 11.9219 21.29 11.4432C20.29 11.2721 18.7939 11.0158 17.8024 10.8021C17.2895 10.6909 16.3066 10.4601 15.5373 10.1952C14.9218 9.95569 14.0327 9.71634 13.8447 8.98975ZM16.0502 11.1268C16.0586 11.1184 16.1954 11.1695 16.375 11.2294C16.6998 11.3404 17.1186 11.4687 17.6146 11.6055C17.9897 11.7087 18.3658 11.8085 18.7429 11.9047C19.2557 12.0328 19.6831 12.1525 19.6916 12.1525C19.7515 12.2124 20.6149 14.9732 20.9055 16.0332C21.0165 16.4351 21.1022 16.7769 21.0936 16.7769C21.0848 16.7856 20.9909 16.6402 20.8798 16.4436C19.8797 14.6827 18.2983 12.8962 16.469 11.46C16.2298 11.2892 16.0502 11.1354 16.0502 11.1268ZM20.2558 12.2894C20.2986 12.2894 20.4866 12.315 20.7173 12.3663C22.1705 12.6911 24.7777 13.1869 26.4445 13.469C26.7266 13.5117 26.9489 13.5631 26.9489 13.5801C26.9489 13.5973 26.8463 13.657 26.718 13.7255C26.436 13.8707 25.2991 14.5459 24.923 14.8024C23.9741 15.435 23.1194 16.1188 22.5039 16.7342C22.256 16.9822 22.0422 17.1873 22.0422 17.1873C22.0422 17.1873 21.9911 17.0421 21.9482 16.8624C21.6406 15.6742 20.9994 13.9133 20.4182 12.6739C20.3241 12.4774 20.2471 12.2978 20.2471 12.2808C20.2471 12.2979 20.2471 12.2894 20.2558 12.2894ZM27.6584 13.6998C27.7096 13.7168 27.7951 14.0075 27.9661 14.6485C28.2824 15.8881 28.4277 17.2729 28.3764 18.5636C28.3592 18.9226 28.3422 19.2559 28.325 19.2988L28.2995 19.3842L27.855 19.2389C26.9403 18.9483 25.453 18.5122 24.1794 18.1533C23.4527 17.9567 22.863 17.7772 22.863 17.7601C22.863 17.7087 23.923 16.6488 24.376 16.2471C25.2392 15.4862 27.5814 13.6741 27.6584 13.6998ZM28.2482 13.7852C28.2739 13.7597 31.7871 14.3664 33.3856 14.6742C34.5738 14.905 36.3005 15.264 36.403 15.3068C36.4543 15.3239 36.2747 15.4264 35.702 15.6828C33.4454 16.7001 31.7699 17.6146 30.1032 18.726C29.6672 19.0166 29.2996 19.2559 29.2911 19.2559C29.2826 19.2559 29.274 19.0081 29.274 18.7089C29.274 17.0848 28.9492 15.4436 28.3507 14.0588C28.2909 13.922 28.2396 13.7938 28.2482 13.7852ZM37.3347 15.5804C37.3604 15.606 37.2492 16.2984 37.1466 16.7087C36.8389 17.9823 36.0098 19.8716 34.9927 21.6495C34.813 21.9658 34.6507 22.2222 34.6334 22.2307C34.6165 22.2392 34.3857 22.111 34.1207 21.9571C33.1291 21.3759 32.0008 20.8288 30.7698 20.3159C30.428 20.1706 30.1288 20.0509 30.1202 20.0339C30.0603 19.9825 32.8128 18.1618 34.266 17.2899C35.42 16.589 37.3005 15.5461 37.3347 15.5804ZM37.9843 15.6829C38.0613 15.6829 39.617 16.1103 40.429 16.3497C42.4379 16.9481 44.7458 17.7943 46.2502 18.4781L46.8741 18.7603L46.4383 18.8628C42.7628 19.709 39.617 20.6836 36.5824 21.9145C36.3345 22.017 36.1123 22.1025 36.0953 22.1025C36.0782 22.1025 36.1637 21.906 36.2748 21.6665C37.1894 19.7262 37.7793 17.7003 37.9244 15.9735C37.9331 15.811 37.9586 15.6829 37.9843 15.6829ZM22.4954 19.2389C22.521 19.2132 23.7092 19.4954 24.3503 19.6747C25.3248 19.9484 27.3933 20.6407 27.3933 20.692C27.3933 20.7005 27.1626 20.8972 26.8891 21.1366C25.7694 22.0683 24.6922 23.0512 23.4014 24.2993C23.0167 24.667 22.692 24.9661 22.6749 24.9661C22.6578 24.9661 22.6494 24.9147 22.6578 24.8464C22.8543 23.4102 22.8117 21.5639 22.5382 19.6919C22.5124 19.4525 22.4868 19.2474 22.4954 19.2389ZM47.4642 19.2646C47.4811 19.2816 46.917 20.1706 46.558 20.6749C46.0452 21.41 45.2928 22.3846 43.5917 24.5216C42.6944 25.6499 41.6856 26.9236 41.3523 27.351C41.0102 27.7784 40.7283 28.1373 40.7196 28.1373C40.7111 28.1373 40.6001 27.9835 40.4804 27.7955C39.523 26.3594 38.3775 25.1028 37.0183 23.9745C36.7619 23.7607 36.48 23.5299 36.3859 23.4616C36.2918 23.3932 36.2149 23.3248 36.2149 23.3163C36.2149 23.2907 37.6679 22.6666 38.7708 22.2222C40.7027 21.4357 43.3352 20.4955 45.3099 19.8885C46.3443 19.5637 47.447 19.2474 47.4642 19.2646ZM48.1223 19.4355C48.1564 19.427 48.3617 19.5295 48.6096 19.6747C50.6868 20.8629 52.7211 22.3931 54.3282 23.9659C54.7812 24.4105 55.901 25.573 55.8838 25.5815C55.8838 25.5815 55.4906 25.6157 55.0291 25.6499C51.4304 25.9235 46.8231 26.6841 42.3952 27.7526C42.096 27.8209 41.8311 27.8808 41.8139 27.8808C41.797 27.8808 42.1302 27.5475 42.5492 27.1458C45.1477 24.6412 46.336 23.0598 47.7377 20.2389C47.9342 19.8202 48.1053 19.4612 48.1223 19.4355C48.1138 19.4355 48.1138 19.4355 48.1223 19.4355ZM29.0858 21.3845C29.2056 21.41 30.3168 21.9317 31.1545 22.3504C31.9238 22.7349 33.0779 23.3505 33.1377 23.4017C33.1462 23.4102 32.7358 23.624 32.2317 23.8719C30.6245 24.6754 29.2484 25.4361 27.8122 26.308C27.4019 26.556 27.06 26.7612 27.0515 26.7612C27.0173 26.7612 27.0258 26.7268 27.2566 26.308C28.026 24.9063 28.6414 23.2308 28.992 21.5981C29.026 21.4699 29.0603 21.3845 29.0858 21.3845ZM27.9746 21.5896C28.0003 21.6153 27.7096 22.6666 27.5302 23.2394C27.1796 24.325 26.5898 25.6841 26.0172 26.7099C25.8803 26.9491 25.6752 27.2996 25.5641 27.4962L25.3504 27.8381L24.8717 27.3766C24.3162 26.838 23.863 26.5047 23.2819 26.2054C23.0509 26.0859 22.8715 25.9832 22.8715 25.9662C22.8715 25.8978 24.3332 24.5729 25.453 23.6155C26.2564 22.9231 27.949 21.564 27.9746 21.5896ZM34.7704 24.3848L35.1893 24.6583C36.1465 25.2824 37.2748 26.1115 38.1383 26.838C38.6254 27.2397 39.5656 28.0861 39.7539 28.2912L39.8563 28.4025L39.1641 28.599C35.249 29.6845 32.223 30.6505 28.6926 31.9498C28.2995 32.0951 27.9661 32.2148 27.9404 32.2148C27.8892 32.2148 27.8463 32.2575 28.7269 31.4454C30.9836 29.3684 32.9838 27.0773 34.4712 24.8463L34.7704 24.3848ZM32.9838 24.8293C33.0009 24.8464 31.8298 26.4961 31.1288 27.4279C30.2911 28.5391 28.8037 30.4026 27.778 31.6163C27.3507 32.1207 26.9832 32.5395 26.966 32.5481C26.9403 32.5566 26.9318 32.4284 26.9318 32.2318C26.9318 31.1974 26.6669 30.0947 26.2052 29.1545C26.0086 28.7613 25.9744 28.6673 26.0173 28.6246C26.1796 28.4792 28.6671 27.0602 30.2399 26.214C31.2998 25.6499 32.958 24.8122 32.9838 24.8293ZM22.179 27.4792C22.2047 27.4792 22.4013 27.5817 22.6236 27.7015C23.1707 28.0006 23.6579 28.334 24.0938 28.6931C24.1109 28.7101 23.8887 28.8897 23.5981 29.1032C22.786 29.6845 21.5551 30.6163 20.8372 31.1891C20.0848 31.7874 20.0593 31.8045 20.1447 31.6763C20.7089 30.8129 20.9909 30.3257 21.2902 29.7017C21.5551 29.1462 21.82 28.4879 22.0081 27.9152C22.0765 27.6673 22.162 27.4792 22.179 27.4792ZM25.0598 29.7358C25.1024 29.7274 25.1539 29.8042 25.3846 30.1462C25.8718 30.8727 26.2479 31.8473 26.3421 32.6337L26.359 32.8047L25.1881 33.2578C23.0937 34.0697 21.162 34.8733 19.8539 35.4716C19.4865 35.6426 18.8453 35.9503 18.4266 36.1556C18.0077 36.3691 17.6658 36.5316 17.6658 36.5231C17.6658 36.5145 17.9307 36.3179 18.2555 36.0785C20.8115 34.2237 23.0254 32.1891 24.6837 30.1548C24.8632 29.941 25.0257 29.7444 25.0426 29.7359L25.0598 29.7358ZM23.7349 30.0607C23.7691 30.0949 22.7947 31.1975 22.1279 31.8728C20.4781 33.5569 18.8454 34.8733 16.8195 36.1556C16.5631 36.3179 16.3323 36.4632 16.3066 36.4804C16.2467 36.5145 16.3236 36.429 17.2127 35.4631C17.7769 34.8561 18.2043 34.3433 18.6915 33.7108C19.0163 33.292 19.0762 33.2321 19.5464 32.8986C20.803 31.9925 23.7007 30.0265 23.7349 30.0607Z" fill="url(#paint2_radial_1457_32467)"/>
<defs>
<linearGradient id="paint0_linear_1457_32467" x1="13.6704" y1="53.9853" x2="17.7597" y2="51.569" gradientUnits="userSpaceOnUse">
<stop stop-color="#909CA9"/>
<stop offset="1" stop-color="#EDEDEE"/>
</linearGradient>
<linearGradient id="paint1_linear_1457_32467" x1="13.7595" y1="8.43066" x2="17.0499" y2="8.43066" gradientUnits="userSpaceOnUse">
<stop stop-color="#939FAB"/>
<stop offset="1" stop-color="#DCDEE1"/>
</linearGradient>
<radialGradient id="paint2_radial_1457_32467" cx="0" cy="0" r="1" gradientUnits="userSpaceOnUse" gradientTransform="translate(30.367 23.521) rotate(-171.457) scale(4.24223 8.48657)">
<stop stop-color="#EE352C"/>
<stop offset="1" stop-color="#A91D22"/>
</radialGradient>
</defs>
</svg>
