<svg width="55" height="55" viewBox="0 0 55 55" fill="none" xmlns="http://www.w3.org/2000/svg">
<mask id="mask0_658_2881" style="mask-type:alpha" maskUnits="userSpaceOnUse" x="0" y="0" width="55" height="55">
<rect width="55" height="55" fill="#D9D9D9"/>
</mask>
<g mask="url(#mask0_658_2881)">
<path d="M36.4506 35.5835L36.4603 45.5311L27.633 49.9361V39.9928L36.4506 35.5835ZM47.0447 30.2669V40.2493L39.5158 44.0066L39.5104 34.0699L47.0447 30.2669ZM36.4375 22.2686L36.4473 32.1119L27.633 36.4919V26.6453L36.4375 22.2686ZM47.0447 16.9954V26.7768L39.5082 30.6081L39.5017 20.7452L47.0447 16.9954ZM26.2911 15.8382L34.1698 19.8151L25.9955 23.9202L18.2656 20.0378L26.2911 15.8382ZM15.3318 10.3064L22.8466 14.0997L14.8027 18.2982L7.08472 14.4224L15.3318 10.3064ZM36.8135 10.364L44.9074 14.4224L37.6686 18.0581L29.7735 14.0758L36.8135 10.364ZM26.0433 4.96265L33.3299 8.61572L26.3432 12.3459L18.835 8.55922L26.0433 4.96265Z" fill="#4DABCF"/>
<path d="M24.5134 26.6456L18.5677 23.6564V36.5769C18.5677 36.5769 11.2963 21.1051 10.6226 19.7154C10.5357 19.5361 10.1782 19.3394 10.0869 19.2916C8.78305 18.6071 4.96265 16.6719 4.96265 16.6719V39.4987L10.2478 42.3238V30.3921C10.2478 30.3921 17.442 44.2166 17.5148 44.3677C17.5876 44.5187 18.3102 45.9758 19.0816 46.4876C20.1095 47.1678 24.5145 49.8168 24.5145 49.8168L24.5134 26.6456Z" fill="#4D77CF"/>
</g>
</svg>
