<svg width="55" height="55" viewBox="0 0 55 55" fill="none" xmlns="http://www.w3.org/2000/svg">
<mask id="mask0_658_3249" style="mask-type:alpha" maskUnits="userSpaceOnUse" x="0" y="0" width="55" height="55">
<rect width="55" height="55" fill="#D9D9D9"/>
</mask>
<g mask="url(#mask0_658_3249)">
<path fill-rule="evenodd" clip-rule="evenodd" d="M34.9157 35.6128V21.0559C34.9156 20.8069 34.8167 20.5682 34.6406 20.3922C34.4646 20.2162 34.2259 20.1173 33.9769 20.1173H19.437V5.09131H48.9863C49.1096 5.09128 49.2317 5.11555 49.3456 5.16271C49.4595 5.20988 49.563 5.27902 49.6502 5.36619C49.7374 5.45336 49.8066 5.55685 49.8537 5.67075C49.9009 5.78466 49.9252 5.90674 49.9252 6.03003V35.6128H34.9157Z" fill="#8E75FF"/>
<path opacity="0.405" fill-rule="evenodd" clip-rule="evenodd" d="M19.4346 5.09131V20.1173H5.55734C5.46453 20.1173 5.37381 20.0898 5.29665 20.0382C5.21948 19.9866 5.15933 19.9134 5.12379 19.8276C5.08825 19.7419 5.07893 19.6475 5.09699 19.5565C5.11505 19.4655 5.15969 19.3818 5.22526 19.3162L19.4346 5.09131ZM34.9132 49.5047V35.6128H49.9228L35.7146 49.8364C35.6489 49.902 35.5653 49.9467 35.4743 49.9648C35.3833 49.9829 35.2889 49.9736 35.2031 49.9381C35.1174 49.9026 35.0441 49.8425 34.9925 49.7653C34.9409 49.6882 34.9133 49.5975 34.9132 49.5047ZM19.4346 20.1173H34.4438C34.5683 20.1173 34.6876 20.1668 34.7757 20.2548C34.8637 20.3428 34.9132 20.4621 34.9132 20.5866V35.6128H20.3733C20.25 35.6128 20.128 35.5885 20.0141 35.5413C19.9002 35.4942 19.7967 35.425 19.7095 35.3379C19.6224 35.2507 19.5532 35.1472 19.5061 35.0333C19.4589 34.9194 19.4346 34.7974 19.4346 34.6741V20.1173Z" fill="#8E75FF"/>
</g>
</svg>
