<svg width="55" height="55" viewBox="0 0 55 55" fill="none" xmlns="http://www.w3.org/2000/svg">
<mask id="mask0_658_3331" style="mask-type:alpha" maskUnits="userSpaceOnUse" x="0" y="0" width="55" height="55">
<rect width="55" height="55" fill="#D9D9D9"/>
</mask>
<g mask="url(#mask0_658_3331)">
<g clip-path="url(#clip0_658_3331)">
<path d="M27.5187 50.0373C39.9554 50.0373 50.0373 39.9554 50.0373 27.5187C50.0373 15.0819 39.9554 5 27.5187 5C15.0819 5 5 15.0819 5 27.5187C5 39.9554 15.0819 50.0373 27.5187 50.0373Z" fill="black"/>
<path d="M29.1415 23.3053C29.4846 23.125 30.1003 23.1426 30.1003 23.1426C30.1003 23.7408 30.0432 24.097 29.6649 24.3741C29.5462 24.4621 29.3351 24.5984 29.0932 24.6864C28.7589 24.8095 28.5302 25.025 28.5302 25.025C28.5302 23.9343 28.6973 23.5384 29.1415 23.3053ZM26.4982 23.5604C26.1332 23.8815 26.0276 24.3917 26.0276 24.3917L24.8225 29.0582L23.8197 25.2361C23.723 24.8315 23.5471 24.3257 23.27 23.9871C22.9137 23.556 22.1924 23.5253 22.1176 23.5253C22.0429 23.5253 21.3216 23.5516 20.9653 23.9871C20.6882 24.3257 20.5123 24.8271 20.4156 25.2361L19.4084 29.0582L18.2033 24.3917C18.2033 24.3917 18.0977 23.8815 17.7327 23.5604C17.1433 23.0415 16.2593 23.1514 16.2593 23.1514L18.5639 31.873C18.5639 31.873 19.3248 31.9258 19.7074 31.7322C20.2088 31.4772 20.4463 31.2792 20.7498 30.0917C21.0181 29.0318 21.7746 25.9267 21.845 25.7024C21.8801 25.5924 21.9241 25.3329 22.1176 25.3329C22.3156 25.3329 22.3552 25.5924 22.3903 25.7024C22.4607 25.9223 23.2172 29.0318 23.4855 30.0917C23.789 31.2792 24.0265 31.4772 24.5278 31.7322C24.9105 31.9258 25.6714 31.873 25.6714 31.873L27.9804 23.147C27.9716 23.1514 27.0876 23.0371 26.4982 23.5604ZM30.1003 24.5764C30.1003 24.5764 29.9552 24.8007 29.6253 24.9854C29.4142 25.1042 29.2119 25.1834 28.992 25.2889C28.627 25.4648 28.5302 25.6584 28.5302 25.9574V31.873C28.5302 31.873 29.1108 31.9478 29.4934 31.7542C29.9816 31.5035 30.0959 31.2616 30.1003 30.1797V24.5764ZM35.8532 27.532L38.7823 23.1778C38.7823 23.1778 37.5465 22.9667 36.9351 23.5253C36.5437 23.8815 36.1039 24.5236 36.1039 24.5236L35.0263 26.0762C34.9735 26.1554 34.9075 26.2433 34.7976 26.2433C34.6876 26.2433 34.6217 26.1554 34.5689 26.0762L33.4913 24.5236C33.4913 24.5236 33.0515 23.8815 32.6601 23.5253C32.0487 22.9667 30.8128 23.1778 30.8128 23.1778L33.742 27.532L30.8172 31.873C30.8172 31.873 32.1059 32.0357 32.7173 31.4772C33.1087 31.1209 33.4869 30.5403 33.4869 30.5403L34.5645 28.9878C34.6173 28.9086 34.6832 28.8207 34.7932 28.8207C34.9031 28.8207 34.9691 28.9086 35.0219 28.9878L36.0995 30.5403C36.0995 30.5403 36.4997 31.1209 36.8911 31.4772C37.5025 32.0357 38.7691 31.873 38.7691 31.873L35.8532 27.532Z" fill="white"/>
</g>
</g>
<defs>
<clipPath id="clip0_658_3331">
<rect width="45.0373" height="45.0373" fill="white" transform="translate(5 5)"/>
</clipPath>
</defs>
</svg>
